G04 EAGLE Gerber RS-274X export*
G75*
%MOMM*%
%FSLAX34Y34*%
%LPD*%
%INTop Copper*%
%IPPOS*%
%AMOC8*
5,1,8,0,0,1.08239X$1,22.5*%
G01*
%ADD10C,1.524000*%
%ADD11R,1.200000X1.200000*%
%ADD12R,1.300000X1.500000*%
%ADD13R,1.288000X1.288000*%
%ADD14C,1.288000*%
%ADD15C,0.152400*%
%ADD16C,0.756400*%

G36*
X387880Y340745D02*
X387880Y340745D01*
X387899Y340743D01*
X388001Y340765D01*
X388103Y340781D01*
X388120Y340791D01*
X388140Y340795D01*
X388229Y340848D01*
X388320Y340897D01*
X388334Y340911D01*
X388351Y340921D01*
X388418Y341000D01*
X388490Y341075D01*
X388498Y341093D01*
X388511Y341108D01*
X388550Y341204D01*
X388593Y341298D01*
X388595Y341318D01*
X388603Y341336D01*
X388621Y341503D01*
X388621Y795301D01*
X388618Y795321D01*
X388620Y795340D01*
X388598Y795442D01*
X388582Y795544D01*
X388572Y795561D01*
X388568Y795581D01*
X388515Y795670D01*
X388466Y795761D01*
X388452Y795775D01*
X388442Y795792D01*
X388363Y795859D01*
X388288Y795931D01*
X388270Y795939D01*
X388255Y795952D01*
X388159Y795991D01*
X388065Y796034D01*
X388045Y796036D01*
X388027Y796044D01*
X387860Y796062D01*
X27432Y796062D01*
X27412Y796059D01*
X27393Y796061D01*
X27291Y796039D01*
X27189Y796023D01*
X27172Y796013D01*
X27152Y796009D01*
X27063Y795956D01*
X26972Y795907D01*
X26958Y795893D01*
X26941Y795883D01*
X26874Y795804D01*
X26802Y795729D01*
X26794Y795711D01*
X26781Y795696D01*
X26742Y795600D01*
X26699Y795506D01*
X26697Y795486D01*
X26689Y795468D01*
X26671Y795301D01*
X26671Y341503D01*
X26674Y341483D01*
X26672Y341464D01*
X26694Y341362D01*
X26710Y341260D01*
X26720Y341243D01*
X26724Y341223D01*
X26777Y341134D01*
X26826Y341043D01*
X26840Y341029D01*
X26850Y341012D01*
X26929Y340945D01*
X27004Y340873D01*
X27022Y340865D01*
X27037Y340852D01*
X27133Y340813D01*
X27227Y340770D01*
X27247Y340768D01*
X27265Y340760D01*
X27432Y340742D01*
X387860Y340742D01*
X387880Y340745D01*
G37*
%LPC*%
G36*
X241509Y353179D02*
X241509Y353179D01*
X240616Y354072D01*
X240616Y370336D01*
X241509Y371229D01*
X255773Y371229D01*
X256666Y370336D01*
X256666Y365252D01*
X256669Y365232D01*
X256667Y365213D01*
X256689Y365111D01*
X256705Y365009D01*
X256715Y364992D01*
X256719Y364972D01*
X256772Y364883D01*
X256821Y364792D01*
X256835Y364778D01*
X256845Y364761D01*
X256924Y364694D01*
X256999Y364622D01*
X257017Y364614D01*
X257032Y364601D01*
X257128Y364562D01*
X257222Y364519D01*
X257242Y364517D01*
X257260Y364509D01*
X257427Y364491D01*
X271155Y364491D01*
X271175Y364494D01*
X271194Y364492D01*
X271296Y364514D01*
X271398Y364530D01*
X271415Y364540D01*
X271435Y364544D01*
X271524Y364597D01*
X271615Y364646D01*
X271629Y364660D01*
X271646Y364670D01*
X271713Y364749D01*
X271785Y364824D01*
X271793Y364842D01*
X271806Y364857D01*
X271845Y364953D01*
X271888Y365047D01*
X271890Y365067D01*
X271898Y365085D01*
X271916Y365252D01*
X271916Y368836D01*
X272809Y369729D01*
X283417Y369729D01*
X283507Y369743D01*
X283598Y369751D01*
X283627Y369763D01*
X283659Y369768D01*
X283740Y369811D01*
X283824Y369847D01*
X283856Y369873D01*
X283877Y369884D01*
X283899Y369907D01*
X283955Y369952D01*
X288615Y374612D01*
X290178Y376175D01*
X345447Y376175D01*
X345538Y376189D01*
X345628Y376197D01*
X345658Y376209D01*
X345690Y376214D01*
X345771Y376257D01*
X345855Y376293D01*
X345887Y376319D01*
X345908Y376330D01*
X345930Y376353D01*
X345986Y376398D01*
X350770Y381182D01*
X350797Y381219D01*
X350830Y381250D01*
X350868Y381318D01*
X350913Y381381D01*
X350927Y381425D01*
X350949Y381466D01*
X350963Y381542D01*
X350986Y381616D01*
X350984Y381662D01*
X350993Y381708D01*
X350981Y381785D01*
X350979Y381862D01*
X350964Y381905D01*
X350957Y381951D01*
X350922Y382020D01*
X350895Y382093D01*
X350866Y382129D01*
X350845Y382170D01*
X350790Y382225D01*
X350741Y382285D01*
X350702Y382310D01*
X350670Y382342D01*
X350550Y382408D01*
X350534Y382418D01*
X350529Y382420D01*
X350523Y382423D01*
X350293Y382518D01*
X347720Y385091D01*
X346328Y388452D01*
X346328Y392090D01*
X347716Y395441D01*
X347727Y395485D01*
X347746Y395527D01*
X347755Y395604D01*
X347772Y395680D01*
X347768Y395726D01*
X347773Y395771D01*
X347757Y395848D01*
X347749Y395925D01*
X347731Y395967D01*
X347721Y396012D01*
X347681Y396079D01*
X347649Y396150D01*
X347618Y396184D01*
X347595Y396223D01*
X347536Y396274D01*
X347483Y396331D01*
X347443Y396353D01*
X347408Y396383D01*
X347336Y396412D01*
X347267Y396449D01*
X347222Y396458D01*
X347180Y396475D01*
X347044Y396490D01*
X347025Y396493D01*
X347020Y396492D01*
X347013Y396493D01*
X307277Y396493D01*
X307181Y396478D01*
X307084Y396468D01*
X307060Y396458D01*
X307034Y396454D01*
X306948Y396408D01*
X306859Y396368D01*
X306840Y396351D01*
X306817Y396338D01*
X306750Y396268D01*
X306678Y396202D01*
X306666Y396179D01*
X306648Y396160D01*
X306606Y396072D01*
X306560Y395986D01*
X306555Y395961D01*
X306544Y395937D01*
X306533Y395840D01*
X306516Y395744D01*
X306520Y395718D01*
X306517Y395693D01*
X306537Y395598D01*
X306552Y395501D01*
X306563Y395478D01*
X306569Y395452D01*
X306619Y395369D01*
X306663Y395282D01*
X306682Y395263D01*
X306695Y395241D01*
X306769Y395178D01*
X306839Y395110D01*
X306867Y395094D01*
X306882Y395081D01*
X306913Y395069D01*
X306986Y395029D01*
X307305Y394897D01*
X307734Y394468D01*
X307966Y393907D01*
X307966Y389127D01*
X301203Y389127D01*
X301183Y389124D01*
X301164Y389126D01*
X301062Y389104D01*
X300960Y389087D01*
X300943Y389078D01*
X300923Y389074D01*
X300834Y389021D01*
X300743Y388972D01*
X300729Y388958D01*
X300712Y388948D01*
X300645Y388869D01*
X300574Y388794D01*
X300565Y388776D01*
X300552Y388761D01*
X300513Y388665D01*
X300470Y388571D01*
X300468Y388551D01*
X300460Y388533D01*
X300442Y388366D01*
X300442Y387603D01*
X300440Y387603D01*
X300440Y388366D01*
X300437Y388386D01*
X300439Y388405D01*
X300417Y388507D01*
X300400Y388609D01*
X300391Y388626D01*
X300387Y388646D01*
X300334Y388735D01*
X300285Y388826D01*
X300271Y388840D01*
X300261Y388857D01*
X300182Y388924D01*
X300107Y388995D01*
X300089Y389004D01*
X300074Y389017D01*
X299978Y389056D01*
X299884Y389099D01*
X299864Y389101D01*
X299846Y389109D01*
X299679Y389127D01*
X292916Y389127D01*
X292916Y393907D01*
X293148Y394468D01*
X293577Y394897D01*
X293896Y395029D01*
X293979Y395080D01*
X294065Y395126D01*
X294083Y395145D01*
X294105Y395158D01*
X294167Y395233D01*
X294234Y395304D01*
X294246Y395328D01*
X294262Y395348D01*
X294297Y395438D01*
X294338Y395527D01*
X294341Y395553D01*
X294350Y395577D01*
X294354Y395675D01*
X294365Y395771D01*
X294360Y395797D01*
X294361Y395823D01*
X294334Y395917D01*
X294313Y396012D01*
X294300Y396034D01*
X294292Y396059D01*
X294237Y396139D01*
X294187Y396223D01*
X294167Y396240D01*
X294152Y396261D01*
X294074Y396319D01*
X294000Y396383D01*
X293976Y396393D01*
X293955Y396408D01*
X293862Y396438D01*
X293772Y396475D01*
X293739Y396478D01*
X293721Y396484D01*
X293688Y396484D01*
X293605Y396493D01*
X291880Y396493D01*
X291789Y396479D01*
X291699Y396471D01*
X291669Y396459D01*
X291637Y396454D01*
X291556Y396411D01*
X291472Y396375D01*
X291440Y396349D01*
X291419Y396338D01*
X291397Y396315D01*
X291341Y396270D01*
X287189Y392118D01*
X287136Y392044D01*
X287076Y391974D01*
X287064Y391944D01*
X287045Y391918D01*
X287018Y391831D01*
X286984Y391746D01*
X286980Y391705D01*
X286973Y391683D01*
X286974Y391651D01*
X286966Y391579D01*
X286966Y380972D01*
X286073Y380079D01*
X272809Y380079D01*
X271916Y380972D01*
X271916Y384556D01*
X271913Y384576D01*
X271915Y384595D01*
X271893Y384697D01*
X271877Y384799D01*
X271867Y384816D01*
X271863Y384836D01*
X271810Y384925D01*
X271761Y385016D01*
X271747Y385030D01*
X271737Y385047D01*
X271658Y385114D01*
X271583Y385186D01*
X271565Y385194D01*
X271550Y385207D01*
X271454Y385246D01*
X271360Y385289D01*
X271340Y385291D01*
X271322Y385299D01*
X271155Y385317D01*
X257427Y385317D01*
X257407Y385314D01*
X257388Y385316D01*
X257286Y385294D01*
X257184Y385278D01*
X257167Y385268D01*
X257147Y385264D01*
X257058Y385211D01*
X256967Y385162D01*
X256953Y385148D01*
X256936Y385138D01*
X256869Y385059D01*
X256797Y384984D01*
X256789Y384966D01*
X256776Y384951D01*
X256737Y384855D01*
X256694Y384761D01*
X256692Y384741D01*
X256684Y384723D01*
X256666Y384556D01*
X256666Y379472D01*
X255773Y378579D01*
X241509Y378579D01*
X240616Y379472D01*
X240616Y395736D01*
X241509Y396629D01*
X255773Y396629D01*
X256666Y395736D01*
X256666Y390652D01*
X256669Y390632D01*
X256667Y390613D01*
X256689Y390511D01*
X256705Y390409D01*
X256715Y390392D01*
X256719Y390372D01*
X256772Y390283D01*
X256821Y390192D01*
X256835Y390178D01*
X256845Y390161D01*
X256924Y390094D01*
X256999Y390022D01*
X257017Y390014D01*
X257032Y390001D01*
X257128Y389962D01*
X257222Y389919D01*
X257242Y389917D01*
X257260Y389909D01*
X257427Y389891D01*
X271155Y389891D01*
X271175Y389894D01*
X271194Y389892D01*
X271296Y389914D01*
X271398Y389930D01*
X271415Y389940D01*
X271435Y389944D01*
X271524Y389997D01*
X271615Y390046D01*
X271629Y390060D01*
X271646Y390070D01*
X271713Y390149D01*
X271785Y390224D01*
X271793Y390242D01*
X271806Y390257D01*
X271845Y390353D01*
X271888Y390447D01*
X271890Y390467D01*
X271898Y390485D01*
X271916Y390652D01*
X271916Y394236D01*
X272809Y395129D01*
X283416Y395129D01*
X283507Y395143D01*
X283597Y395151D01*
X283627Y395163D01*
X283659Y395168D01*
X283740Y395211D01*
X283824Y395247D01*
X283856Y395273D01*
X283877Y395284D01*
X283899Y395307D01*
X283955Y395352D01*
X289670Y401067D01*
X344939Y401067D01*
X345030Y401081D01*
X345120Y401089D01*
X345150Y401101D01*
X345182Y401106D01*
X345263Y401149D01*
X345347Y401185D01*
X345379Y401211D01*
X345400Y401222D01*
X345422Y401245D01*
X345478Y401290D01*
X350770Y406582D01*
X350797Y406619D01*
X350830Y406650D01*
X350868Y406718D01*
X350913Y406781D01*
X350927Y406825D01*
X350949Y406866D01*
X350963Y406942D01*
X350986Y407016D01*
X350984Y407062D01*
X350993Y407108D01*
X350981Y407185D01*
X350979Y407262D01*
X350964Y407305D01*
X350957Y407351D01*
X350922Y407420D01*
X350895Y407493D01*
X350866Y407529D01*
X350845Y407570D01*
X350790Y407625D01*
X350741Y407685D01*
X350702Y407710D01*
X350670Y407742D01*
X350550Y407808D01*
X350534Y407818D01*
X350529Y407820D01*
X350523Y407823D01*
X350293Y407918D01*
X347720Y410491D01*
X346328Y413852D01*
X346328Y417490D01*
X347722Y420854D01*
X347759Y420906D01*
X347808Y420958D01*
X347830Y421005D01*
X347861Y421047D01*
X347882Y421116D01*
X347912Y421181D01*
X347918Y421233D01*
X347933Y421282D01*
X347931Y421354D01*
X347939Y421425D01*
X347928Y421476D01*
X347927Y421528D01*
X347902Y421596D01*
X347887Y421666D01*
X347860Y421711D01*
X347842Y421759D01*
X347797Y421815D01*
X347761Y421877D01*
X347721Y421911D01*
X347689Y421951D01*
X347628Y421990D01*
X347574Y422037D01*
X347525Y422056D01*
X347482Y422084D01*
X347412Y422102D01*
X347346Y422129D01*
X347274Y422137D01*
X347243Y422145D01*
X347220Y422143D01*
X347179Y422147D01*
X292133Y422147D01*
X292043Y422133D01*
X291952Y422125D01*
X291923Y422113D01*
X291891Y422108D01*
X291810Y422065D01*
X291726Y422029D01*
X291694Y422003D01*
X291673Y421992D01*
X291651Y421969D01*
X291595Y421924D01*
X287189Y417518D01*
X287136Y417444D01*
X287076Y417374D01*
X287064Y417344D01*
X287045Y417318D01*
X287018Y417231D01*
X286984Y417146D01*
X286980Y417105D01*
X286973Y417083D01*
X286974Y417051D01*
X286966Y416980D01*
X286966Y406372D01*
X286073Y405479D01*
X272809Y405479D01*
X271916Y406372D01*
X271916Y409956D01*
X271913Y409976D01*
X271915Y409995D01*
X271893Y410097D01*
X271877Y410199D01*
X271867Y410216D01*
X271863Y410236D01*
X271810Y410325D01*
X271761Y410416D01*
X271747Y410430D01*
X271737Y410447D01*
X271658Y410514D01*
X271583Y410586D01*
X271565Y410594D01*
X271550Y410607D01*
X271454Y410646D01*
X271360Y410689D01*
X271340Y410691D01*
X271322Y410699D01*
X271155Y410717D01*
X257427Y410717D01*
X257407Y410714D01*
X257388Y410716D01*
X257286Y410694D01*
X257184Y410678D01*
X257167Y410668D01*
X257147Y410664D01*
X257058Y410611D01*
X256967Y410562D01*
X256953Y410548D01*
X256936Y410538D01*
X256869Y410459D01*
X256797Y410384D01*
X256789Y410366D01*
X256776Y410351D01*
X256737Y410255D01*
X256694Y410161D01*
X256692Y410141D01*
X256684Y410123D01*
X256666Y409956D01*
X256666Y404872D01*
X255773Y403979D01*
X241509Y403979D01*
X240616Y404872D01*
X240616Y421136D01*
X241509Y422029D01*
X255773Y422029D01*
X256666Y421136D01*
X256666Y416052D01*
X256669Y416032D01*
X256667Y416013D01*
X256689Y415911D01*
X256705Y415809D01*
X256715Y415792D01*
X256719Y415772D01*
X256772Y415683D01*
X256821Y415592D01*
X256835Y415578D01*
X256845Y415561D01*
X256924Y415494D01*
X256999Y415422D01*
X257017Y415414D01*
X257032Y415401D01*
X257128Y415362D01*
X257222Y415319D01*
X257242Y415317D01*
X257260Y415309D01*
X257427Y415291D01*
X271155Y415291D01*
X271175Y415294D01*
X271194Y415292D01*
X271296Y415314D01*
X271398Y415330D01*
X271415Y415340D01*
X271435Y415344D01*
X271524Y415397D01*
X271615Y415446D01*
X271629Y415460D01*
X271646Y415470D01*
X271713Y415549D01*
X271785Y415624D01*
X271793Y415642D01*
X271806Y415657D01*
X271845Y415753D01*
X271888Y415847D01*
X271890Y415867D01*
X271898Y415885D01*
X271916Y416052D01*
X271916Y419636D01*
X272809Y420529D01*
X283417Y420529D01*
X283507Y420543D01*
X283598Y420551D01*
X283627Y420563D01*
X283659Y420568D01*
X283740Y420611D01*
X283824Y420647D01*
X283856Y420673D01*
X283877Y420684D01*
X283899Y420707D01*
X283955Y420752D01*
X288361Y425158D01*
X289924Y426721D01*
X345193Y426721D01*
X345284Y426735D01*
X345374Y426743D01*
X345404Y426755D01*
X345436Y426760D01*
X345517Y426803D01*
X345601Y426839D01*
X345633Y426865D01*
X345654Y426876D01*
X345676Y426899D01*
X345732Y426944D01*
X350770Y431982D01*
X350797Y432019D01*
X350830Y432050D01*
X350868Y432118D01*
X350913Y432181D01*
X350927Y432225D01*
X350949Y432266D01*
X350963Y432342D01*
X350986Y432416D01*
X350984Y432462D01*
X350993Y432508D01*
X350981Y432585D01*
X350979Y432662D01*
X350964Y432705D01*
X350957Y432751D01*
X350922Y432820D01*
X350895Y432893D01*
X350866Y432929D01*
X350845Y432970D01*
X350790Y433025D01*
X350741Y433085D01*
X350702Y433110D01*
X350670Y433142D01*
X350550Y433208D01*
X350534Y433218D01*
X350529Y433220D01*
X350523Y433223D01*
X350293Y433318D01*
X347720Y435891D01*
X346328Y439252D01*
X346328Y442890D01*
X347611Y445987D01*
X347621Y446031D01*
X347641Y446073D01*
X347649Y446150D01*
X347667Y446226D01*
X347663Y446272D01*
X347668Y446317D01*
X347651Y446394D01*
X347644Y446471D01*
X347625Y446513D01*
X347616Y446558D01*
X347576Y446625D01*
X347544Y446696D01*
X347513Y446730D01*
X347489Y446769D01*
X347430Y446820D01*
X347378Y446877D01*
X347337Y446899D01*
X347303Y446929D01*
X347230Y446958D01*
X347162Y446995D01*
X347117Y447004D01*
X347074Y447021D01*
X346938Y447036D01*
X346920Y447039D01*
X346915Y447038D01*
X346908Y447039D01*
X307800Y447039D01*
X307729Y447028D01*
X307657Y447026D01*
X307608Y447008D01*
X307557Y447000D01*
X307494Y446966D01*
X307426Y446941D01*
X307386Y446909D01*
X307340Y446884D01*
X307290Y446832D01*
X307234Y446788D01*
X307206Y446744D01*
X307170Y446706D01*
X307140Y446641D01*
X307101Y446581D01*
X307089Y446530D01*
X307067Y446483D01*
X307059Y446412D01*
X307041Y446342D01*
X307045Y446290D01*
X307040Y446239D01*
X307055Y446168D01*
X307060Y446097D01*
X307081Y446049D01*
X307092Y445998D01*
X307129Y445937D01*
X307157Y445871D01*
X307202Y445815D01*
X307218Y445787D01*
X307236Y445772D01*
X307262Y445740D01*
X307734Y445268D01*
X307966Y444707D01*
X307966Y439927D01*
X301203Y439927D01*
X301183Y439924D01*
X301164Y439926D01*
X301062Y439904D01*
X300960Y439887D01*
X300943Y439878D01*
X300923Y439874D01*
X300834Y439821D01*
X300743Y439772D01*
X300729Y439758D01*
X300712Y439748D01*
X300645Y439669D01*
X300574Y439594D01*
X300565Y439576D01*
X300552Y439561D01*
X300513Y439465D01*
X300470Y439371D01*
X300468Y439351D01*
X300460Y439333D01*
X300442Y439166D01*
X300442Y438403D01*
X300440Y438403D01*
X300440Y439166D01*
X300437Y439186D01*
X300439Y439205D01*
X300417Y439307D01*
X300400Y439409D01*
X300391Y439426D01*
X300387Y439446D01*
X300334Y439535D01*
X300285Y439626D01*
X300271Y439640D01*
X300261Y439657D01*
X300182Y439724D01*
X300107Y439795D01*
X300089Y439804D01*
X300074Y439817D01*
X299978Y439856D01*
X299884Y439899D01*
X299864Y439901D01*
X299846Y439909D01*
X299679Y439927D01*
X292916Y439927D01*
X292916Y444707D01*
X293148Y445268D01*
X293620Y445740D01*
X293662Y445798D01*
X293712Y445850D01*
X293734Y445897D01*
X293764Y445939D01*
X293785Y446008D01*
X293815Y446073D01*
X293821Y446125D01*
X293836Y446175D01*
X293834Y446246D01*
X293842Y446317D01*
X293831Y446368D01*
X293830Y446420D01*
X293805Y446488D01*
X293790Y446558D01*
X293763Y446603D01*
X293746Y446651D01*
X293701Y446707D01*
X293664Y446769D01*
X293624Y446803D01*
X293592Y446843D01*
X293532Y446882D01*
X293477Y446929D01*
X293429Y446948D01*
X293385Y446976D01*
X293316Y446994D01*
X293249Y447021D01*
X293178Y447029D01*
X293146Y447037D01*
X293123Y447035D01*
X293082Y447039D01*
X291626Y447039D01*
X291535Y447025D01*
X291445Y447017D01*
X291415Y447005D01*
X291383Y447000D01*
X291302Y446957D01*
X291218Y446921D01*
X291186Y446895D01*
X291165Y446884D01*
X291143Y446861D01*
X291087Y446816D01*
X287189Y442918D01*
X287136Y442844D01*
X287076Y442774D01*
X287064Y442744D01*
X287045Y442718D01*
X287018Y442631D01*
X286984Y442546D01*
X286980Y442505D01*
X286973Y442483D01*
X286974Y442451D01*
X286966Y442379D01*
X286966Y431772D01*
X286073Y430879D01*
X272809Y430879D01*
X271916Y431772D01*
X271916Y435356D01*
X271913Y435376D01*
X271915Y435395D01*
X271893Y435497D01*
X271877Y435599D01*
X271867Y435616D01*
X271863Y435636D01*
X271810Y435725D01*
X271761Y435816D01*
X271747Y435830D01*
X271737Y435847D01*
X271658Y435914D01*
X271583Y435986D01*
X271565Y435994D01*
X271550Y436007D01*
X271454Y436046D01*
X271360Y436089D01*
X271340Y436091D01*
X271322Y436099D01*
X271155Y436117D01*
X257427Y436117D01*
X257407Y436114D01*
X257388Y436116D01*
X257286Y436094D01*
X257184Y436078D01*
X257167Y436068D01*
X257147Y436064D01*
X257058Y436011D01*
X256967Y435962D01*
X256953Y435948D01*
X256936Y435938D01*
X256869Y435859D01*
X256797Y435784D01*
X256789Y435766D01*
X256776Y435751D01*
X256737Y435655D01*
X256694Y435561D01*
X256692Y435541D01*
X256684Y435523D01*
X256666Y435356D01*
X256666Y430272D01*
X255773Y429379D01*
X241509Y429379D01*
X240616Y430272D01*
X240616Y446536D01*
X241509Y447429D01*
X255773Y447429D01*
X256666Y446536D01*
X256666Y441452D01*
X256669Y441432D01*
X256667Y441413D01*
X256689Y441311D01*
X256705Y441209D01*
X256715Y441192D01*
X256719Y441172D01*
X256772Y441083D01*
X256821Y440992D01*
X256835Y440978D01*
X256845Y440961D01*
X256924Y440894D01*
X256999Y440822D01*
X257017Y440814D01*
X257032Y440801D01*
X257128Y440762D01*
X257222Y440719D01*
X257242Y440717D01*
X257260Y440709D01*
X257427Y440691D01*
X271155Y440691D01*
X271175Y440694D01*
X271194Y440692D01*
X271296Y440714D01*
X271398Y440730D01*
X271415Y440740D01*
X271435Y440744D01*
X271524Y440797D01*
X271615Y440846D01*
X271629Y440860D01*
X271646Y440870D01*
X271713Y440949D01*
X271785Y441024D01*
X271793Y441042D01*
X271806Y441057D01*
X271845Y441153D01*
X271888Y441247D01*
X271890Y441267D01*
X271898Y441285D01*
X271916Y441452D01*
X271916Y445036D01*
X272809Y445929D01*
X283416Y445929D01*
X283507Y445943D01*
X283597Y445951D01*
X283627Y445963D01*
X283659Y445968D01*
X283740Y446011D01*
X283824Y446047D01*
X283856Y446073D01*
X283877Y446084D01*
X283899Y446107D01*
X283955Y446152D01*
X289416Y451613D01*
X344686Y451613D01*
X344776Y451627D01*
X344867Y451635D01*
X344896Y451647D01*
X344928Y451652D01*
X345009Y451695D01*
X345093Y451731D01*
X345125Y451757D01*
X345146Y451768D01*
X345168Y451791D01*
X345224Y451836D01*
X350770Y457382D01*
X350797Y457419D01*
X350830Y457450D01*
X350868Y457518D01*
X350913Y457581D01*
X350927Y457625D01*
X350949Y457666D01*
X350963Y457742D01*
X350986Y457816D01*
X350984Y457862D01*
X350993Y457908D01*
X350981Y457985D01*
X350979Y458062D01*
X350964Y458106D01*
X350957Y458151D01*
X350922Y458220D01*
X350895Y458293D01*
X350866Y458329D01*
X350845Y458370D01*
X350790Y458425D01*
X350741Y458485D01*
X350702Y458510D01*
X350670Y458542D01*
X350550Y458608D01*
X350534Y458618D01*
X350529Y458620D01*
X350523Y458623D01*
X350293Y458718D01*
X347720Y461291D01*
X346328Y464652D01*
X346328Y468290D01*
X347720Y471651D01*
X348225Y472156D01*
X348267Y472214D01*
X348316Y472266D01*
X348338Y472313D01*
X348369Y472355D01*
X348390Y472424D01*
X348420Y472489D01*
X348426Y472541D01*
X348441Y472591D01*
X348439Y472662D01*
X348447Y472733D01*
X348436Y472784D01*
X348435Y472836D01*
X348410Y472904D01*
X348395Y472974D01*
X348368Y473019D01*
X348350Y473067D01*
X348305Y473123D01*
X348269Y473185D01*
X348229Y473219D01*
X348197Y473259D01*
X348136Y473298D01*
X348082Y473345D01*
X348033Y473364D01*
X347990Y473392D01*
X347920Y473410D01*
X347854Y473437D01*
X347782Y473445D01*
X347751Y473453D01*
X347728Y473451D01*
X347687Y473455D01*
X292642Y473455D01*
X292551Y473441D01*
X292461Y473433D01*
X292431Y473421D01*
X292399Y473416D01*
X292318Y473373D01*
X292234Y473337D01*
X292202Y473311D01*
X292181Y473300D01*
X292159Y473277D01*
X292103Y473232D01*
X287189Y468318D01*
X287136Y468244D01*
X287076Y468174D01*
X287064Y468144D01*
X287045Y468118D01*
X287018Y468031D01*
X286984Y467946D01*
X286980Y467905D01*
X286973Y467883D01*
X286974Y467851D01*
X286966Y467779D01*
X286966Y457172D01*
X286073Y456279D01*
X272809Y456279D01*
X271916Y457172D01*
X271916Y460756D01*
X271913Y460776D01*
X271915Y460795D01*
X271893Y460897D01*
X271877Y460999D01*
X271867Y461016D01*
X271863Y461036D01*
X271810Y461125D01*
X271761Y461216D01*
X271747Y461230D01*
X271737Y461247D01*
X271658Y461314D01*
X271583Y461386D01*
X271565Y461394D01*
X271550Y461407D01*
X271454Y461446D01*
X271360Y461489D01*
X271340Y461491D01*
X271322Y461499D01*
X271155Y461517D01*
X257427Y461517D01*
X257407Y461514D01*
X257388Y461516D01*
X257286Y461494D01*
X257184Y461478D01*
X257167Y461468D01*
X257147Y461464D01*
X257058Y461411D01*
X256967Y461362D01*
X256953Y461348D01*
X256936Y461338D01*
X256869Y461259D01*
X256797Y461184D01*
X256789Y461166D01*
X256776Y461151D01*
X256737Y461055D01*
X256694Y460961D01*
X256692Y460941D01*
X256684Y460923D01*
X256666Y460756D01*
X256666Y455672D01*
X255773Y454779D01*
X241509Y454779D01*
X240616Y455672D01*
X240616Y471936D01*
X241509Y472829D01*
X255773Y472829D01*
X256666Y471936D01*
X256666Y466852D01*
X256669Y466832D01*
X256667Y466813D01*
X256689Y466711D01*
X256705Y466609D01*
X256715Y466592D01*
X256719Y466572D01*
X256772Y466483D01*
X256821Y466392D01*
X256835Y466378D01*
X256845Y466361D01*
X256924Y466294D01*
X256999Y466222D01*
X257017Y466214D01*
X257032Y466201D01*
X257128Y466162D01*
X257222Y466119D01*
X257242Y466117D01*
X257260Y466109D01*
X257427Y466091D01*
X271155Y466091D01*
X271175Y466094D01*
X271194Y466092D01*
X271296Y466114D01*
X271398Y466130D01*
X271415Y466140D01*
X271435Y466144D01*
X271524Y466197D01*
X271615Y466246D01*
X271629Y466260D01*
X271646Y466270D01*
X271713Y466349D01*
X271785Y466424D01*
X271793Y466442D01*
X271806Y466457D01*
X271844Y466553D01*
X271888Y466647D01*
X271890Y466667D01*
X271898Y466685D01*
X271916Y466852D01*
X271916Y470436D01*
X272809Y471329D01*
X283416Y471329D01*
X283507Y471343D01*
X283597Y471351D01*
X283627Y471363D01*
X283659Y471368D01*
X283740Y471411D01*
X283824Y471447D01*
X283856Y471473D01*
X283877Y471484D01*
X283899Y471507D01*
X283955Y471552D01*
X290432Y478029D01*
X345701Y478029D01*
X345792Y478043D01*
X345882Y478051D01*
X345912Y478063D01*
X345944Y478068D01*
X346025Y478111D01*
X346109Y478147D01*
X346141Y478173D01*
X346162Y478184D01*
X346184Y478207D01*
X346240Y478252D01*
X350770Y482782D01*
X350797Y482819D01*
X350830Y482850D01*
X350868Y482918D01*
X350913Y482981D01*
X350927Y483025D01*
X350949Y483066D01*
X350963Y483142D01*
X350986Y483216D01*
X350984Y483262D01*
X350993Y483308D01*
X350981Y483385D01*
X350979Y483462D01*
X350964Y483505D01*
X350957Y483551D01*
X350922Y483620D01*
X350895Y483693D01*
X350866Y483729D01*
X350845Y483770D01*
X350790Y483825D01*
X350741Y483885D01*
X350702Y483910D01*
X350670Y483942D01*
X350550Y484008D01*
X350534Y484018D01*
X350529Y484020D01*
X350523Y484023D01*
X350293Y484118D01*
X347720Y486691D01*
X346328Y490052D01*
X346328Y493690D01*
X347720Y497051D01*
X348352Y497683D01*
X348394Y497741D01*
X348443Y497793D01*
X348465Y497840D01*
X348496Y497882D01*
X348517Y497951D01*
X348547Y498016D01*
X348553Y498068D01*
X348568Y498118D01*
X348566Y498189D01*
X348574Y498260D01*
X348563Y498311D01*
X348562Y498363D01*
X348537Y498431D01*
X348522Y498501D01*
X348495Y498546D01*
X348477Y498594D01*
X348432Y498650D01*
X348396Y498712D01*
X348356Y498746D01*
X348324Y498786D01*
X348263Y498825D01*
X348209Y498872D01*
X348160Y498891D01*
X348117Y498919D01*
X348047Y498937D01*
X347981Y498964D01*
X347909Y498972D01*
X347878Y498980D01*
X347855Y498978D01*
X347814Y498982D01*
X292769Y498982D01*
X292678Y498968D01*
X292588Y498960D01*
X292558Y498948D01*
X292526Y498943D01*
X292445Y498900D01*
X292361Y498864D01*
X292329Y498838D01*
X292308Y498827D01*
X292286Y498804D01*
X292230Y498759D01*
X287189Y493718D01*
X287136Y493644D01*
X287076Y493574D01*
X287064Y493544D01*
X287045Y493518D01*
X287018Y493431D01*
X286984Y493346D01*
X286980Y493305D01*
X286973Y493283D01*
X286974Y493251D01*
X286966Y493179D01*
X286966Y482572D01*
X286073Y481679D01*
X272809Y481679D01*
X271916Y482572D01*
X271916Y486156D01*
X271914Y486169D01*
X271915Y486180D01*
X271914Y486185D01*
X271915Y486195D01*
X271893Y486297D01*
X271877Y486399D01*
X271867Y486416D01*
X271863Y486436D01*
X271810Y486525D01*
X271761Y486616D01*
X271747Y486630D01*
X271737Y486647D01*
X271658Y486714D01*
X271583Y486786D01*
X271565Y486794D01*
X271550Y486807D01*
X271454Y486846D01*
X271360Y486889D01*
X271340Y486891D01*
X271322Y486899D01*
X271155Y486917D01*
X257427Y486917D01*
X257407Y486914D01*
X257388Y486916D01*
X257286Y486894D01*
X257184Y486878D01*
X257167Y486868D01*
X257147Y486864D01*
X257058Y486811D01*
X256967Y486762D01*
X256953Y486748D01*
X256936Y486738D01*
X256869Y486659D01*
X256797Y486584D01*
X256789Y486566D01*
X256776Y486551D01*
X256737Y486455D01*
X256694Y486361D01*
X256692Y486341D01*
X256684Y486323D01*
X256666Y486156D01*
X256666Y481072D01*
X255773Y480179D01*
X241509Y480179D01*
X240616Y481072D01*
X240616Y497336D01*
X241509Y498229D01*
X255773Y498229D01*
X256666Y497336D01*
X256666Y492252D01*
X256669Y492232D01*
X256667Y492213D01*
X256689Y492111D01*
X256705Y492009D01*
X256715Y491992D01*
X256719Y491972D01*
X256772Y491883D01*
X256821Y491792D01*
X256835Y491778D01*
X256845Y491761D01*
X256924Y491694D01*
X256999Y491622D01*
X257017Y491614D01*
X257032Y491601D01*
X257128Y491562D01*
X257222Y491519D01*
X257242Y491517D01*
X257260Y491509D01*
X257427Y491491D01*
X271155Y491491D01*
X271175Y491494D01*
X271194Y491492D01*
X271296Y491514D01*
X271398Y491530D01*
X271415Y491540D01*
X271435Y491544D01*
X271524Y491597D01*
X271615Y491646D01*
X271629Y491660D01*
X271646Y491670D01*
X271713Y491749D01*
X271785Y491824D01*
X271793Y491842D01*
X271806Y491857D01*
X271845Y491953D01*
X271888Y492047D01*
X271890Y492067D01*
X271898Y492085D01*
X271916Y492252D01*
X271916Y495836D01*
X272809Y496729D01*
X283416Y496729D01*
X283507Y496743D01*
X283597Y496751D01*
X283627Y496763D01*
X283659Y496768D01*
X283740Y496811D01*
X283824Y496847D01*
X283856Y496873D01*
X283877Y496884D01*
X283899Y496907D01*
X283955Y496952D01*
X290559Y503556D01*
X345828Y503556D01*
X345919Y503570D01*
X346009Y503578D01*
X346039Y503590D01*
X346071Y503595D01*
X346152Y503638D01*
X346236Y503674D01*
X346268Y503700D01*
X346289Y503711D01*
X346311Y503734D01*
X346367Y503779D01*
X350770Y508182D01*
X350797Y508219D01*
X350830Y508250D01*
X350868Y508318D01*
X350913Y508381D01*
X350927Y508425D01*
X350949Y508466D01*
X350963Y508542D01*
X350986Y508616D01*
X350984Y508662D01*
X350993Y508708D01*
X350981Y508785D01*
X350979Y508862D01*
X350964Y508905D01*
X350957Y508951D01*
X350922Y509020D01*
X350895Y509093D01*
X350866Y509129D01*
X350845Y509170D01*
X350790Y509225D01*
X350741Y509285D01*
X350702Y509310D01*
X350670Y509342D01*
X350550Y509408D01*
X350534Y509418D01*
X350529Y509420D01*
X350523Y509423D01*
X350293Y509518D01*
X347720Y512091D01*
X346328Y515452D01*
X346328Y519090D01*
X347716Y522441D01*
X347724Y522474D01*
X347725Y522475D01*
X347725Y522478D01*
X347727Y522485D01*
X347746Y522527D01*
X347755Y522604D01*
X347772Y522680D01*
X347768Y522726D01*
X347773Y522771D01*
X347757Y522848D01*
X347749Y522925D01*
X347731Y522967D01*
X347721Y523012D01*
X347681Y523079D01*
X347649Y523150D01*
X347618Y523184D01*
X347595Y523223D01*
X347536Y523274D01*
X347483Y523331D01*
X347443Y523353D01*
X347408Y523383D01*
X347336Y523412D01*
X347267Y523449D01*
X347222Y523458D01*
X347180Y523475D01*
X347044Y523490D01*
X347025Y523493D01*
X347020Y523492D01*
X347013Y523493D01*
X307277Y523493D01*
X307181Y523478D01*
X307084Y523468D01*
X307060Y523458D01*
X307034Y523454D01*
X306948Y523408D01*
X306859Y523368D01*
X306840Y523351D01*
X306817Y523338D01*
X306750Y523268D01*
X306678Y523202D01*
X306666Y523179D01*
X306648Y523160D01*
X306606Y523072D01*
X306560Y522986D01*
X306555Y522961D01*
X306544Y522937D01*
X306533Y522840D01*
X306516Y522744D01*
X306520Y522718D01*
X306517Y522693D01*
X306537Y522597D01*
X306552Y522501D01*
X306564Y522478D01*
X306569Y522452D01*
X306619Y522369D01*
X306663Y522282D01*
X306682Y522263D01*
X306695Y522241D01*
X306769Y522178D01*
X306839Y522110D01*
X306867Y522094D01*
X306882Y522081D01*
X306913Y522069D01*
X306986Y522029D01*
X307305Y521897D01*
X307734Y521468D01*
X307966Y520907D01*
X307966Y516127D01*
X301203Y516127D01*
X301183Y516124D01*
X301164Y516126D01*
X301062Y516104D01*
X300960Y516087D01*
X300943Y516078D01*
X300923Y516074D01*
X300834Y516021D01*
X300743Y515972D01*
X300729Y515958D01*
X300712Y515948D01*
X300645Y515869D01*
X300574Y515794D01*
X300565Y515776D01*
X300552Y515761D01*
X300513Y515665D01*
X300470Y515571D01*
X300468Y515551D01*
X300460Y515533D01*
X300442Y515366D01*
X300442Y514603D01*
X300440Y514603D01*
X300440Y515366D01*
X300437Y515386D01*
X300439Y515405D01*
X300417Y515507D01*
X300400Y515609D01*
X300391Y515626D01*
X300387Y515646D01*
X300334Y515735D01*
X300285Y515826D01*
X300271Y515840D01*
X300261Y515857D01*
X300182Y515924D01*
X300107Y515995D01*
X300089Y516004D01*
X300074Y516017D01*
X299978Y516056D01*
X299884Y516099D01*
X299864Y516101D01*
X299846Y516109D01*
X299679Y516127D01*
X292916Y516127D01*
X292916Y520907D01*
X293148Y521468D01*
X293577Y521897D01*
X293896Y522029D01*
X293979Y522080D01*
X294065Y522126D01*
X294083Y522144D01*
X294105Y522158D01*
X294168Y522234D01*
X294234Y522304D01*
X294245Y522328D01*
X294262Y522348D01*
X294297Y522439D01*
X294338Y522527D01*
X294341Y522553D01*
X294350Y522577D01*
X294354Y522675D01*
X294365Y522771D01*
X294360Y522797D01*
X294361Y522823D01*
X294334Y522917D01*
X294313Y523012D01*
X294299Y523034D01*
X294292Y523059D01*
X294237Y523139D01*
X294187Y523223D01*
X294167Y523240D01*
X294152Y523261D01*
X294074Y523320D01*
X294000Y523383D01*
X293976Y523393D01*
X293955Y523408D01*
X293862Y523438D01*
X293772Y523475D01*
X293739Y523478D01*
X293721Y523484D01*
X293688Y523484D01*
X293605Y523493D01*
X291880Y523493D01*
X291789Y523479D01*
X291699Y523471D01*
X291669Y523459D01*
X291637Y523454D01*
X291556Y523411D01*
X291472Y523375D01*
X291440Y523349D01*
X291419Y523338D01*
X291397Y523315D01*
X291341Y523270D01*
X287189Y519118D01*
X287136Y519044D01*
X287076Y518974D01*
X287064Y518944D01*
X287045Y518918D01*
X287018Y518831D01*
X286984Y518746D01*
X286980Y518705D01*
X286973Y518683D01*
X286974Y518651D01*
X286966Y518579D01*
X286966Y507972D01*
X286073Y507079D01*
X272809Y507079D01*
X271916Y507972D01*
X271916Y511556D01*
X271913Y511576D01*
X271915Y511595D01*
X271893Y511697D01*
X271877Y511799D01*
X271867Y511816D01*
X271863Y511836D01*
X271810Y511925D01*
X271761Y512016D01*
X271747Y512030D01*
X271737Y512047D01*
X271658Y512114D01*
X271583Y512186D01*
X271565Y512194D01*
X271550Y512207D01*
X271454Y512246D01*
X271360Y512289D01*
X271340Y512291D01*
X271322Y512299D01*
X271155Y512317D01*
X257427Y512317D01*
X257407Y512314D01*
X257388Y512316D01*
X257286Y512294D01*
X257184Y512278D01*
X257167Y512268D01*
X257147Y512264D01*
X257058Y512211D01*
X256967Y512162D01*
X256953Y512148D01*
X256936Y512138D01*
X256869Y512059D01*
X256797Y511984D01*
X256789Y511966D01*
X256776Y511951D01*
X256737Y511855D01*
X256694Y511761D01*
X256692Y511741D01*
X256684Y511723D01*
X256666Y511556D01*
X256666Y506472D01*
X255773Y505579D01*
X241509Y505579D01*
X240616Y506472D01*
X240616Y522736D01*
X241509Y523629D01*
X255773Y523629D01*
X256666Y522736D01*
X256666Y517652D01*
X256669Y517632D01*
X256667Y517613D01*
X256689Y517511D01*
X256705Y517409D01*
X256715Y517392D01*
X256719Y517372D01*
X256772Y517283D01*
X256821Y517192D01*
X256835Y517178D01*
X256845Y517161D01*
X256924Y517094D01*
X256999Y517022D01*
X257017Y517014D01*
X257032Y517001D01*
X257128Y516962D01*
X257222Y516919D01*
X257242Y516917D01*
X257260Y516909D01*
X257427Y516891D01*
X271155Y516891D01*
X271175Y516894D01*
X271194Y516892D01*
X271296Y516914D01*
X271398Y516930D01*
X271415Y516940D01*
X271435Y516944D01*
X271524Y516997D01*
X271615Y517046D01*
X271629Y517060D01*
X271646Y517070D01*
X271713Y517149D01*
X271785Y517224D01*
X271793Y517242D01*
X271806Y517257D01*
X271845Y517353D01*
X271888Y517447D01*
X271890Y517467D01*
X271898Y517485D01*
X271916Y517652D01*
X271916Y521236D01*
X272809Y522129D01*
X283416Y522129D01*
X283507Y522143D01*
X283597Y522151D01*
X283627Y522163D01*
X283659Y522168D01*
X283740Y522211D01*
X283824Y522247D01*
X283856Y522273D01*
X283877Y522284D01*
X283899Y522307D01*
X283955Y522352D01*
X289670Y528067D01*
X344939Y528067D01*
X345030Y528081D01*
X345120Y528089D01*
X345150Y528101D01*
X345182Y528106D01*
X345263Y528149D01*
X345347Y528185D01*
X345379Y528211D01*
X345400Y528222D01*
X345422Y528245D01*
X345478Y528290D01*
X350770Y533582D01*
X350797Y533619D01*
X350830Y533650D01*
X350868Y533718D01*
X350913Y533781D01*
X350927Y533825D01*
X350949Y533866D01*
X350963Y533942D01*
X350986Y534016D01*
X350984Y534062D01*
X350993Y534108D01*
X350981Y534185D01*
X350979Y534262D01*
X350964Y534305D01*
X350957Y534351D01*
X350922Y534420D01*
X350895Y534493D01*
X350866Y534529D01*
X350845Y534570D01*
X350790Y534625D01*
X350741Y534685D01*
X350702Y534710D01*
X350670Y534742D01*
X350550Y534808D01*
X350534Y534818D01*
X350529Y534820D01*
X350523Y534823D01*
X350293Y534918D01*
X347720Y537491D01*
X346328Y540852D01*
X346328Y544490D01*
X347720Y547851D01*
X350293Y550424D01*
X353654Y551816D01*
X372532Y551816D01*
X375893Y550424D01*
X378466Y547851D01*
X379858Y544490D01*
X379858Y540852D01*
X378466Y537491D01*
X375893Y534918D01*
X372532Y533526D01*
X357498Y533526D01*
X357407Y533512D01*
X357317Y533504D01*
X357287Y533492D01*
X357255Y533487D01*
X357174Y533444D01*
X357090Y533408D01*
X357058Y533382D01*
X357037Y533371D01*
X357015Y533348D01*
X356959Y533303D01*
X350245Y526589D01*
X350188Y526510D01*
X350126Y526435D01*
X350116Y526410D01*
X350101Y526389D01*
X350073Y526296D01*
X350038Y526205D01*
X350036Y526179D01*
X350029Y526154D01*
X350031Y526057D01*
X350027Y525959D01*
X350034Y525934D01*
X350035Y525908D01*
X350069Y525816D01*
X350096Y525723D01*
X350111Y525702D01*
X350120Y525677D01*
X350181Y525601D01*
X350236Y525521D01*
X350257Y525505D01*
X350273Y525485D01*
X350355Y525432D01*
X350433Y525374D01*
X350458Y525366D01*
X350480Y525352D01*
X350575Y525328D01*
X350667Y525298D01*
X350693Y525298D01*
X350719Y525292D01*
X350816Y525299D01*
X350913Y525300D01*
X350945Y525310D01*
X350964Y525311D01*
X350994Y525324D01*
X351074Y525347D01*
X353654Y526416D01*
X372532Y526416D01*
X375893Y525024D01*
X378466Y522451D01*
X379858Y519090D01*
X379858Y515452D01*
X378466Y512091D01*
X375893Y509518D01*
X372532Y508126D01*
X357498Y508126D01*
X357407Y508112D01*
X357317Y508104D01*
X357287Y508092D01*
X357255Y508087D01*
X357174Y508044D01*
X357090Y508008D01*
X357058Y507982D01*
X357037Y507971D01*
X357015Y507948D01*
X356959Y507903D01*
X350245Y501189D01*
X350188Y501110D01*
X350126Y501035D01*
X350116Y501010D01*
X350101Y500989D01*
X350073Y500896D01*
X350038Y500805D01*
X350036Y500779D01*
X350029Y500754D01*
X350031Y500657D01*
X350027Y500559D01*
X350034Y500534D01*
X350035Y500508D01*
X350069Y500416D01*
X350096Y500323D01*
X350111Y500302D01*
X350120Y500277D01*
X350181Y500201D01*
X350236Y500121D01*
X350257Y500105D01*
X350273Y500085D01*
X350355Y500032D01*
X350433Y499974D01*
X350458Y499966D01*
X350480Y499952D01*
X350575Y499928D01*
X350667Y499898D01*
X350693Y499898D01*
X350719Y499892D01*
X350816Y499899D01*
X350913Y499900D01*
X350945Y499910D01*
X350964Y499911D01*
X350994Y499924D01*
X351074Y499947D01*
X353654Y501016D01*
X372532Y501016D01*
X375893Y499624D01*
X378466Y497051D01*
X379858Y493690D01*
X379858Y490052D01*
X378466Y486691D01*
X375893Y484118D01*
X372532Y482726D01*
X357498Y482726D01*
X357407Y482712D01*
X357317Y482704D01*
X357287Y482692D01*
X357255Y482687D01*
X357174Y482644D01*
X357090Y482608D01*
X357058Y482582D01*
X357037Y482571D01*
X357015Y482548D01*
X356959Y482503D01*
X350245Y475789D01*
X350188Y475710D01*
X350126Y475635D01*
X350116Y475610D01*
X350101Y475589D01*
X350073Y475496D01*
X350038Y475405D01*
X350036Y475379D01*
X350029Y475354D01*
X350031Y475257D01*
X350027Y475159D01*
X350034Y475134D01*
X350035Y475108D01*
X350069Y475016D01*
X350096Y474923D01*
X350111Y474902D01*
X350120Y474877D01*
X350181Y474801D01*
X350236Y474721D01*
X350257Y474705D01*
X350273Y474685D01*
X350355Y474632D01*
X350433Y474574D01*
X350458Y474566D01*
X350480Y474552D01*
X350575Y474528D01*
X350667Y474498D01*
X350693Y474498D01*
X350719Y474492D01*
X350816Y474499D01*
X350913Y474500D01*
X350945Y474510D01*
X350964Y474511D01*
X350994Y474524D01*
X351074Y474547D01*
X353654Y475616D01*
X372532Y475616D01*
X375893Y474224D01*
X378466Y471651D01*
X379858Y468290D01*
X379858Y464652D01*
X378466Y461291D01*
X375893Y458718D01*
X372532Y457326D01*
X357497Y457326D01*
X357407Y457312D01*
X357316Y457304D01*
X357287Y457292D01*
X357255Y457287D01*
X357174Y457244D01*
X357090Y457208D01*
X357058Y457182D01*
X357037Y457171D01*
X357015Y457148D01*
X356959Y457103D01*
X350245Y450389D01*
X350188Y450310D01*
X350126Y450235D01*
X350116Y450210D01*
X350101Y450189D01*
X350072Y450096D01*
X350038Y450005D01*
X350036Y449979D01*
X350029Y449954D01*
X350031Y449857D01*
X350027Y449759D01*
X350034Y449734D01*
X350035Y449708D01*
X350069Y449616D01*
X350096Y449523D01*
X350111Y449502D01*
X350120Y449477D01*
X350180Y449401D01*
X350236Y449321D01*
X350257Y449305D01*
X350273Y449285D01*
X350355Y449232D01*
X350433Y449174D01*
X350458Y449166D01*
X350480Y449152D01*
X350575Y449128D01*
X350667Y449098D01*
X350693Y449098D01*
X350719Y449092D01*
X350816Y449099D01*
X350913Y449100D01*
X350945Y449110D01*
X350964Y449111D01*
X350994Y449124D01*
X351074Y449147D01*
X353654Y450216D01*
X372532Y450216D01*
X375893Y448824D01*
X378466Y446251D01*
X379858Y442890D01*
X379858Y439252D01*
X378466Y435891D01*
X375893Y433318D01*
X372532Y431926D01*
X357497Y431926D01*
X357407Y431912D01*
X357316Y431904D01*
X357287Y431892D01*
X357255Y431887D01*
X357174Y431844D01*
X357090Y431808D01*
X357058Y431782D01*
X357037Y431771D01*
X357015Y431748D01*
X356959Y431703D01*
X350245Y424989D01*
X350198Y424924D01*
X350182Y424907D01*
X350178Y424897D01*
X350126Y424835D01*
X350116Y424810D01*
X350101Y424789D01*
X350072Y424696D01*
X350038Y424605D01*
X350036Y424579D01*
X350029Y424554D01*
X350031Y424457D01*
X350027Y424359D01*
X350034Y424334D01*
X350035Y424308D01*
X350069Y424216D01*
X350096Y424123D01*
X350111Y424102D01*
X350120Y424077D01*
X350180Y424001D01*
X350236Y423921D01*
X350257Y423905D01*
X350273Y423885D01*
X350355Y423832D01*
X350433Y423774D01*
X350458Y423766D01*
X350480Y423752D01*
X350575Y423728D01*
X350667Y423698D01*
X350693Y423698D01*
X350719Y423692D01*
X350816Y423699D01*
X350913Y423700D01*
X350945Y423710D01*
X350964Y423711D01*
X350994Y423724D01*
X351074Y423747D01*
X353654Y424816D01*
X372532Y424816D01*
X375893Y423424D01*
X378466Y420851D01*
X379858Y417490D01*
X379858Y413852D01*
X378466Y410491D01*
X375893Y407918D01*
X372532Y406526D01*
X357497Y406526D01*
X357407Y406512D01*
X357316Y406504D01*
X357287Y406492D01*
X357255Y406487D01*
X357174Y406444D01*
X357090Y406408D01*
X357058Y406382D01*
X357037Y406371D01*
X357015Y406348D01*
X356959Y406303D01*
X350245Y399589D01*
X350188Y399510D01*
X350126Y399435D01*
X350116Y399410D01*
X350101Y399389D01*
X350072Y399296D01*
X350038Y399205D01*
X350036Y399179D01*
X350029Y399154D01*
X350031Y399057D01*
X350027Y398959D01*
X350034Y398934D01*
X350035Y398908D01*
X350069Y398816D01*
X350096Y398723D01*
X350111Y398702D01*
X350120Y398677D01*
X350180Y398601D01*
X350236Y398521D01*
X350257Y398505D01*
X350273Y398485D01*
X350355Y398432D01*
X350433Y398374D01*
X350458Y398366D01*
X350480Y398352D01*
X350575Y398328D01*
X350667Y398298D01*
X350693Y398298D01*
X350719Y398292D01*
X350816Y398299D01*
X350913Y398300D01*
X350945Y398310D01*
X350964Y398311D01*
X350994Y398324D01*
X351074Y398347D01*
X353654Y399416D01*
X372532Y399416D01*
X375893Y398024D01*
X378466Y395451D01*
X379858Y392090D01*
X379858Y388452D01*
X378466Y385091D01*
X375893Y382518D01*
X372532Y381126D01*
X357498Y381126D01*
X357407Y381112D01*
X357317Y381104D01*
X357287Y381092D01*
X357255Y381087D01*
X357174Y381044D01*
X357090Y381008D01*
X357058Y380982D01*
X357037Y380971D01*
X357015Y380948D01*
X356959Y380903D01*
X347657Y371601D01*
X292388Y371601D01*
X292297Y371587D01*
X292207Y371579D01*
X292177Y371567D01*
X292145Y371562D01*
X292064Y371519D01*
X291980Y371483D01*
X291948Y371457D01*
X291927Y371446D01*
X291905Y371423D01*
X291849Y371378D01*
X287189Y366718D01*
X287136Y366644D01*
X287076Y366574D01*
X287064Y366544D01*
X287045Y366518D01*
X287018Y366431D01*
X286984Y366346D01*
X286980Y366305D01*
X286973Y366283D01*
X286974Y366251D01*
X286966Y366180D01*
X286966Y355572D01*
X286073Y354679D01*
X272809Y354679D01*
X271916Y355572D01*
X271916Y359156D01*
X271913Y359176D01*
X271915Y359195D01*
X271893Y359297D01*
X271877Y359399D01*
X271867Y359416D01*
X271863Y359436D01*
X271810Y359525D01*
X271761Y359616D01*
X271747Y359630D01*
X271737Y359647D01*
X271658Y359714D01*
X271583Y359786D01*
X271565Y359794D01*
X271550Y359807D01*
X271454Y359846D01*
X271360Y359889D01*
X271340Y359891D01*
X271322Y359899D01*
X271155Y359917D01*
X257427Y359917D01*
X257407Y359914D01*
X257388Y359916D01*
X257286Y359894D01*
X257184Y359878D01*
X257167Y359868D01*
X257147Y359864D01*
X257058Y359811D01*
X256967Y359762D01*
X256953Y359748D01*
X256936Y359738D01*
X256869Y359659D01*
X256797Y359584D01*
X256789Y359566D01*
X256776Y359551D01*
X256737Y359455D01*
X256694Y359361D01*
X256692Y359341D01*
X256684Y359323D01*
X256666Y359156D01*
X256666Y354072D01*
X255773Y353179D01*
X241509Y353179D01*
G37*
%LPD*%
%LPC*%
G36*
X52537Y409574D02*
X52537Y409574D01*
X49176Y410966D01*
X46603Y413539D01*
X45211Y416900D01*
X45211Y420538D01*
X46603Y423899D01*
X49176Y426472D01*
X52537Y427864D01*
X67572Y427864D01*
X67662Y427878D01*
X67753Y427886D01*
X67782Y427898D01*
X67814Y427903D01*
X67895Y427946D01*
X67979Y427982D01*
X68011Y428008D01*
X68032Y428019D01*
X68054Y428042D01*
X68110Y428087D01*
X69880Y429857D01*
X71443Y431420D01*
X74937Y431420D01*
X75028Y431434D01*
X75118Y431442D01*
X75148Y431454D01*
X75180Y431459D01*
X75261Y431502D01*
X75345Y431538D01*
X75377Y431564D01*
X75398Y431575D01*
X75420Y431598D01*
X75476Y431643D01*
X81183Y437350D01*
X81236Y437424D01*
X81296Y437494D01*
X81308Y437524D01*
X81327Y437550D01*
X81354Y437637D01*
X81388Y437722D01*
X81392Y437763D01*
X81399Y437785D01*
X81398Y437817D01*
X81406Y437889D01*
X81406Y458478D01*
X81395Y458548D01*
X81393Y458620D01*
X81375Y458669D01*
X81367Y458720D01*
X81333Y458784D01*
X81308Y458851D01*
X81276Y458892D01*
X81251Y458938D01*
X81200Y458987D01*
X81155Y459043D01*
X81111Y459071D01*
X81073Y459107D01*
X81008Y459137D01*
X80948Y459176D01*
X80897Y459189D01*
X80850Y459211D01*
X80779Y459219D01*
X80709Y459236D01*
X80657Y459232D01*
X80606Y459238D01*
X80535Y459223D01*
X80464Y459217D01*
X80416Y459197D01*
X80365Y459186D01*
X80304Y459149D01*
X80238Y459121D01*
X80182Y459076D01*
X80154Y459059D01*
X80139Y459042D01*
X80107Y459016D01*
X74299Y453208D01*
X74272Y453171D01*
X74239Y453140D01*
X74201Y453072D01*
X74156Y453009D01*
X74142Y452965D01*
X74120Y452924D01*
X74106Y452848D01*
X74083Y452774D01*
X74085Y452728D01*
X74076Y452682D01*
X74088Y452605D01*
X74090Y452528D01*
X74105Y452484D01*
X74112Y452439D01*
X74147Y452370D01*
X74174Y452297D01*
X74203Y452261D01*
X74224Y452220D01*
X74279Y452165D01*
X74328Y452105D01*
X74367Y452080D01*
X74399Y452048D01*
X74519Y451982D01*
X74535Y451972D01*
X74540Y451970D01*
X74546Y451967D01*
X74776Y451872D01*
X77349Y449299D01*
X78741Y445938D01*
X78741Y442300D01*
X77349Y438939D01*
X74776Y436366D01*
X71415Y434974D01*
X52537Y434974D01*
X49176Y436366D01*
X46603Y438939D01*
X45211Y442300D01*
X45211Y445938D01*
X46603Y449299D01*
X49176Y451872D01*
X52537Y453264D01*
X67571Y453264D01*
X67662Y453278D01*
X67752Y453286D01*
X67782Y453298D01*
X67814Y453303D01*
X67895Y453346D01*
X67979Y453382D01*
X68011Y453408D01*
X68032Y453419D01*
X68054Y453442D01*
X68110Y453487D01*
X74824Y460201D01*
X74881Y460280D01*
X74943Y460355D01*
X74953Y460380D01*
X74968Y460401D01*
X74996Y460494D01*
X75031Y460585D01*
X75033Y460611D01*
X75040Y460636D01*
X75038Y460733D01*
X75042Y460831D01*
X75035Y460856D01*
X75034Y460882D01*
X75000Y460974D01*
X74973Y461067D01*
X74958Y461088D01*
X74949Y461113D01*
X74888Y461189D01*
X74833Y461269D01*
X74812Y461285D01*
X74796Y461305D01*
X74714Y461358D01*
X74636Y461416D01*
X74611Y461424D01*
X74589Y461438D01*
X74494Y461462D01*
X74402Y461492D01*
X74376Y461492D01*
X74350Y461498D01*
X74253Y461491D01*
X74156Y461490D01*
X74124Y461480D01*
X74105Y461479D01*
X74075Y461466D01*
X73995Y461443D01*
X71415Y460374D01*
X52537Y460374D01*
X49176Y461766D01*
X46603Y464339D01*
X45211Y467700D01*
X45211Y471338D01*
X46603Y474699D01*
X49176Y477272D01*
X52537Y478664D01*
X71415Y478664D01*
X74776Y477272D01*
X76424Y475624D01*
X76482Y475582D01*
X76534Y475533D01*
X76581Y475511D01*
X76623Y475480D01*
X76692Y475459D01*
X76757Y475429D01*
X76809Y475423D01*
X76859Y475408D01*
X76930Y475410D01*
X77001Y475402D01*
X77052Y475413D01*
X77104Y475414D01*
X77172Y475439D01*
X77242Y475454D01*
X77287Y475481D01*
X77335Y475499D01*
X77391Y475544D01*
X77453Y475580D01*
X77487Y475620D01*
X77527Y475652D01*
X77566Y475713D01*
X77613Y475767D01*
X77632Y475816D01*
X77660Y475859D01*
X77678Y475929D01*
X77705Y475995D01*
X77713Y476067D01*
X77721Y476098D01*
X77719Y476121D01*
X77723Y476162D01*
X77723Y488276D01*
X77712Y488347D01*
X77710Y488418D01*
X77692Y488467D01*
X77684Y488519D01*
X77650Y488582D01*
X77625Y488649D01*
X77593Y488690D01*
X77568Y488736D01*
X77516Y488785D01*
X77472Y488841D01*
X77428Y488869D01*
X77390Y488905D01*
X77325Y488936D01*
X77265Y488974D01*
X77214Y488987D01*
X77167Y489009D01*
X77096Y489017D01*
X77026Y489034D01*
X76974Y489030D01*
X76923Y489036D01*
X76852Y489021D01*
X76781Y489015D01*
X76733Y488995D01*
X76682Y488984D01*
X76621Y488947D01*
X76555Y488919D01*
X76499Y488874D01*
X76471Y488858D01*
X76456Y488840D01*
X76424Y488814D01*
X75426Y487816D01*
X73928Y486815D01*
X72263Y486126D01*
X70497Y485774D01*
X63499Y485774D01*
X63499Y494157D01*
X63496Y494177D01*
X63498Y494196D01*
X63476Y494298D01*
X63459Y494400D01*
X63450Y494417D01*
X63446Y494437D01*
X63393Y494526D01*
X63344Y494617D01*
X63330Y494631D01*
X63320Y494648D01*
X63241Y494715D01*
X63166Y494786D01*
X63148Y494795D01*
X63133Y494808D01*
X63037Y494846D01*
X62943Y494890D01*
X62923Y494892D01*
X62905Y494900D01*
X62738Y494918D01*
X61975Y494918D01*
X61975Y494920D01*
X62738Y494920D01*
X62758Y494923D01*
X62777Y494921D01*
X62879Y494943D01*
X62981Y494960D01*
X62998Y494969D01*
X63018Y494973D01*
X63107Y495026D01*
X63198Y495075D01*
X63212Y495089D01*
X63229Y495099D01*
X63296Y495178D01*
X63367Y495253D01*
X63376Y495271D01*
X63389Y495286D01*
X63428Y495382D01*
X63471Y495476D01*
X63473Y495496D01*
X63481Y495514D01*
X63499Y495681D01*
X63499Y504064D01*
X70497Y504064D01*
X72263Y503712D01*
X73928Y503023D01*
X75426Y502022D01*
X76699Y500749D01*
X77736Y499197D01*
X77800Y499128D01*
X77859Y499055D01*
X77884Y499039D01*
X77904Y499017D01*
X77987Y498973D01*
X78066Y498922D01*
X78094Y498915D01*
X78120Y498901D01*
X78213Y498885D01*
X78304Y498862D01*
X78334Y498864D01*
X78362Y498859D01*
X78456Y498873D01*
X78550Y498881D01*
X78577Y498892D01*
X78605Y498897D01*
X78689Y498940D01*
X78776Y498977D01*
X78805Y499000D01*
X78824Y499010D01*
X78847Y499034D01*
X78907Y499082D01*
X79286Y499461D01*
X90386Y510561D01*
X90454Y510655D01*
X90524Y510750D01*
X90526Y510756D01*
X90530Y510761D01*
X90564Y510872D01*
X90600Y510983D01*
X90600Y510990D01*
X90602Y510996D01*
X90599Y511113D01*
X90598Y511229D01*
X90596Y511237D01*
X90596Y511242D01*
X90589Y511259D01*
X90551Y511391D01*
X89876Y513020D01*
X89876Y516188D01*
X91089Y519116D01*
X93329Y521356D01*
X96257Y522569D01*
X99425Y522569D01*
X101180Y521842D01*
X101294Y521815D01*
X101407Y521787D01*
X101414Y521787D01*
X101420Y521786D01*
X101536Y521797D01*
X101653Y521806D01*
X101658Y521808D01*
X101665Y521809D01*
X101772Y521857D01*
X101879Y521902D01*
X101885Y521907D01*
X101889Y521909D01*
X101903Y521921D01*
X102010Y522007D01*
X111790Y531787D01*
X111843Y531861D01*
X111903Y531931D01*
X111915Y531961D01*
X111934Y531987D01*
X111961Y532074D01*
X111995Y532159D01*
X111999Y532200D01*
X112006Y532222D01*
X112005Y532254D01*
X112013Y532325D01*
X112013Y704654D01*
X111999Y704745D01*
X111991Y704835D01*
X111979Y704865D01*
X111974Y704897D01*
X111931Y704978D01*
X111895Y705062D01*
X111869Y705094D01*
X111858Y705115D01*
X111835Y705137D01*
X111790Y705193D01*
X101502Y715481D01*
X101407Y715549D01*
X101313Y715619D01*
X101307Y715621D01*
X101302Y715625D01*
X101191Y715659D01*
X101079Y715695D01*
X101073Y715695D01*
X101067Y715697D01*
X100950Y715694D01*
X100833Y715693D01*
X100826Y715691D01*
X100821Y715691D01*
X100804Y715684D01*
X100672Y715646D01*
X98917Y714919D01*
X95749Y714919D01*
X92821Y716132D01*
X90581Y718372D01*
X89368Y721300D01*
X89368Y724468D01*
X90581Y727396D01*
X92821Y729636D01*
X95749Y730849D01*
X98917Y730849D01*
X101845Y729636D01*
X104085Y727396D01*
X105298Y724468D01*
X105298Y721300D01*
X104571Y719545D01*
X104544Y719431D01*
X104516Y719318D01*
X104516Y719311D01*
X104515Y719305D01*
X104526Y719188D01*
X104535Y719072D01*
X104537Y719067D01*
X104538Y719060D01*
X104586Y718953D01*
X104631Y718846D01*
X104636Y718840D01*
X104638Y718836D01*
X104650Y718822D01*
X104736Y718715D01*
X115024Y708427D01*
X116587Y706864D01*
X116587Y530116D01*
X115024Y528553D01*
X105244Y518773D01*
X105176Y518679D01*
X105106Y518584D01*
X105104Y518578D01*
X105100Y518573D01*
X105066Y518462D01*
X105030Y518350D01*
X105030Y518344D01*
X105028Y518338D01*
X105031Y518221D01*
X105032Y518104D01*
X105034Y518097D01*
X105034Y518092D01*
X105041Y518075D01*
X105079Y517943D01*
X105806Y516188D01*
X105806Y513020D01*
X104593Y510092D01*
X102353Y507852D01*
X99425Y506639D01*
X96257Y506639D01*
X94376Y507418D01*
X94309Y507434D01*
X94301Y507437D01*
X94292Y507438D01*
X94262Y507445D01*
X94149Y507474D01*
X94142Y507473D01*
X94136Y507475D01*
X94020Y507464D01*
X93904Y507454D01*
X93898Y507452D01*
X93891Y507451D01*
X93784Y507404D01*
X93677Y507358D01*
X93671Y507353D01*
X93667Y507351D01*
X93653Y507339D01*
X93609Y507304D01*
X93604Y507301D01*
X93598Y507295D01*
X93546Y507253D01*
X82520Y496227D01*
X82467Y496153D01*
X82407Y496083D01*
X82395Y496053D01*
X82376Y496027D01*
X82349Y495940D01*
X82315Y495855D01*
X82311Y495814D01*
X82304Y495792D01*
X82305Y495760D01*
X82297Y495689D01*
X82297Y481195D01*
X82308Y481125D01*
X82310Y481053D01*
X82328Y481004D01*
X82336Y480953D01*
X82370Y480889D01*
X82395Y480822D01*
X82427Y480781D01*
X82452Y480735D01*
X82503Y480686D01*
X82548Y480630D01*
X82592Y480602D01*
X82630Y480566D01*
X82695Y480536D01*
X82755Y480497D01*
X82806Y480484D01*
X82853Y480462D01*
X82924Y480454D01*
X82994Y480437D01*
X83046Y480441D01*
X83097Y480435D01*
X83168Y480450D01*
X83239Y480456D01*
X83287Y480476D01*
X83338Y480487D01*
X83399Y480524D01*
X83465Y480552D01*
X83521Y480597D01*
X83549Y480614D01*
X83564Y480631D01*
X83596Y480657D01*
X89717Y486777D01*
X89784Y486872D01*
X89854Y486966D01*
X89856Y486972D01*
X89860Y486977D01*
X89894Y487088D01*
X89931Y487200D01*
X89931Y487206D01*
X89932Y487212D01*
X89929Y487329D01*
X89928Y487446D01*
X89926Y487453D01*
X89926Y487458D01*
X89920Y487476D01*
X89882Y487607D01*
X89876Y487620D01*
X89876Y490788D01*
X91089Y493716D01*
X93329Y495956D01*
X96257Y497169D01*
X99425Y497169D01*
X102353Y495956D01*
X104593Y493716D01*
X105806Y490788D01*
X105806Y487620D01*
X104593Y484692D01*
X102353Y482452D01*
X99425Y481239D01*
X96257Y481239D01*
X93329Y482452D01*
X93132Y482649D01*
X93116Y482660D01*
X93104Y482676D01*
X93016Y482732D01*
X92933Y482792D01*
X92914Y482798D01*
X92897Y482809D01*
X92796Y482834D01*
X92697Y482865D01*
X92678Y482864D01*
X92658Y482869D01*
X92555Y482861D01*
X92452Y482858D01*
X92433Y482851D01*
X92413Y482850D01*
X92318Y482810D01*
X92221Y482774D01*
X92205Y482761D01*
X92187Y482754D01*
X92056Y482649D01*
X86203Y476796D01*
X86150Y476722D01*
X86090Y476652D01*
X86078Y476622D01*
X86059Y476596D01*
X86032Y476509D01*
X86011Y476456D01*
X86008Y476449D01*
X86008Y476448D01*
X85998Y476424D01*
X85994Y476383D01*
X85987Y476361D01*
X85988Y476329D01*
X85980Y476257D01*
X85980Y435679D01*
X77147Y426846D01*
X76239Y426846D01*
X76168Y426835D01*
X76097Y426833D01*
X76048Y426815D01*
X75996Y426807D01*
X75933Y426773D01*
X75866Y426748D01*
X75825Y426716D01*
X75779Y426691D01*
X75730Y426639D01*
X75674Y426595D01*
X75645Y426551D01*
X75610Y426513D01*
X75579Y426448D01*
X75541Y426388D01*
X75528Y426337D01*
X75506Y426290D01*
X75498Y426219D01*
X75481Y426149D01*
X75485Y426097D01*
X75479Y426046D01*
X75494Y425975D01*
X75500Y425904D01*
X75520Y425856D01*
X75531Y425805D01*
X75568Y425744D01*
X75596Y425678D01*
X75641Y425622D01*
X75657Y425594D01*
X75675Y425579D01*
X75701Y425547D01*
X77349Y423899D01*
X78741Y420538D01*
X78741Y416900D01*
X77349Y413539D01*
X74776Y410966D01*
X71415Y409574D01*
X52537Y409574D01*
G37*
%LPD*%
%LPC*%
G36*
X52537Y511174D02*
X52537Y511174D01*
X49176Y512566D01*
X46603Y515139D01*
X45211Y518500D01*
X45211Y522138D01*
X46603Y525499D01*
X49176Y528072D01*
X52537Y529464D01*
X67571Y529464D01*
X67662Y529478D01*
X67752Y529486D01*
X67782Y529498D01*
X67814Y529503D01*
X67895Y529546D01*
X67979Y529582D01*
X68011Y529608D01*
X68032Y529619D01*
X68054Y529642D01*
X68110Y529687D01*
X79405Y540982D01*
X79458Y541056D01*
X79518Y541126D01*
X79530Y541156D01*
X79549Y541182D01*
X79576Y541269D01*
X79610Y541354D01*
X79614Y541395D01*
X79621Y541417D01*
X79620Y541449D01*
X79628Y541521D01*
X79628Y733813D01*
X89930Y744115D01*
X89998Y744210D01*
X90068Y744304D01*
X90070Y744310D01*
X90074Y744315D01*
X90108Y744426D01*
X90144Y744538D01*
X90144Y744544D01*
X90146Y744550D01*
X90143Y744667D01*
X90142Y744784D01*
X90140Y744791D01*
X90140Y744796D01*
X90133Y744813D01*
X90095Y744945D01*
X89368Y746700D01*
X89368Y749868D01*
X90581Y752796D01*
X92821Y755036D01*
X95749Y756249D01*
X98917Y756249D01*
X101845Y755036D01*
X104085Y752796D01*
X105298Y749868D01*
X105298Y746700D01*
X104085Y743772D01*
X101845Y741532D01*
X98917Y740319D01*
X95749Y740319D01*
X93994Y741046D01*
X93880Y741073D01*
X93767Y741101D01*
X93760Y741101D01*
X93754Y741102D01*
X93638Y741091D01*
X93521Y741082D01*
X93516Y741080D01*
X93509Y741079D01*
X93402Y741031D01*
X93295Y740986D01*
X93289Y740981D01*
X93285Y740979D01*
X93271Y740967D01*
X93164Y740881D01*
X84425Y732142D01*
X84372Y732068D01*
X84312Y731998D01*
X84300Y731968D01*
X84281Y731942D01*
X84254Y731855D01*
X84220Y731770D01*
X84216Y731729D01*
X84209Y731707D01*
X84210Y731675D01*
X84202Y731603D01*
X84202Y587824D01*
X84213Y587754D01*
X84215Y587682D01*
X84233Y587633D01*
X84241Y587582D01*
X84275Y587518D01*
X84300Y587451D01*
X84332Y587410D01*
X84357Y587364D01*
X84408Y587315D01*
X84453Y587259D01*
X84497Y587231D01*
X84535Y587195D01*
X84600Y587165D01*
X84660Y587126D01*
X84711Y587113D01*
X84758Y587091D01*
X84829Y587083D01*
X84899Y587066D01*
X84951Y587070D01*
X85002Y587064D01*
X85073Y587079D01*
X85144Y587085D01*
X85192Y587105D01*
X85243Y587116D01*
X85304Y587153D01*
X85370Y587181D01*
X85426Y587226D01*
X85454Y587243D01*
X85469Y587260D01*
X85501Y587286D01*
X89930Y591715D01*
X89998Y591809D01*
X90068Y591904D01*
X90070Y591910D01*
X90074Y591915D01*
X90108Y592026D01*
X90144Y592138D01*
X90144Y592144D01*
X90146Y592150D01*
X90143Y592267D01*
X90142Y592384D01*
X90140Y592391D01*
X90140Y592396D01*
X90133Y592413D01*
X90095Y592545D01*
X89368Y594300D01*
X89368Y597468D01*
X90581Y600396D01*
X92821Y602636D01*
X95749Y603849D01*
X98917Y603849D01*
X101845Y602636D01*
X104085Y600396D01*
X104199Y600122D01*
X104250Y600039D01*
X104296Y599953D01*
X104315Y599935D01*
X104328Y599913D01*
X104403Y599850D01*
X104474Y599783D01*
X104498Y599772D01*
X104518Y599756D01*
X104609Y599721D01*
X104697Y599680D01*
X104723Y599677D01*
X104747Y599668D01*
X104845Y599663D01*
X104941Y599653D01*
X104967Y599658D01*
X104993Y599657D01*
X105087Y599684D01*
X105182Y599705D01*
X105204Y599718D01*
X105229Y599726D01*
X105309Y599781D01*
X105393Y599831D01*
X105410Y599851D01*
X105431Y599866D01*
X105489Y599944D01*
X105553Y600018D01*
X105563Y600042D01*
X105578Y600063D01*
X105608Y600156D01*
X105645Y600246D01*
X105648Y600279D01*
X105654Y600297D01*
X105654Y600330D01*
X105663Y600413D01*
X105663Y616755D01*
X105648Y616851D01*
X105638Y616948D01*
X105628Y616972D01*
X105624Y616998D01*
X105578Y617084D01*
X105538Y617173D01*
X105521Y617192D01*
X105508Y617215D01*
X105438Y617282D01*
X105372Y617354D01*
X105349Y617367D01*
X105330Y617385D01*
X105242Y617426D01*
X105156Y617473D01*
X105131Y617477D01*
X105107Y617488D01*
X105010Y617499D01*
X104914Y617516D01*
X104888Y617512D01*
X104863Y617515D01*
X104768Y617495D01*
X104671Y617480D01*
X104648Y617469D01*
X104622Y617463D01*
X104539Y617413D01*
X104452Y617369D01*
X104433Y617350D01*
X104411Y617337D01*
X104348Y617263D01*
X104280Y617193D01*
X104264Y617165D01*
X104251Y617150D01*
X104239Y617119D01*
X104199Y617046D01*
X104085Y616772D01*
X101845Y614532D01*
X98917Y613319D01*
X95749Y613319D01*
X92821Y614532D01*
X90581Y616772D01*
X89368Y619700D01*
X89368Y622868D01*
X90581Y625796D01*
X92821Y628036D01*
X95749Y629249D01*
X98917Y629249D01*
X101845Y628036D01*
X104085Y625796D01*
X104199Y625522D01*
X104250Y625439D01*
X104296Y625353D01*
X104315Y625335D01*
X104328Y625313D01*
X104403Y625250D01*
X104474Y625183D01*
X104498Y625172D01*
X104518Y625156D01*
X104609Y625121D01*
X104697Y625080D01*
X104723Y625077D01*
X104747Y625068D01*
X104845Y625063D01*
X104941Y625053D01*
X104967Y625058D01*
X104993Y625057D01*
X105087Y625084D01*
X105182Y625105D01*
X105204Y625118D01*
X105229Y625126D01*
X105309Y625181D01*
X105393Y625231D01*
X105410Y625251D01*
X105431Y625266D01*
X105489Y625344D01*
X105553Y625418D01*
X105563Y625442D01*
X105578Y625463D01*
X105608Y625556D01*
X105645Y625646D01*
X105648Y625679D01*
X105654Y625697D01*
X105654Y625730D01*
X105663Y625813D01*
X105663Y634804D01*
X105649Y634895D01*
X105641Y634985D01*
X105629Y635015D01*
X105624Y635047D01*
X105581Y635128D01*
X105545Y635212D01*
X105519Y635244D01*
X105508Y635265D01*
X105485Y635287D01*
X105440Y635343D01*
X101502Y639281D01*
X101407Y639349D01*
X101313Y639419D01*
X101307Y639421D01*
X101302Y639425D01*
X101191Y639459D01*
X101079Y639495D01*
X101073Y639495D01*
X101067Y639497D01*
X100950Y639494D01*
X100833Y639493D01*
X100826Y639491D01*
X100821Y639491D01*
X100804Y639484D01*
X100672Y639446D01*
X98917Y638719D01*
X95749Y638719D01*
X92821Y639932D01*
X90581Y642172D01*
X89368Y645100D01*
X89368Y648268D01*
X90581Y651196D01*
X92821Y653436D01*
X95749Y654649D01*
X98917Y654649D01*
X101845Y653436D01*
X104085Y651196D01*
X105298Y648268D01*
X105298Y645100D01*
X104571Y643345D01*
X104544Y643231D01*
X104516Y643118D01*
X104516Y643111D01*
X104515Y643105D01*
X104526Y642988D01*
X104535Y642872D01*
X104537Y642867D01*
X104538Y642860D01*
X104586Y642753D01*
X104631Y642646D01*
X104636Y642640D01*
X104638Y642636D01*
X104650Y642622D01*
X104736Y642515D01*
X108674Y638577D01*
X110237Y637014D01*
X110237Y574566D01*
X108674Y573003D01*
X105244Y569573D01*
X105176Y569478D01*
X105106Y569384D01*
X105104Y569378D01*
X105100Y569373D01*
X105066Y569262D01*
X105030Y569150D01*
X105030Y569144D01*
X105028Y569138D01*
X105031Y569021D01*
X105032Y568904D01*
X105034Y568897D01*
X105034Y568892D01*
X105041Y568875D01*
X105079Y568743D01*
X105806Y566988D01*
X105806Y563820D01*
X104593Y560892D01*
X102353Y558652D01*
X99425Y557439D01*
X96257Y557439D01*
X93329Y558652D01*
X91089Y560892D01*
X89876Y563820D01*
X89876Y566988D01*
X91089Y569916D01*
X93329Y572156D01*
X96257Y573369D01*
X99425Y573369D01*
X101180Y572642D01*
X101294Y572615D01*
X101407Y572587D01*
X101414Y572587D01*
X101420Y572586D01*
X101536Y572597D01*
X101653Y572606D01*
X101658Y572608D01*
X101665Y572609D01*
X101772Y572656D01*
X101879Y572702D01*
X101885Y572707D01*
X101889Y572709D01*
X101903Y572721D01*
X102010Y572807D01*
X105440Y576237D01*
X105493Y576311D01*
X105553Y576381D01*
X105565Y576411D01*
X105584Y576437D01*
X105611Y576524D01*
X105645Y576609D01*
X105649Y576650D01*
X105656Y576672D01*
X105655Y576704D01*
X105663Y576776D01*
X105663Y591355D01*
X105648Y591451D01*
X105638Y591548D01*
X105628Y591572D01*
X105624Y591598D01*
X105578Y591684D01*
X105538Y591773D01*
X105521Y591792D01*
X105508Y591815D01*
X105438Y591882D01*
X105372Y591954D01*
X105349Y591967D01*
X105330Y591985D01*
X105242Y592026D01*
X105156Y592073D01*
X105131Y592077D01*
X105107Y592088D01*
X105010Y592099D01*
X104914Y592116D01*
X104888Y592112D01*
X104863Y592115D01*
X104768Y592095D01*
X104671Y592080D01*
X104648Y592069D01*
X104622Y592063D01*
X104539Y592013D01*
X104452Y591969D01*
X104433Y591950D01*
X104411Y591937D01*
X104348Y591863D01*
X104280Y591793D01*
X104264Y591765D01*
X104251Y591750D01*
X104239Y591719D01*
X104199Y591646D01*
X104085Y591372D01*
X101845Y589132D01*
X98917Y587919D01*
X95749Y587919D01*
X93994Y588646D01*
X93880Y588673D01*
X93767Y588701D01*
X93760Y588701D01*
X93754Y588702D01*
X93638Y588691D01*
X93521Y588682D01*
X93516Y588680D01*
X93509Y588679D01*
X93402Y588631D01*
X93295Y588586D01*
X93289Y588581D01*
X93285Y588579D01*
X93271Y588567D01*
X93164Y588481D01*
X84425Y579742D01*
X84372Y579668D01*
X84312Y579598D01*
X84300Y579568D01*
X84281Y579542D01*
X84254Y579455D01*
X84220Y579370D01*
X84216Y579329D01*
X84209Y579307D01*
X84210Y579275D01*
X84202Y579203D01*
X84202Y543052D01*
X84205Y543032D01*
X84203Y543013D01*
X84225Y542911D01*
X84241Y542809D01*
X84251Y542792D01*
X84255Y542772D01*
X84308Y542683D01*
X84357Y542592D01*
X84371Y542578D01*
X84381Y542561D01*
X84460Y542494D01*
X84535Y542422D01*
X84553Y542414D01*
X84568Y542401D01*
X84664Y542362D01*
X84758Y542319D01*
X84778Y542317D01*
X84796Y542309D01*
X84963Y542291D01*
X89659Y542291D01*
X89773Y542310D01*
X89890Y542327D01*
X89895Y542329D01*
X89901Y542330D01*
X90004Y542385D01*
X90109Y542438D01*
X90113Y542443D01*
X90119Y542446D01*
X90199Y542530D01*
X90281Y542614D01*
X90285Y542620D01*
X90288Y542624D01*
X90296Y542641D01*
X90362Y542761D01*
X91089Y544516D01*
X93329Y546756D01*
X96257Y547969D01*
X99425Y547969D01*
X102353Y546756D01*
X104593Y544516D01*
X105806Y541588D01*
X105806Y538420D01*
X104593Y535492D01*
X102353Y533252D01*
X99425Y532039D01*
X96257Y532039D01*
X93329Y533252D01*
X91089Y535492D01*
X90362Y537247D01*
X90300Y537347D01*
X90240Y537447D01*
X90236Y537451D01*
X90232Y537456D01*
X90142Y537531D01*
X90053Y537607D01*
X90048Y537609D01*
X90043Y537613D01*
X89934Y537655D01*
X89825Y537699D01*
X89818Y537700D01*
X89813Y537701D01*
X89795Y537702D01*
X89659Y537717D01*
X82924Y537717D01*
X82833Y537703D01*
X82743Y537695D01*
X82713Y537683D01*
X82681Y537678D01*
X82600Y537635D01*
X82516Y537599D01*
X82484Y537573D01*
X82463Y537562D01*
X82441Y537539D01*
X82385Y537494D01*
X74299Y529408D01*
X74272Y529371D01*
X74239Y529340D01*
X74201Y529272D01*
X74156Y529209D01*
X74142Y529165D01*
X74120Y529124D01*
X74106Y529048D01*
X74083Y528974D01*
X74085Y528928D01*
X74076Y528882D01*
X74088Y528805D01*
X74090Y528728D01*
X74105Y528685D01*
X74112Y528639D01*
X74147Y528570D01*
X74174Y528497D01*
X74203Y528461D01*
X74224Y528420D01*
X74279Y528365D01*
X74328Y528305D01*
X74367Y528280D01*
X74399Y528248D01*
X74519Y528182D01*
X74535Y528172D01*
X74540Y528170D01*
X74546Y528167D01*
X74776Y528072D01*
X77349Y525499D01*
X78741Y522138D01*
X78741Y518500D01*
X77349Y515139D01*
X74776Y512566D01*
X71415Y511174D01*
X52537Y511174D01*
G37*
%LPD*%
%LPC*%
G36*
X241509Y530979D02*
X241509Y530979D01*
X240616Y531872D01*
X240616Y548136D01*
X241509Y549029D01*
X255773Y549029D01*
X256666Y548136D01*
X256666Y543052D01*
X256669Y543032D01*
X256667Y543013D01*
X256689Y542911D01*
X256705Y542809D01*
X256715Y542792D01*
X256719Y542772D01*
X256772Y542683D01*
X256821Y542592D01*
X256835Y542578D01*
X256845Y542561D01*
X256924Y542494D01*
X256999Y542422D01*
X257017Y542414D01*
X257032Y542401D01*
X257128Y542362D01*
X257222Y542319D01*
X257242Y542317D01*
X257260Y542309D01*
X257427Y542291D01*
X271155Y542291D01*
X271175Y542294D01*
X271194Y542292D01*
X271296Y542314D01*
X271398Y542330D01*
X271415Y542340D01*
X271435Y542344D01*
X271524Y542397D01*
X271615Y542446D01*
X271629Y542460D01*
X271646Y542470D01*
X271713Y542549D01*
X271785Y542624D01*
X271793Y542642D01*
X271806Y542657D01*
X271845Y542753D01*
X271888Y542847D01*
X271890Y542867D01*
X271898Y542885D01*
X271916Y543052D01*
X271916Y546636D01*
X272809Y547529D01*
X283416Y547529D01*
X283507Y547543D01*
X283597Y547551D01*
X283627Y547563D01*
X283659Y547568D01*
X283740Y547611D01*
X283824Y547647D01*
X283856Y547673D01*
X283877Y547684D01*
X283899Y547707D01*
X283955Y547752D01*
X297290Y561087D01*
X347687Y561087D01*
X347758Y561098D01*
X347829Y561100D01*
X347878Y561118D01*
X347930Y561126D01*
X347993Y561160D01*
X348060Y561185D01*
X348101Y561217D01*
X348147Y561242D01*
X348196Y561293D01*
X348252Y561338D01*
X348280Y561382D01*
X348316Y561420D01*
X348347Y561485D01*
X348385Y561545D01*
X348398Y561596D01*
X348420Y561643D01*
X348428Y561714D01*
X348445Y561784D01*
X348441Y561836D01*
X348447Y561887D01*
X348432Y561958D01*
X348426Y562029D01*
X348406Y562077D01*
X348395Y562128D01*
X348358Y562189D01*
X348330Y562255D01*
X348285Y562311D01*
X348269Y562339D01*
X348251Y562354D01*
X348225Y562386D01*
X347720Y562891D01*
X346328Y566252D01*
X346328Y569890D01*
X347720Y573251D01*
X350293Y575824D01*
X353654Y577216D01*
X372532Y577216D01*
X375893Y575824D01*
X378466Y573251D01*
X379858Y569890D01*
X379858Y566252D01*
X378466Y562891D01*
X375893Y560318D01*
X372532Y558926D01*
X357498Y558926D01*
X357407Y558912D01*
X357317Y558904D01*
X357287Y558892D01*
X357255Y558887D01*
X357174Y558844D01*
X357090Y558808D01*
X357058Y558782D01*
X357037Y558771D01*
X357015Y558748D01*
X356959Y558703D01*
X354769Y556513D01*
X299500Y556513D01*
X299409Y556499D01*
X299319Y556491D01*
X299289Y556479D01*
X299257Y556474D01*
X299176Y556431D01*
X299092Y556395D01*
X299060Y556369D01*
X299039Y556358D01*
X299017Y556335D01*
X298961Y556290D01*
X287189Y544518D01*
X287144Y544456D01*
X287113Y544424D01*
X287108Y544411D01*
X287076Y544374D01*
X287064Y544344D01*
X287045Y544318D01*
X287018Y544231D01*
X286984Y544146D01*
X286980Y544105D01*
X286973Y544083D01*
X286974Y544051D01*
X286966Y543979D01*
X286966Y533372D01*
X286073Y532479D01*
X272809Y532479D01*
X271916Y533372D01*
X271916Y536956D01*
X271913Y536976D01*
X271915Y536995D01*
X271893Y537097D01*
X271877Y537199D01*
X271867Y537216D01*
X271863Y537236D01*
X271810Y537325D01*
X271761Y537416D01*
X271747Y537430D01*
X271737Y537447D01*
X271658Y537514D01*
X271583Y537586D01*
X271565Y537594D01*
X271550Y537607D01*
X271454Y537646D01*
X271360Y537689D01*
X271340Y537691D01*
X271322Y537699D01*
X271155Y537717D01*
X257427Y537717D01*
X257407Y537714D01*
X257388Y537716D01*
X257286Y537694D01*
X257184Y537678D01*
X257167Y537668D01*
X257147Y537664D01*
X257058Y537611D01*
X256967Y537562D01*
X256953Y537548D01*
X256936Y537538D01*
X256869Y537459D01*
X256797Y537384D01*
X256789Y537366D01*
X256776Y537351D01*
X256737Y537255D01*
X256694Y537161D01*
X256692Y537141D01*
X256684Y537123D01*
X256666Y536956D01*
X256666Y531872D01*
X255773Y530979D01*
X241509Y530979D01*
G37*
%LPD*%
%LPC*%
G36*
X241001Y637659D02*
X241001Y637659D01*
X240108Y638552D01*
X240108Y654816D01*
X241001Y655709D01*
X255265Y655709D01*
X256158Y654816D01*
X256158Y649732D01*
X256161Y649712D01*
X256159Y649693D01*
X256181Y649591D01*
X256197Y649489D01*
X256207Y649472D01*
X256211Y649452D01*
X256264Y649363D01*
X256313Y649272D01*
X256327Y649258D01*
X256337Y649241D01*
X256416Y649174D01*
X256491Y649102D01*
X256509Y649094D01*
X256524Y649081D01*
X256620Y649042D01*
X256714Y648999D01*
X256734Y648997D01*
X256752Y648989D01*
X256919Y648971D01*
X270647Y648971D01*
X270667Y648974D01*
X270686Y648972D01*
X270788Y648994D01*
X270890Y649010D01*
X270907Y649020D01*
X270927Y649024D01*
X271016Y649077D01*
X271107Y649126D01*
X271121Y649140D01*
X271138Y649150D01*
X271205Y649229D01*
X271277Y649304D01*
X271285Y649322D01*
X271298Y649337D01*
X271337Y649433D01*
X271380Y649527D01*
X271382Y649547D01*
X271390Y649565D01*
X271408Y649732D01*
X271408Y653316D01*
X272301Y654209D01*
X282908Y654209D01*
X282999Y654223D01*
X283089Y654231D01*
X283119Y654243D01*
X283151Y654248D01*
X283232Y654291D01*
X283316Y654327D01*
X283348Y654353D01*
X283369Y654364D01*
X283391Y654387D01*
X283447Y654432D01*
X291702Y662687D01*
X347687Y662687D01*
X347758Y662698D01*
X347829Y662700D01*
X347878Y662718D01*
X347930Y662726D01*
X347993Y662760D01*
X348060Y662785D01*
X348101Y662817D01*
X348147Y662842D01*
X348196Y662893D01*
X348252Y662938D01*
X348280Y662982D01*
X348316Y663020D01*
X348347Y663085D01*
X348385Y663145D01*
X348398Y663196D01*
X348420Y663243D01*
X348428Y663314D01*
X348445Y663384D01*
X348441Y663436D01*
X348447Y663487D01*
X348432Y663558D01*
X348426Y663629D01*
X348406Y663677D01*
X348395Y663728D01*
X348358Y663789D01*
X348330Y663855D01*
X348285Y663911D01*
X348269Y663939D01*
X348251Y663954D01*
X348225Y663986D01*
X347720Y664491D01*
X346328Y667852D01*
X346328Y671490D01*
X347720Y674851D01*
X350293Y677424D01*
X353654Y678816D01*
X372532Y678816D01*
X375893Y677424D01*
X378466Y674851D01*
X379858Y671490D01*
X379858Y667852D01*
X378466Y664491D01*
X375893Y661918D01*
X372532Y660526D01*
X357498Y660526D01*
X357407Y660512D01*
X357317Y660504D01*
X357287Y660492D01*
X357255Y660487D01*
X357174Y660444D01*
X357090Y660408D01*
X357058Y660382D01*
X357037Y660371D01*
X357015Y660348D01*
X356959Y660303D01*
X354769Y658113D01*
X293912Y658113D01*
X293821Y658099D01*
X293731Y658091D01*
X293701Y658079D01*
X293669Y658074D01*
X293588Y658031D01*
X293504Y657995D01*
X293472Y657969D01*
X293451Y657958D01*
X293429Y657935D01*
X293373Y657890D01*
X286681Y651198D01*
X286628Y651124D01*
X286568Y651054D01*
X286556Y651024D01*
X286537Y650998D01*
X286510Y650911D01*
X286476Y650826D01*
X286472Y650785D01*
X286465Y650763D01*
X286466Y650731D01*
X286458Y650659D01*
X286458Y640052D01*
X285565Y639159D01*
X272301Y639159D01*
X271408Y640052D01*
X271408Y643636D01*
X271405Y643656D01*
X271407Y643675D01*
X271385Y643777D01*
X271369Y643879D01*
X271359Y643896D01*
X271355Y643916D01*
X271302Y644005D01*
X271253Y644096D01*
X271239Y644110D01*
X271229Y644127D01*
X271150Y644194D01*
X271075Y644266D01*
X271057Y644274D01*
X271042Y644287D01*
X270946Y644326D01*
X270852Y644369D01*
X270832Y644371D01*
X270814Y644379D01*
X270647Y644397D01*
X256919Y644397D01*
X256899Y644394D01*
X256880Y644396D01*
X256778Y644374D01*
X256676Y644358D01*
X256659Y644348D01*
X256639Y644344D01*
X256550Y644291D01*
X256459Y644242D01*
X256445Y644228D01*
X256428Y644218D01*
X256361Y644139D01*
X256289Y644064D01*
X256281Y644046D01*
X256268Y644031D01*
X256229Y643935D01*
X256186Y643841D01*
X256184Y643821D01*
X256176Y643803D01*
X256158Y643636D01*
X256158Y638552D01*
X255265Y637659D01*
X241001Y637659D01*
G37*
%LPD*%
%LPC*%
G36*
X241001Y663059D02*
X241001Y663059D01*
X240108Y663952D01*
X240108Y680216D01*
X241001Y681109D01*
X255265Y681109D01*
X256158Y680216D01*
X256158Y675132D01*
X256161Y675112D01*
X256159Y675093D01*
X256181Y674991D01*
X256197Y674889D01*
X256207Y674872D01*
X256211Y674852D01*
X256264Y674763D01*
X256313Y674672D01*
X256327Y674658D01*
X256337Y674641D01*
X256416Y674574D01*
X256491Y674502D01*
X256509Y674494D01*
X256524Y674481D01*
X256620Y674442D01*
X256714Y674399D01*
X256734Y674397D01*
X256752Y674389D01*
X256919Y674371D01*
X270647Y674371D01*
X270667Y674374D01*
X270686Y674372D01*
X270788Y674394D01*
X270890Y674410D01*
X270907Y674420D01*
X270927Y674424D01*
X271016Y674477D01*
X271107Y674526D01*
X271121Y674540D01*
X271138Y674550D01*
X271205Y674629D01*
X271277Y674704D01*
X271285Y674722D01*
X271298Y674737D01*
X271337Y674833D01*
X271380Y674927D01*
X271382Y674947D01*
X271390Y674965D01*
X271408Y675132D01*
X271408Y678716D01*
X272301Y679609D01*
X282908Y679609D01*
X282999Y679623D01*
X283089Y679631D01*
X283119Y679643D01*
X283151Y679648D01*
X283232Y679691D01*
X283316Y679727D01*
X283348Y679753D01*
X283369Y679764D01*
X283391Y679787D01*
X283447Y679832D01*
X291702Y688087D01*
X347687Y688087D01*
X347758Y688098D01*
X347829Y688100D01*
X347878Y688118D01*
X347930Y688126D01*
X347993Y688160D01*
X348060Y688185D01*
X348101Y688217D01*
X348147Y688242D01*
X348196Y688293D01*
X348252Y688338D01*
X348280Y688382D01*
X348316Y688420D01*
X348347Y688485D01*
X348385Y688545D01*
X348398Y688596D01*
X348420Y688643D01*
X348428Y688714D01*
X348445Y688784D01*
X348441Y688836D01*
X348447Y688887D01*
X348432Y688958D01*
X348426Y689029D01*
X348406Y689077D01*
X348395Y689128D01*
X348358Y689189D01*
X348330Y689255D01*
X348285Y689311D01*
X348269Y689339D01*
X348251Y689354D01*
X348225Y689386D01*
X347720Y689891D01*
X346328Y693252D01*
X346328Y696890D01*
X347720Y700251D01*
X350293Y702824D01*
X353654Y704216D01*
X372532Y704216D01*
X375893Y702824D01*
X378466Y700251D01*
X379858Y696890D01*
X379858Y693252D01*
X378466Y689891D01*
X375893Y687318D01*
X372532Y685926D01*
X357498Y685926D01*
X357407Y685912D01*
X357317Y685904D01*
X357287Y685892D01*
X357255Y685887D01*
X357174Y685844D01*
X357090Y685808D01*
X357058Y685782D01*
X357037Y685771D01*
X357015Y685748D01*
X356959Y685703D01*
X354769Y683513D01*
X293912Y683513D01*
X293821Y683499D01*
X293731Y683491D01*
X293701Y683479D01*
X293669Y683474D01*
X293588Y683431D01*
X293504Y683395D01*
X293472Y683369D01*
X293451Y683358D01*
X293429Y683335D01*
X293373Y683290D01*
X286681Y676598D01*
X286628Y676524D01*
X286568Y676454D01*
X286556Y676424D01*
X286537Y676398D01*
X286510Y676311D01*
X286476Y676226D01*
X286472Y676185D01*
X286465Y676163D01*
X286466Y676131D01*
X286458Y676059D01*
X286458Y665452D01*
X285565Y664559D01*
X272301Y664559D01*
X271408Y665452D01*
X271408Y669036D01*
X271405Y669056D01*
X271407Y669075D01*
X271385Y669177D01*
X271369Y669279D01*
X271359Y669296D01*
X271355Y669316D01*
X271302Y669405D01*
X271253Y669496D01*
X271239Y669510D01*
X271229Y669527D01*
X271150Y669594D01*
X271075Y669666D01*
X271057Y669674D01*
X271042Y669687D01*
X270946Y669726D01*
X270852Y669769D01*
X270832Y669771D01*
X270814Y669779D01*
X270647Y669797D01*
X256919Y669797D01*
X256899Y669794D01*
X256880Y669796D01*
X256778Y669774D01*
X256676Y669758D01*
X256659Y669748D01*
X256639Y669744D01*
X256550Y669691D01*
X256459Y669642D01*
X256445Y669628D01*
X256428Y669618D01*
X256361Y669539D01*
X256289Y669464D01*
X256281Y669446D01*
X256268Y669431D01*
X256229Y669335D01*
X256186Y669241D01*
X256184Y669221D01*
X256176Y669203D01*
X256158Y669036D01*
X256158Y663952D01*
X255265Y663059D01*
X241001Y663059D01*
G37*
%LPD*%
%LPC*%
G36*
X241001Y688459D02*
X241001Y688459D01*
X240108Y689352D01*
X240108Y705616D01*
X241001Y706509D01*
X255265Y706509D01*
X256158Y705616D01*
X256158Y700532D01*
X256161Y700512D01*
X256159Y700493D01*
X256181Y700391D01*
X256197Y700289D01*
X256207Y700272D01*
X256211Y700252D01*
X256264Y700163D01*
X256313Y700072D01*
X256327Y700058D01*
X256337Y700041D01*
X256416Y699974D01*
X256491Y699902D01*
X256509Y699894D01*
X256524Y699881D01*
X256620Y699842D01*
X256714Y699799D01*
X256734Y699797D01*
X256752Y699789D01*
X256919Y699771D01*
X270647Y699771D01*
X270667Y699774D01*
X270686Y699772D01*
X270788Y699794D01*
X270890Y699810D01*
X270907Y699820D01*
X270927Y699824D01*
X271016Y699877D01*
X271107Y699926D01*
X271121Y699940D01*
X271138Y699950D01*
X271205Y700029D01*
X271277Y700104D01*
X271285Y700122D01*
X271298Y700137D01*
X271337Y700233D01*
X271380Y700327D01*
X271382Y700347D01*
X271390Y700365D01*
X271408Y700532D01*
X271408Y704116D01*
X272301Y705009D01*
X282908Y705009D01*
X282999Y705023D01*
X283089Y705031D01*
X283119Y705043D01*
X283151Y705048D01*
X283232Y705091D01*
X283316Y705127D01*
X283348Y705153D01*
X283369Y705164D01*
X283391Y705187D01*
X283447Y705232D01*
X291702Y713487D01*
X347687Y713487D01*
X347758Y713498D01*
X347829Y713500D01*
X347878Y713518D01*
X347930Y713526D01*
X347993Y713560D01*
X348060Y713585D01*
X348101Y713617D01*
X348147Y713642D01*
X348196Y713693D01*
X348252Y713738D01*
X348280Y713782D01*
X348316Y713820D01*
X348347Y713885D01*
X348385Y713945D01*
X348398Y713996D01*
X348420Y714043D01*
X348428Y714114D01*
X348445Y714184D01*
X348441Y714236D01*
X348447Y714287D01*
X348432Y714358D01*
X348426Y714429D01*
X348406Y714477D01*
X348395Y714528D01*
X348358Y714589D01*
X348330Y714655D01*
X348285Y714711D01*
X348269Y714739D01*
X348251Y714754D01*
X348225Y714786D01*
X347720Y715291D01*
X346328Y718652D01*
X346328Y722290D01*
X347720Y725651D01*
X350293Y728224D01*
X353654Y729616D01*
X372532Y729616D01*
X375893Y728224D01*
X378466Y725651D01*
X379858Y722290D01*
X379858Y718652D01*
X378466Y715291D01*
X375893Y712718D01*
X372532Y711326D01*
X357498Y711326D01*
X357407Y711312D01*
X357317Y711304D01*
X357287Y711292D01*
X357255Y711287D01*
X357174Y711244D01*
X357090Y711208D01*
X357058Y711182D01*
X357037Y711171D01*
X357015Y711148D01*
X356959Y711103D01*
X354769Y708913D01*
X293912Y708913D01*
X293821Y708899D01*
X293731Y708891D01*
X293701Y708879D01*
X293669Y708874D01*
X293588Y708831D01*
X293504Y708795D01*
X293472Y708769D01*
X293451Y708758D01*
X293429Y708735D01*
X293373Y708690D01*
X286681Y701998D01*
X286628Y701924D01*
X286568Y701854D01*
X286556Y701824D01*
X286537Y701798D01*
X286510Y701711D01*
X286476Y701626D01*
X286472Y701585D01*
X286465Y701563D01*
X286466Y701531D01*
X286458Y701459D01*
X286458Y690852D01*
X285565Y689959D01*
X272301Y689959D01*
X271408Y690852D01*
X271408Y694436D01*
X271405Y694456D01*
X271407Y694475D01*
X271385Y694577D01*
X271369Y694679D01*
X271359Y694696D01*
X271355Y694716D01*
X271302Y694805D01*
X271253Y694896D01*
X271239Y694910D01*
X271229Y694927D01*
X271150Y694994D01*
X271075Y695066D01*
X271057Y695074D01*
X271042Y695087D01*
X270946Y695126D01*
X270852Y695169D01*
X270832Y695171D01*
X270814Y695179D01*
X270647Y695197D01*
X256919Y695197D01*
X256899Y695194D01*
X256880Y695196D01*
X256778Y695174D01*
X256676Y695158D01*
X256659Y695148D01*
X256639Y695144D01*
X256550Y695091D01*
X256459Y695042D01*
X256445Y695028D01*
X256428Y695018D01*
X256361Y694939D01*
X256289Y694864D01*
X256281Y694846D01*
X256268Y694831D01*
X256229Y694735D01*
X256186Y694641D01*
X256184Y694621D01*
X256176Y694603D01*
X256158Y694436D01*
X256158Y689352D01*
X255265Y688459D01*
X241001Y688459D01*
G37*
%LPD*%
%LPC*%
G36*
X241001Y586859D02*
X241001Y586859D01*
X240108Y587752D01*
X240108Y604016D01*
X241001Y604909D01*
X255265Y604909D01*
X256158Y604016D01*
X256158Y598932D01*
X256161Y598912D01*
X256159Y598893D01*
X256181Y598791D01*
X256197Y598689D01*
X256207Y598672D01*
X256211Y598652D01*
X256264Y598563D01*
X256313Y598472D01*
X256327Y598458D01*
X256337Y598441D01*
X256416Y598374D01*
X256491Y598302D01*
X256509Y598294D01*
X256524Y598281D01*
X256620Y598242D01*
X256714Y598199D01*
X256734Y598197D01*
X256752Y598189D01*
X256919Y598171D01*
X270647Y598171D01*
X270667Y598174D01*
X270686Y598172D01*
X270788Y598194D01*
X270890Y598210D01*
X270907Y598220D01*
X270927Y598224D01*
X271016Y598277D01*
X271107Y598326D01*
X271121Y598340D01*
X271138Y598350D01*
X271205Y598429D01*
X271277Y598504D01*
X271285Y598522D01*
X271298Y598537D01*
X271337Y598633D01*
X271380Y598727D01*
X271382Y598747D01*
X271390Y598765D01*
X271408Y598932D01*
X271408Y602516D01*
X272301Y603409D01*
X282908Y603409D01*
X282999Y603423D01*
X283089Y603431D01*
X283119Y603443D01*
X283151Y603448D01*
X283232Y603491D01*
X283316Y603527D01*
X283348Y603553D01*
X283369Y603564D01*
X283391Y603587D01*
X283447Y603632D01*
X291702Y611887D01*
X347687Y611887D01*
X347758Y611898D01*
X347829Y611900D01*
X347878Y611918D01*
X347930Y611926D01*
X347993Y611960D01*
X348060Y611985D01*
X348101Y612017D01*
X348147Y612042D01*
X348196Y612093D01*
X348252Y612138D01*
X348280Y612182D01*
X348316Y612220D01*
X348347Y612285D01*
X348385Y612345D01*
X348398Y612396D01*
X348420Y612443D01*
X348428Y612514D01*
X348445Y612584D01*
X348441Y612636D01*
X348447Y612687D01*
X348432Y612758D01*
X348426Y612829D01*
X348406Y612877D01*
X348395Y612928D01*
X348358Y612989D01*
X348330Y613055D01*
X348285Y613111D01*
X348269Y613139D01*
X348251Y613154D01*
X348225Y613186D01*
X347720Y613691D01*
X346328Y617052D01*
X346328Y620690D01*
X347720Y624051D01*
X350293Y626624D01*
X353654Y628016D01*
X372532Y628016D01*
X375893Y626624D01*
X378466Y624051D01*
X379858Y620690D01*
X379858Y617052D01*
X378466Y613691D01*
X375893Y611118D01*
X372532Y609726D01*
X357497Y609726D01*
X357407Y609712D01*
X357316Y609704D01*
X357287Y609692D01*
X357255Y609687D01*
X357174Y609644D01*
X357090Y609608D01*
X357058Y609582D01*
X357037Y609571D01*
X357015Y609548D01*
X356959Y609503D01*
X356332Y608876D01*
X354769Y607313D01*
X293912Y607313D01*
X293821Y607299D01*
X293731Y607291D01*
X293701Y607279D01*
X293669Y607274D01*
X293588Y607231D01*
X293504Y607195D01*
X293472Y607169D01*
X293451Y607158D01*
X293429Y607135D01*
X293373Y607090D01*
X286681Y600398D01*
X286628Y600324D01*
X286568Y600254D01*
X286556Y600224D01*
X286537Y600198D01*
X286510Y600111D01*
X286476Y600026D01*
X286472Y599985D01*
X286465Y599963D01*
X286466Y599931D01*
X286458Y599859D01*
X286458Y589252D01*
X285565Y588359D01*
X272301Y588359D01*
X271408Y589252D01*
X271408Y592836D01*
X271405Y592856D01*
X271407Y592875D01*
X271385Y592977D01*
X271369Y593079D01*
X271359Y593096D01*
X271355Y593116D01*
X271302Y593205D01*
X271253Y593296D01*
X271239Y593310D01*
X271229Y593327D01*
X271150Y593394D01*
X271075Y593466D01*
X271057Y593474D01*
X271042Y593487D01*
X270946Y593526D01*
X270852Y593569D01*
X270832Y593571D01*
X270814Y593579D01*
X270647Y593597D01*
X256919Y593597D01*
X256899Y593594D01*
X256880Y593596D01*
X256778Y593574D01*
X256676Y593558D01*
X256659Y593548D01*
X256639Y593544D01*
X256550Y593491D01*
X256459Y593442D01*
X256445Y593428D01*
X256428Y593418D01*
X256361Y593339D01*
X256289Y593264D01*
X256281Y593246D01*
X256268Y593231D01*
X256229Y593135D01*
X256186Y593041D01*
X256184Y593021D01*
X256176Y593003D01*
X256158Y592836D01*
X256158Y587752D01*
X255265Y586859D01*
X241001Y586859D01*
G37*
%LPD*%
%LPC*%
G36*
X241001Y561459D02*
X241001Y561459D01*
X240108Y562352D01*
X240108Y578616D01*
X241001Y579509D01*
X255265Y579509D01*
X256158Y578616D01*
X256158Y573532D01*
X256161Y573512D01*
X256159Y573493D01*
X256181Y573391D01*
X256197Y573289D01*
X256207Y573272D01*
X256211Y573252D01*
X256264Y573163D01*
X256313Y573072D01*
X256327Y573058D01*
X256337Y573041D01*
X256416Y572974D01*
X256491Y572902D01*
X256509Y572894D01*
X256524Y572881D01*
X256620Y572842D01*
X256714Y572799D01*
X256734Y572797D01*
X256752Y572789D01*
X256919Y572771D01*
X270647Y572771D01*
X270667Y572774D01*
X270686Y572772D01*
X270788Y572794D01*
X270890Y572810D01*
X270907Y572820D01*
X270927Y572824D01*
X271016Y572877D01*
X271107Y572926D01*
X271121Y572940D01*
X271138Y572950D01*
X271205Y573029D01*
X271277Y573104D01*
X271285Y573122D01*
X271298Y573137D01*
X271337Y573233D01*
X271380Y573327D01*
X271382Y573347D01*
X271390Y573365D01*
X271408Y573532D01*
X271408Y577116D01*
X272301Y578009D01*
X282908Y578009D01*
X282999Y578023D01*
X283089Y578031D01*
X283119Y578043D01*
X283151Y578048D01*
X283232Y578091D01*
X283316Y578127D01*
X283348Y578153D01*
X283369Y578164D01*
X283391Y578187D01*
X283447Y578232D01*
X291702Y586487D01*
X347687Y586487D01*
X347758Y586498D01*
X347829Y586500D01*
X347878Y586518D01*
X347930Y586526D01*
X347993Y586560D01*
X348060Y586585D01*
X348101Y586617D01*
X348147Y586642D01*
X348196Y586693D01*
X348252Y586738D01*
X348280Y586782D01*
X348316Y586820D01*
X348347Y586885D01*
X348385Y586945D01*
X348398Y586996D01*
X348420Y587043D01*
X348428Y587114D01*
X348445Y587184D01*
X348441Y587236D01*
X348447Y587287D01*
X348432Y587358D01*
X348426Y587429D01*
X348406Y587477D01*
X348395Y587528D01*
X348358Y587589D01*
X348330Y587655D01*
X348285Y587711D01*
X348269Y587739D01*
X348251Y587754D01*
X348225Y587786D01*
X347720Y588291D01*
X346328Y591652D01*
X346328Y595290D01*
X347720Y598651D01*
X350293Y601224D01*
X353654Y602616D01*
X372532Y602616D01*
X375893Y601224D01*
X378466Y598651D01*
X379858Y595290D01*
X379858Y591652D01*
X378466Y588291D01*
X375893Y585718D01*
X372532Y584326D01*
X357497Y584326D01*
X357407Y584312D01*
X357316Y584304D01*
X357287Y584292D01*
X357255Y584287D01*
X357174Y584244D01*
X357090Y584208D01*
X357058Y584182D01*
X357037Y584171D01*
X357015Y584148D01*
X356959Y584103D01*
X356332Y583476D01*
X354769Y581913D01*
X293912Y581913D01*
X293821Y581899D01*
X293731Y581891D01*
X293701Y581879D01*
X293669Y581874D01*
X293588Y581831D01*
X293504Y581795D01*
X293472Y581769D01*
X293451Y581758D01*
X293429Y581735D01*
X293373Y581690D01*
X286681Y574998D01*
X286628Y574924D01*
X286568Y574854D01*
X286556Y574824D01*
X286537Y574798D01*
X286510Y574711D01*
X286487Y574653D01*
X286486Y574650D01*
X286476Y574626D01*
X286472Y574585D01*
X286465Y574563D01*
X286466Y574531D01*
X286458Y574459D01*
X286458Y563852D01*
X285565Y562959D01*
X272301Y562959D01*
X271408Y563852D01*
X271408Y567436D01*
X271405Y567456D01*
X271407Y567475D01*
X271385Y567577D01*
X271369Y567679D01*
X271359Y567696D01*
X271355Y567716D01*
X271302Y567805D01*
X271253Y567896D01*
X271239Y567910D01*
X271229Y567927D01*
X271150Y567994D01*
X271075Y568066D01*
X271057Y568074D01*
X271042Y568087D01*
X270946Y568126D01*
X270852Y568169D01*
X270832Y568171D01*
X270814Y568179D01*
X270647Y568197D01*
X256919Y568197D01*
X256899Y568194D01*
X256880Y568196D01*
X256778Y568174D01*
X256676Y568158D01*
X256659Y568148D01*
X256639Y568144D01*
X256550Y568091D01*
X256459Y568042D01*
X256445Y568028D01*
X256428Y568018D01*
X256361Y567939D01*
X256289Y567864D01*
X256281Y567846D01*
X256268Y567831D01*
X256229Y567735D01*
X256186Y567641D01*
X256184Y567621D01*
X256176Y567603D01*
X256158Y567436D01*
X256158Y562352D01*
X255265Y561459D01*
X241001Y561459D01*
G37*
%LPD*%
%LPC*%
G36*
X241001Y713859D02*
X241001Y713859D01*
X240108Y714752D01*
X240108Y731016D01*
X241001Y731909D01*
X255265Y731909D01*
X256158Y731016D01*
X256158Y725932D01*
X256161Y725913D01*
X256159Y725895D01*
X256159Y725894D01*
X256159Y725893D01*
X256181Y725791D01*
X256197Y725689D01*
X256207Y725672D01*
X256211Y725652D01*
X256264Y725563D01*
X256313Y725472D01*
X256327Y725458D01*
X256337Y725441D01*
X256416Y725374D01*
X256491Y725302D01*
X256509Y725294D01*
X256524Y725281D01*
X256620Y725242D01*
X256714Y725199D01*
X256734Y725197D01*
X256752Y725189D01*
X256919Y725171D01*
X270647Y725171D01*
X270667Y725174D01*
X270686Y725172D01*
X270788Y725194D01*
X270890Y725210D01*
X270907Y725220D01*
X270927Y725224D01*
X271016Y725277D01*
X271107Y725326D01*
X271121Y725340D01*
X271138Y725350D01*
X271205Y725429D01*
X271277Y725504D01*
X271285Y725522D01*
X271298Y725537D01*
X271337Y725633D01*
X271380Y725727D01*
X271382Y725747D01*
X271390Y725765D01*
X271408Y725932D01*
X271408Y729516D01*
X272301Y730409D01*
X282909Y730409D01*
X282999Y730423D01*
X283090Y730431D01*
X283119Y730443D01*
X283151Y730448D01*
X283232Y730491D01*
X283316Y730527D01*
X283348Y730553D01*
X283369Y730564D01*
X283391Y730587D01*
X283447Y730632D01*
X290139Y737324D01*
X291702Y738887D01*
X347687Y738887D01*
X347758Y738898D01*
X347829Y738900D01*
X347878Y738918D01*
X347930Y738926D01*
X347993Y738960D01*
X348060Y738985D01*
X348101Y739017D01*
X348147Y739042D01*
X348196Y739093D01*
X348252Y739138D01*
X348280Y739182D01*
X348316Y739220D01*
X348347Y739285D01*
X348385Y739345D01*
X348398Y739396D01*
X348420Y739443D01*
X348428Y739514D01*
X348445Y739584D01*
X348441Y739636D01*
X348447Y739687D01*
X348432Y739758D01*
X348426Y739829D01*
X348406Y739877D01*
X348395Y739928D01*
X348358Y739989D01*
X348330Y740055D01*
X348285Y740111D01*
X348269Y740139D01*
X348251Y740154D01*
X348225Y740186D01*
X347720Y740691D01*
X346328Y744052D01*
X346328Y747690D01*
X347720Y751051D01*
X350293Y753624D01*
X353654Y755016D01*
X372532Y755016D01*
X375893Y753624D01*
X378466Y751051D01*
X379858Y747690D01*
X379858Y744052D01*
X378466Y740691D01*
X375893Y738118D01*
X372532Y736726D01*
X357497Y736726D01*
X357407Y736712D01*
X357316Y736704D01*
X357287Y736692D01*
X357255Y736687D01*
X357174Y736644D01*
X357090Y736608D01*
X357058Y736582D01*
X357037Y736571D01*
X357015Y736548D01*
X356959Y736503D01*
X356332Y735876D01*
X354769Y734313D01*
X293912Y734313D01*
X293821Y734299D01*
X293731Y734291D01*
X293701Y734279D01*
X293669Y734274D01*
X293588Y734231D01*
X293504Y734195D01*
X293472Y734169D01*
X293451Y734158D01*
X293447Y734153D01*
X293446Y734153D01*
X293428Y734134D01*
X293373Y734090D01*
X286681Y727398D01*
X286628Y727324D01*
X286568Y727254D01*
X286556Y727224D01*
X286537Y727198D01*
X286510Y727111D01*
X286476Y727026D01*
X286472Y726985D01*
X286465Y726963D01*
X286466Y726931D01*
X286458Y726860D01*
X286458Y716252D01*
X285565Y715359D01*
X272301Y715359D01*
X271408Y716252D01*
X271408Y719836D01*
X271405Y719856D01*
X271407Y719875D01*
X271385Y719977D01*
X271369Y720079D01*
X271359Y720096D01*
X271355Y720116D01*
X271302Y720205D01*
X271253Y720296D01*
X271239Y720310D01*
X271229Y720327D01*
X271150Y720394D01*
X271075Y720466D01*
X271057Y720474D01*
X271042Y720487D01*
X270946Y720526D01*
X270852Y720569D01*
X270832Y720571D01*
X270814Y720579D01*
X270647Y720597D01*
X256919Y720597D01*
X256899Y720594D01*
X256880Y720596D01*
X256778Y720574D01*
X256676Y720558D01*
X256659Y720548D01*
X256639Y720544D01*
X256550Y720491D01*
X256459Y720442D01*
X256445Y720428D01*
X256428Y720418D01*
X256361Y720339D01*
X256289Y720264D01*
X256281Y720246D01*
X256268Y720231D01*
X256229Y720135D01*
X256186Y720041D01*
X256184Y720021D01*
X256176Y720003D01*
X256158Y719836D01*
X256158Y714752D01*
X255265Y713859D01*
X241001Y713859D01*
G37*
%LPD*%
%LPC*%
G36*
X241001Y612259D02*
X241001Y612259D01*
X240108Y613152D01*
X240108Y629416D01*
X241001Y630309D01*
X255265Y630309D01*
X256158Y629416D01*
X256158Y624332D01*
X256161Y624312D01*
X256159Y624293D01*
X256181Y624191D01*
X256197Y624089D01*
X256207Y624072D01*
X256211Y624052D01*
X256264Y623963D01*
X256313Y623872D01*
X256327Y623858D01*
X256337Y623841D01*
X256416Y623774D01*
X256491Y623702D01*
X256509Y623694D01*
X256524Y623681D01*
X256620Y623642D01*
X256714Y623599D01*
X256734Y623597D01*
X256752Y623589D01*
X256919Y623571D01*
X270647Y623571D01*
X270667Y623574D01*
X270686Y623572D01*
X270788Y623594D01*
X270890Y623610D01*
X270907Y623620D01*
X270927Y623624D01*
X271016Y623677D01*
X271107Y623726D01*
X271121Y623740D01*
X271138Y623750D01*
X271205Y623829D01*
X271277Y623904D01*
X271285Y623922D01*
X271298Y623937D01*
X271337Y624033D01*
X271380Y624127D01*
X271382Y624147D01*
X271390Y624165D01*
X271408Y624332D01*
X271408Y627916D01*
X272301Y628809D01*
X282909Y628809D01*
X282999Y628823D01*
X283090Y628831D01*
X283119Y628843D01*
X283151Y628848D01*
X283232Y628891D01*
X283316Y628927D01*
X283348Y628953D01*
X283369Y628964D01*
X283391Y628987D01*
X283447Y629032D01*
X290139Y635724D01*
X291702Y637287D01*
X347687Y637287D01*
X347758Y637298D01*
X347829Y637300D01*
X347878Y637318D01*
X347930Y637326D01*
X347993Y637360D01*
X348060Y637385D01*
X348101Y637417D01*
X348147Y637442D01*
X348196Y637493D01*
X348252Y637538D01*
X348280Y637582D01*
X348316Y637620D01*
X348347Y637685D01*
X348385Y637745D01*
X348398Y637796D01*
X348420Y637843D01*
X348428Y637914D01*
X348445Y637984D01*
X348441Y638036D01*
X348447Y638087D01*
X348432Y638158D01*
X348426Y638229D01*
X348406Y638277D01*
X348395Y638328D01*
X348358Y638389D01*
X348330Y638455D01*
X348285Y638511D01*
X348269Y638539D01*
X348251Y638554D01*
X348225Y638586D01*
X347720Y639091D01*
X346328Y642452D01*
X346328Y646090D01*
X347720Y649451D01*
X350293Y652024D01*
X353654Y653416D01*
X372532Y653416D01*
X375893Y652024D01*
X378466Y649451D01*
X379858Y646090D01*
X379858Y642452D01*
X378466Y639091D01*
X375893Y636518D01*
X372532Y635126D01*
X357497Y635126D01*
X357407Y635112D01*
X357316Y635104D01*
X357287Y635092D01*
X357255Y635087D01*
X357174Y635044D01*
X357090Y635008D01*
X357058Y634982D01*
X357037Y634971D01*
X357015Y634948D01*
X356959Y634903D01*
X356332Y634276D01*
X354769Y632713D01*
X293911Y632713D01*
X293821Y632699D01*
X293730Y632691D01*
X293701Y632679D01*
X293669Y632674D01*
X293588Y632631D01*
X293504Y632595D01*
X293472Y632569D01*
X293451Y632558D01*
X293429Y632535D01*
X293373Y632490D01*
X286681Y625798D01*
X286628Y625724D01*
X286568Y625654D01*
X286556Y625624D01*
X286537Y625598D01*
X286510Y625511D01*
X286476Y625426D01*
X286472Y625385D01*
X286465Y625363D01*
X286466Y625331D01*
X286458Y625260D01*
X286458Y614652D01*
X285565Y613759D01*
X272301Y613759D01*
X271408Y614652D01*
X271408Y618236D01*
X271405Y618256D01*
X271407Y618275D01*
X271385Y618377D01*
X271369Y618479D01*
X271359Y618496D01*
X271355Y618516D01*
X271302Y618605D01*
X271253Y618696D01*
X271239Y618710D01*
X271229Y618727D01*
X271150Y618794D01*
X271075Y618866D01*
X271057Y618874D01*
X271042Y618887D01*
X270946Y618926D01*
X270852Y618969D01*
X270832Y618971D01*
X270814Y618979D01*
X270647Y618997D01*
X256919Y618997D01*
X256899Y618994D01*
X256880Y618996D01*
X256778Y618974D01*
X256676Y618958D01*
X256659Y618948D01*
X256639Y618944D01*
X256550Y618891D01*
X256459Y618842D01*
X256445Y618828D01*
X256428Y618818D01*
X256361Y618739D01*
X256289Y618664D01*
X256281Y618646D01*
X256268Y618631D01*
X256229Y618535D01*
X256186Y618441D01*
X256184Y618421D01*
X256176Y618403D01*
X256158Y618236D01*
X256158Y613152D01*
X255265Y612259D01*
X241001Y612259D01*
G37*
%LPD*%
%LPC*%
G36*
X241001Y739259D02*
X241001Y739259D01*
X240108Y740152D01*
X240108Y756416D01*
X241001Y757309D01*
X255265Y757309D01*
X256158Y756416D01*
X256158Y751332D01*
X256161Y751312D01*
X256159Y751293D01*
X256181Y751191D01*
X256197Y751089D01*
X256207Y751072D01*
X256211Y751052D01*
X256264Y750963D01*
X256313Y750872D01*
X256327Y750858D01*
X256337Y750841D01*
X256416Y750774D01*
X256491Y750702D01*
X256509Y750694D01*
X256524Y750681D01*
X256620Y750642D01*
X256714Y750599D01*
X256734Y750597D01*
X256752Y750589D01*
X256919Y750571D01*
X270647Y750571D01*
X270667Y750574D01*
X270686Y750572D01*
X270788Y750594D01*
X270890Y750610D01*
X270907Y750620D01*
X270927Y750624D01*
X271016Y750677D01*
X271107Y750726D01*
X271121Y750740D01*
X271138Y750750D01*
X271205Y750829D01*
X271277Y750904D01*
X271285Y750922D01*
X271298Y750937D01*
X271337Y751033D01*
X271380Y751127D01*
X271382Y751147D01*
X271390Y751165D01*
X271408Y751332D01*
X271408Y754916D01*
X272301Y755809D01*
X282908Y755809D01*
X282999Y755823D01*
X283089Y755831D01*
X283119Y755843D01*
X283151Y755848D01*
X283232Y755891D01*
X283316Y755927D01*
X283348Y755953D01*
X283369Y755964D01*
X283391Y755987D01*
X283447Y756032D01*
X300973Y773558D01*
X346013Y773558D01*
X346128Y773577D01*
X346244Y773594D01*
X346250Y773596D01*
X346256Y773597D01*
X346359Y773652D01*
X346464Y773705D01*
X346468Y773710D01*
X346473Y773713D01*
X346553Y773797D01*
X346636Y773881D01*
X346639Y773887D01*
X346643Y773891D01*
X346651Y773908D01*
X346717Y774028D01*
X347720Y776451D01*
X350293Y779024D01*
X353654Y780416D01*
X372532Y780416D01*
X375893Y779024D01*
X378466Y776451D01*
X379858Y773090D01*
X379858Y769452D01*
X378466Y766091D01*
X375893Y763518D01*
X372532Y762126D01*
X353654Y762126D01*
X350293Y763518D01*
X347720Y766091D01*
X346717Y768514D01*
X346655Y768614D01*
X346595Y768714D01*
X346590Y768718D01*
X346587Y768723D01*
X346497Y768798D01*
X346408Y768874D01*
X346402Y768876D01*
X346398Y768880D01*
X346289Y768922D01*
X346180Y768966D01*
X346173Y768967D01*
X346168Y768968D01*
X346150Y768969D01*
X346013Y768984D01*
X303183Y768984D01*
X303092Y768970D01*
X303002Y768962D01*
X302972Y768950D01*
X302940Y768945D01*
X302859Y768902D01*
X302775Y768866D01*
X302743Y768840D01*
X302722Y768829D01*
X302700Y768806D01*
X302644Y768761D01*
X286681Y752798D01*
X286628Y752724D01*
X286568Y752654D01*
X286556Y752624D01*
X286537Y752598D01*
X286510Y752511D01*
X286476Y752426D01*
X286472Y752385D01*
X286465Y752363D01*
X286466Y752331D01*
X286458Y752259D01*
X286458Y741652D01*
X285565Y740759D01*
X272301Y740759D01*
X271408Y741652D01*
X271408Y745236D01*
X271405Y745256D01*
X271407Y745275D01*
X271385Y745377D01*
X271369Y745479D01*
X271359Y745496D01*
X271355Y745516D01*
X271302Y745605D01*
X271253Y745696D01*
X271239Y745710D01*
X271229Y745727D01*
X271150Y745794D01*
X271075Y745866D01*
X271057Y745874D01*
X271042Y745887D01*
X270946Y745926D01*
X270852Y745969D01*
X270832Y745971D01*
X270814Y745979D01*
X270647Y745997D01*
X256919Y745997D01*
X256899Y745994D01*
X256880Y745996D01*
X256778Y745974D01*
X256676Y745958D01*
X256659Y745948D01*
X256639Y745944D01*
X256550Y745891D01*
X256459Y745842D01*
X256445Y745828D01*
X256428Y745818D01*
X256361Y745739D01*
X256289Y745664D01*
X256281Y745646D01*
X256268Y745631D01*
X256229Y745535D01*
X256186Y745441D01*
X256184Y745421D01*
X256176Y745403D01*
X256158Y745236D01*
X256158Y740152D01*
X255265Y739259D01*
X241001Y739259D01*
G37*
%LPD*%
%LPC*%
G36*
X222509Y353179D02*
X222509Y353179D01*
X221616Y354072D01*
X221616Y359156D01*
X221613Y359176D01*
X221615Y359195D01*
X221593Y359297D01*
X221577Y359399D01*
X221567Y359416D01*
X221563Y359436D01*
X221510Y359525D01*
X221461Y359616D01*
X221447Y359630D01*
X221437Y359647D01*
X221358Y359714D01*
X221283Y359786D01*
X221265Y359794D01*
X221250Y359807D01*
X221154Y359846D01*
X221060Y359889D01*
X221040Y359891D01*
X221022Y359899D01*
X220855Y359917D01*
X147694Y359917D01*
X146131Y361480D01*
X102010Y405601D01*
X101916Y405669D01*
X101821Y405739D01*
X101815Y405741D01*
X101810Y405745D01*
X101699Y405779D01*
X101587Y405815D01*
X101581Y405815D01*
X101575Y405817D01*
X101458Y405814D01*
X101341Y405813D01*
X101334Y405811D01*
X101329Y405811D01*
X101312Y405804D01*
X101180Y405766D01*
X99425Y405039D01*
X96257Y405039D01*
X93329Y406252D01*
X91089Y408492D01*
X89876Y411420D01*
X89876Y414588D01*
X91089Y417516D01*
X93329Y419756D01*
X96257Y420969D01*
X99425Y420969D01*
X102353Y419756D01*
X104593Y417516D01*
X105806Y414588D01*
X105806Y411420D01*
X105079Y409665D01*
X105052Y409551D01*
X105024Y409438D01*
X105024Y409431D01*
X105023Y409425D01*
X105034Y409309D01*
X105043Y409192D01*
X105045Y409187D01*
X105046Y409180D01*
X105094Y409073D01*
X105139Y408966D01*
X105144Y408960D01*
X105146Y408956D01*
X105158Y408942D01*
X105244Y408835D01*
X149365Y364714D01*
X149439Y364661D01*
X149509Y364601D01*
X149539Y364589D01*
X149565Y364570D01*
X149652Y364543D01*
X149737Y364509D01*
X149778Y364505D01*
X149800Y364498D01*
X149832Y364499D01*
X149904Y364491D01*
X220855Y364491D01*
X220875Y364494D01*
X220894Y364492D01*
X220996Y364514D01*
X221098Y364530D01*
X221115Y364540D01*
X221135Y364544D01*
X221224Y364597D01*
X221315Y364646D01*
X221329Y364660D01*
X221346Y364670D01*
X221413Y364749D01*
X221485Y364824D01*
X221493Y364842D01*
X221506Y364857D01*
X221545Y364953D01*
X221588Y365047D01*
X221590Y365067D01*
X221598Y365085D01*
X221616Y365252D01*
X221616Y370336D01*
X222509Y371229D01*
X236773Y371229D01*
X237666Y370336D01*
X237666Y354072D01*
X236773Y353179D01*
X222509Y353179D01*
G37*
%LPD*%
%LPC*%
G36*
X222001Y586859D02*
X222001Y586859D01*
X221108Y587752D01*
X221108Y592836D01*
X221105Y592856D01*
X221107Y592875D01*
X221085Y592977D01*
X221069Y593079D01*
X221059Y593096D01*
X221055Y593116D01*
X221002Y593205D01*
X220953Y593296D01*
X220939Y593310D01*
X220929Y593327D01*
X220850Y593394D01*
X220775Y593466D01*
X220757Y593474D01*
X220742Y593487D01*
X220646Y593526D01*
X220552Y593569D01*
X220532Y593571D01*
X220514Y593579D01*
X220347Y593597D01*
X185459Y593597D01*
X185439Y593594D01*
X185420Y593596D01*
X185318Y593574D01*
X185216Y593558D01*
X185199Y593548D01*
X185179Y593544D01*
X185090Y593491D01*
X184999Y593442D01*
X184985Y593428D01*
X184968Y593418D01*
X184901Y593339D01*
X184829Y593264D01*
X184821Y593246D01*
X184808Y593231D01*
X184769Y593135D01*
X184726Y593041D01*
X184724Y593021D01*
X184716Y593003D01*
X184698Y592836D01*
X184698Y588812D01*
X183805Y587919D01*
X169661Y587919D01*
X168768Y588812D01*
X168768Y602956D01*
X169661Y603849D01*
X183805Y603849D01*
X184698Y602956D01*
X184698Y598932D01*
X184701Y598912D01*
X184699Y598893D01*
X184721Y598791D01*
X184737Y598689D01*
X184747Y598672D01*
X184751Y598652D01*
X184804Y598563D01*
X184853Y598472D01*
X184867Y598458D01*
X184877Y598441D01*
X184956Y598374D01*
X185031Y598302D01*
X185049Y598294D01*
X185064Y598281D01*
X185160Y598242D01*
X185254Y598199D01*
X185274Y598197D01*
X185292Y598189D01*
X185459Y598171D01*
X220347Y598171D01*
X220367Y598174D01*
X220386Y598172D01*
X220488Y598194D01*
X220590Y598210D01*
X220607Y598220D01*
X220627Y598224D01*
X220716Y598277D01*
X220807Y598326D01*
X220821Y598340D01*
X220838Y598350D01*
X220905Y598429D01*
X220977Y598504D01*
X220985Y598522D01*
X220998Y598537D01*
X221037Y598633D01*
X221080Y598727D01*
X221082Y598747D01*
X221090Y598765D01*
X221108Y598932D01*
X221108Y604016D01*
X222001Y604909D01*
X236265Y604909D01*
X237158Y604016D01*
X237158Y587752D01*
X236265Y586859D01*
X222001Y586859D01*
G37*
%LPD*%
%LPC*%
G36*
X222509Y378579D02*
X222509Y378579D01*
X221616Y379472D01*
X221616Y384556D01*
X221613Y384576D01*
X221615Y384595D01*
X221593Y384697D01*
X221577Y384799D01*
X221567Y384816D01*
X221563Y384836D01*
X221510Y384925D01*
X221461Y385016D01*
X221447Y385030D01*
X221437Y385047D01*
X221358Y385114D01*
X221283Y385186D01*
X221265Y385194D01*
X221250Y385207D01*
X221154Y385246D01*
X221060Y385289D01*
X221040Y385291D01*
X221022Y385299D01*
X220855Y385317D01*
X185967Y385317D01*
X185947Y385314D01*
X185928Y385316D01*
X185826Y385294D01*
X185724Y385278D01*
X185707Y385268D01*
X185687Y385264D01*
X185598Y385211D01*
X185507Y385162D01*
X185493Y385148D01*
X185476Y385138D01*
X185409Y385059D01*
X185337Y384984D01*
X185329Y384966D01*
X185316Y384951D01*
X185277Y384855D01*
X185234Y384761D01*
X185232Y384741D01*
X185224Y384723D01*
X185206Y384556D01*
X185206Y380532D01*
X184313Y379639D01*
X170169Y379639D01*
X169276Y380532D01*
X169276Y394676D01*
X170169Y395569D01*
X184313Y395569D01*
X185206Y394676D01*
X185206Y390652D01*
X185209Y390632D01*
X185207Y390613D01*
X185229Y390511D01*
X185245Y390409D01*
X185255Y390392D01*
X185259Y390372D01*
X185312Y390283D01*
X185361Y390192D01*
X185375Y390178D01*
X185385Y390161D01*
X185464Y390094D01*
X185539Y390022D01*
X185557Y390014D01*
X185572Y390001D01*
X185668Y389962D01*
X185762Y389919D01*
X185782Y389917D01*
X185800Y389909D01*
X185967Y389891D01*
X220855Y389891D01*
X220875Y389894D01*
X220894Y389892D01*
X220996Y389914D01*
X221098Y389930D01*
X221115Y389940D01*
X221135Y389944D01*
X221224Y389997D01*
X221315Y390046D01*
X221329Y390060D01*
X221346Y390070D01*
X221413Y390149D01*
X221485Y390224D01*
X221493Y390242D01*
X221506Y390257D01*
X221545Y390353D01*
X221588Y390447D01*
X221590Y390467D01*
X221598Y390485D01*
X221616Y390652D01*
X221616Y395736D01*
X222509Y396629D01*
X236773Y396629D01*
X237666Y395736D01*
X237666Y379472D01*
X236773Y378579D01*
X222509Y378579D01*
G37*
%LPD*%
%LPC*%
G36*
X222509Y454779D02*
X222509Y454779D01*
X221616Y455672D01*
X221616Y460756D01*
X221613Y460776D01*
X221615Y460795D01*
X221593Y460897D01*
X221577Y460999D01*
X221567Y461016D01*
X221563Y461036D01*
X221510Y461125D01*
X221461Y461216D01*
X221447Y461230D01*
X221437Y461247D01*
X221358Y461314D01*
X221283Y461386D01*
X221265Y461394D01*
X221250Y461407D01*
X221154Y461446D01*
X221060Y461489D01*
X221040Y461491D01*
X221022Y461499D01*
X220855Y461517D01*
X185423Y461517D01*
X185309Y461498D01*
X185192Y461481D01*
X185187Y461479D01*
X185181Y461478D01*
X185078Y461423D01*
X184973Y461370D01*
X184969Y461365D01*
X184963Y461362D01*
X184883Y461278D01*
X184801Y461194D01*
X184797Y461188D01*
X184794Y461184D01*
X184786Y461167D01*
X184720Y461047D01*
X183993Y459292D01*
X181753Y457052D01*
X178825Y455839D01*
X175657Y455839D01*
X172729Y457052D01*
X170489Y459292D01*
X169276Y462220D01*
X169276Y465388D01*
X170489Y468316D01*
X172729Y470556D01*
X175657Y471769D01*
X178825Y471769D01*
X181753Y470556D01*
X183993Y468316D01*
X184720Y466561D01*
X184782Y466461D01*
X184842Y466361D01*
X184846Y466357D01*
X184850Y466352D01*
X184940Y466277D01*
X185029Y466201D01*
X185034Y466199D01*
X185039Y466195D01*
X185148Y466153D01*
X185257Y466109D01*
X185264Y466108D01*
X185269Y466107D01*
X185287Y466106D01*
X185423Y466091D01*
X220855Y466091D01*
X220875Y466094D01*
X220894Y466092D01*
X220996Y466114D01*
X221098Y466130D01*
X221115Y466140D01*
X221135Y466144D01*
X221224Y466197D01*
X221315Y466246D01*
X221329Y466260D01*
X221346Y466270D01*
X221413Y466349D01*
X221485Y466424D01*
X221493Y466442D01*
X221506Y466457D01*
X221544Y466553D01*
X221588Y466647D01*
X221590Y466667D01*
X221598Y466685D01*
X221616Y466852D01*
X221616Y471936D01*
X222509Y472829D01*
X236773Y472829D01*
X237666Y471936D01*
X237666Y455672D01*
X236773Y454779D01*
X222509Y454779D01*
G37*
%LPD*%
%LPC*%
G36*
X222001Y739259D02*
X222001Y739259D01*
X221108Y740152D01*
X221108Y745236D01*
X221105Y745256D01*
X221107Y745275D01*
X221085Y745377D01*
X221069Y745479D01*
X221059Y745496D01*
X221055Y745516D01*
X221002Y745605D01*
X220953Y745696D01*
X220939Y745710D01*
X220929Y745727D01*
X220850Y745794D01*
X220775Y745866D01*
X220757Y745874D01*
X220742Y745887D01*
X220646Y745926D01*
X220552Y745969D01*
X220532Y745971D01*
X220514Y745979D01*
X220347Y745997D01*
X184915Y745997D01*
X184801Y745978D01*
X184684Y745961D01*
X184679Y745959D01*
X184673Y745958D01*
X184570Y745903D01*
X184465Y745850D01*
X184461Y745845D01*
X184455Y745842D01*
X184375Y745758D01*
X184293Y745674D01*
X184289Y745668D01*
X184286Y745664D01*
X184278Y745647D01*
X184212Y745527D01*
X183485Y743772D01*
X181245Y741532D01*
X178317Y740319D01*
X175149Y740319D01*
X172221Y741532D01*
X169981Y743772D01*
X168768Y746700D01*
X168768Y749868D01*
X169981Y752796D01*
X172221Y755036D01*
X175149Y756249D01*
X178317Y756249D01*
X181245Y755036D01*
X183485Y752796D01*
X184212Y751041D01*
X184274Y750941D01*
X184334Y750841D01*
X184338Y750837D01*
X184342Y750832D01*
X184432Y750757D01*
X184521Y750681D01*
X184526Y750679D01*
X184531Y750675D01*
X184640Y750633D01*
X184749Y750589D01*
X184756Y750588D01*
X184761Y750587D01*
X184779Y750586D01*
X184915Y750571D01*
X220347Y750571D01*
X220367Y750574D01*
X220386Y750572D01*
X220488Y750594D01*
X220590Y750610D01*
X220607Y750620D01*
X220627Y750624D01*
X220716Y750677D01*
X220807Y750726D01*
X220821Y750740D01*
X220838Y750750D01*
X220905Y750829D01*
X220977Y750904D01*
X220985Y750922D01*
X220998Y750937D01*
X221037Y751033D01*
X221080Y751127D01*
X221082Y751147D01*
X221090Y751165D01*
X221108Y751332D01*
X221108Y756416D01*
X222001Y757309D01*
X236265Y757309D01*
X237158Y756416D01*
X237158Y740152D01*
X236265Y739259D01*
X222001Y739259D01*
G37*
%LPD*%
%LPC*%
G36*
X222509Y530979D02*
X222509Y530979D01*
X221616Y531872D01*
X221616Y536956D01*
X221613Y536976D01*
X221615Y536995D01*
X221593Y537097D01*
X221577Y537199D01*
X221567Y537216D01*
X221563Y537236D01*
X221510Y537325D01*
X221461Y537416D01*
X221447Y537430D01*
X221437Y537447D01*
X221358Y537514D01*
X221283Y537586D01*
X221265Y537594D01*
X221250Y537607D01*
X221154Y537646D01*
X221060Y537689D01*
X221040Y537691D01*
X221022Y537699D01*
X220855Y537717D01*
X185423Y537717D01*
X185309Y537698D01*
X185192Y537681D01*
X185187Y537679D01*
X185181Y537678D01*
X185078Y537623D01*
X184973Y537570D01*
X184969Y537565D01*
X184963Y537562D01*
X184883Y537478D01*
X184801Y537394D01*
X184797Y537388D01*
X184794Y537384D01*
X184786Y537367D01*
X184720Y537247D01*
X183993Y535492D01*
X181753Y533252D01*
X178825Y532039D01*
X175657Y532039D01*
X172729Y533252D01*
X170489Y535492D01*
X169276Y538420D01*
X169276Y541588D01*
X170489Y544516D01*
X172729Y546756D01*
X175657Y547969D01*
X178825Y547969D01*
X181753Y546756D01*
X183993Y544516D01*
X184720Y542761D01*
X184782Y542661D01*
X184842Y542561D01*
X184846Y542557D01*
X184850Y542552D01*
X184940Y542477D01*
X185029Y542401D01*
X185034Y542399D01*
X185039Y542395D01*
X185148Y542353D01*
X185257Y542309D01*
X185264Y542308D01*
X185269Y542307D01*
X185287Y542306D01*
X185423Y542291D01*
X220855Y542291D01*
X220875Y542294D01*
X220894Y542292D01*
X220996Y542314D01*
X221098Y542330D01*
X221115Y542340D01*
X221135Y542344D01*
X221224Y542397D01*
X221315Y542446D01*
X221329Y542460D01*
X221346Y542470D01*
X221413Y542549D01*
X221485Y542624D01*
X221493Y542642D01*
X221506Y542657D01*
X221545Y542753D01*
X221588Y542847D01*
X221590Y542867D01*
X221598Y542885D01*
X221616Y543052D01*
X221616Y548136D01*
X222509Y549029D01*
X236773Y549029D01*
X237666Y548136D01*
X237666Y531872D01*
X236773Y530979D01*
X222509Y530979D01*
G37*
%LPD*%
%LPC*%
G36*
X222509Y429379D02*
X222509Y429379D01*
X221616Y430272D01*
X221616Y435356D01*
X221613Y435376D01*
X221615Y435395D01*
X221593Y435497D01*
X221577Y435599D01*
X221567Y435616D01*
X221563Y435636D01*
X221510Y435725D01*
X221461Y435816D01*
X221447Y435830D01*
X221437Y435847D01*
X221358Y435914D01*
X221283Y435986D01*
X221265Y435994D01*
X221250Y436007D01*
X221154Y436046D01*
X221060Y436089D01*
X221040Y436091D01*
X221022Y436099D01*
X220855Y436117D01*
X185423Y436117D01*
X185309Y436098D01*
X185192Y436081D01*
X185187Y436079D01*
X185181Y436078D01*
X185078Y436023D01*
X184973Y435970D01*
X184969Y435965D01*
X184963Y435962D01*
X184883Y435878D01*
X184801Y435794D01*
X184797Y435788D01*
X184794Y435784D01*
X184786Y435767D01*
X184720Y435647D01*
X183993Y433892D01*
X181753Y431652D01*
X178825Y430439D01*
X175657Y430439D01*
X172729Y431652D01*
X170489Y433892D01*
X169276Y436820D01*
X169276Y439988D01*
X170489Y442916D01*
X172729Y445156D01*
X175657Y446369D01*
X178825Y446369D01*
X181753Y445156D01*
X183993Y442916D01*
X184720Y441161D01*
X184782Y441061D01*
X184842Y440961D01*
X184846Y440957D01*
X184850Y440952D01*
X184940Y440877D01*
X185029Y440801D01*
X185034Y440799D01*
X185039Y440795D01*
X185148Y440753D01*
X185257Y440709D01*
X185264Y440708D01*
X185269Y440707D01*
X185287Y440706D01*
X185423Y440691D01*
X220855Y440691D01*
X220875Y440694D01*
X220894Y440692D01*
X220996Y440714D01*
X221098Y440730D01*
X221115Y440740D01*
X221135Y440744D01*
X221224Y440797D01*
X221315Y440846D01*
X221329Y440860D01*
X221346Y440870D01*
X221413Y440949D01*
X221485Y441024D01*
X221493Y441042D01*
X221506Y441057D01*
X221545Y441153D01*
X221588Y441247D01*
X221590Y441267D01*
X221598Y441285D01*
X221616Y441452D01*
X221616Y446536D01*
X222509Y447429D01*
X236773Y447429D01*
X237666Y446536D01*
X237666Y430272D01*
X236773Y429379D01*
X222509Y429379D01*
G37*
%LPD*%
%LPC*%
G36*
X222509Y403979D02*
X222509Y403979D01*
X221616Y404872D01*
X221616Y409956D01*
X221613Y409976D01*
X221615Y409995D01*
X221593Y410097D01*
X221577Y410199D01*
X221567Y410216D01*
X221563Y410236D01*
X221510Y410325D01*
X221461Y410416D01*
X221447Y410430D01*
X221437Y410447D01*
X221358Y410514D01*
X221283Y410586D01*
X221265Y410594D01*
X221250Y410607D01*
X221154Y410646D01*
X221060Y410689D01*
X221040Y410691D01*
X221022Y410699D01*
X220855Y410717D01*
X185423Y410717D01*
X185309Y410698D01*
X185192Y410681D01*
X185187Y410679D01*
X185181Y410678D01*
X185078Y410623D01*
X184973Y410570D01*
X184969Y410565D01*
X184963Y410562D01*
X184883Y410478D01*
X184801Y410394D01*
X184797Y410388D01*
X184794Y410384D01*
X184786Y410367D01*
X184720Y410247D01*
X183993Y408492D01*
X181753Y406252D01*
X178825Y405039D01*
X175657Y405039D01*
X172729Y406252D01*
X170489Y408492D01*
X169276Y411420D01*
X169276Y414588D01*
X170489Y417516D01*
X172729Y419756D01*
X175657Y420969D01*
X178825Y420969D01*
X181753Y419756D01*
X183993Y417516D01*
X184720Y415761D01*
X184782Y415661D01*
X184842Y415561D01*
X184846Y415557D01*
X184850Y415552D01*
X184940Y415477D01*
X185029Y415401D01*
X185034Y415399D01*
X185039Y415395D01*
X185148Y415353D01*
X185257Y415309D01*
X185264Y415308D01*
X185269Y415307D01*
X185287Y415306D01*
X185423Y415291D01*
X220855Y415291D01*
X220875Y415294D01*
X220894Y415292D01*
X220996Y415314D01*
X221098Y415330D01*
X221115Y415340D01*
X221135Y415344D01*
X221224Y415397D01*
X221315Y415446D01*
X221329Y415460D01*
X221346Y415470D01*
X221413Y415549D01*
X221485Y415624D01*
X221493Y415642D01*
X221506Y415657D01*
X221545Y415753D01*
X221588Y415847D01*
X221590Y415867D01*
X221598Y415885D01*
X221616Y416052D01*
X221616Y421136D01*
X222509Y422029D01*
X236773Y422029D01*
X237666Y421136D01*
X237666Y404872D01*
X236773Y403979D01*
X222509Y403979D01*
G37*
%LPD*%
%LPC*%
G36*
X222001Y637659D02*
X222001Y637659D01*
X221108Y638552D01*
X221108Y643636D01*
X221105Y643656D01*
X221107Y643675D01*
X221085Y643777D01*
X221069Y643879D01*
X221059Y643896D01*
X221055Y643916D01*
X221002Y644005D01*
X220953Y644096D01*
X220939Y644110D01*
X220929Y644127D01*
X220850Y644194D01*
X220775Y644266D01*
X220757Y644274D01*
X220742Y644287D01*
X220646Y644326D01*
X220552Y644369D01*
X220532Y644371D01*
X220514Y644379D01*
X220347Y644397D01*
X184915Y644397D01*
X184801Y644378D01*
X184684Y644361D01*
X184679Y644359D01*
X184673Y644358D01*
X184570Y644303D01*
X184465Y644250D01*
X184461Y644245D01*
X184455Y644242D01*
X184375Y644158D01*
X184293Y644074D01*
X184289Y644068D01*
X184286Y644064D01*
X184278Y644047D01*
X184212Y643927D01*
X183485Y642172D01*
X181245Y639932D01*
X178317Y638719D01*
X175149Y638719D01*
X172221Y639932D01*
X169981Y642172D01*
X168768Y645100D01*
X168768Y648268D01*
X169981Y651196D01*
X172221Y653436D01*
X175149Y654649D01*
X178317Y654649D01*
X181245Y653436D01*
X183485Y651196D01*
X184212Y649441D01*
X184274Y649341D01*
X184334Y649241D01*
X184338Y649237D01*
X184342Y649232D01*
X184432Y649157D01*
X184521Y649081D01*
X184526Y649079D01*
X184531Y649075D01*
X184640Y649033D01*
X184749Y648989D01*
X184756Y648988D01*
X184761Y648987D01*
X184779Y648986D01*
X184915Y648971D01*
X220347Y648971D01*
X220367Y648974D01*
X220386Y648972D01*
X220488Y648994D01*
X220590Y649010D01*
X220607Y649020D01*
X220627Y649024D01*
X220716Y649077D01*
X220807Y649126D01*
X220821Y649140D01*
X220838Y649150D01*
X220905Y649229D01*
X220977Y649304D01*
X220985Y649322D01*
X220998Y649337D01*
X221037Y649433D01*
X221080Y649527D01*
X221082Y649547D01*
X221090Y649565D01*
X221108Y649732D01*
X221108Y654816D01*
X222001Y655709D01*
X236265Y655709D01*
X237158Y654816D01*
X237158Y638552D01*
X236265Y637659D01*
X222001Y637659D01*
G37*
%LPD*%
%LPC*%
G36*
X222001Y713859D02*
X222001Y713859D01*
X221108Y714752D01*
X221108Y719836D01*
X221105Y719856D01*
X221107Y719875D01*
X221085Y719977D01*
X221069Y720079D01*
X221059Y720096D01*
X221055Y720116D01*
X221002Y720205D01*
X220953Y720296D01*
X220939Y720310D01*
X220929Y720327D01*
X220850Y720394D01*
X220775Y720466D01*
X220757Y720474D01*
X220742Y720487D01*
X220646Y720526D01*
X220552Y720569D01*
X220532Y720571D01*
X220514Y720579D01*
X220347Y720597D01*
X184915Y720597D01*
X184801Y720578D01*
X184684Y720561D01*
X184679Y720559D01*
X184673Y720558D01*
X184570Y720503D01*
X184465Y720450D01*
X184461Y720445D01*
X184455Y720442D01*
X184375Y720358D01*
X184293Y720274D01*
X184289Y720268D01*
X184286Y720264D01*
X184278Y720247D01*
X184212Y720127D01*
X183485Y718372D01*
X181245Y716132D01*
X178317Y714919D01*
X175149Y714919D01*
X172221Y716132D01*
X169981Y718372D01*
X168768Y721300D01*
X168768Y724468D01*
X169981Y727396D01*
X172221Y729636D01*
X175149Y730849D01*
X178317Y730849D01*
X181245Y729636D01*
X183485Y727396D01*
X184212Y725641D01*
X184274Y725541D01*
X184334Y725441D01*
X184338Y725437D01*
X184342Y725432D01*
X184432Y725357D01*
X184521Y725281D01*
X184526Y725279D01*
X184531Y725275D01*
X184640Y725233D01*
X184749Y725189D01*
X184756Y725188D01*
X184761Y725187D01*
X184779Y725186D01*
X184915Y725171D01*
X220347Y725171D01*
X220367Y725174D01*
X220386Y725172D01*
X220488Y725194D01*
X220590Y725210D01*
X220607Y725220D01*
X220627Y725224D01*
X220716Y725277D01*
X220807Y725326D01*
X220821Y725340D01*
X220838Y725350D01*
X220905Y725429D01*
X220977Y725504D01*
X220985Y725522D01*
X220998Y725537D01*
X221037Y725633D01*
X221080Y725727D01*
X221082Y725747D01*
X221090Y725765D01*
X221108Y725932D01*
X221108Y731016D01*
X222001Y731909D01*
X236265Y731909D01*
X237158Y731016D01*
X237158Y714752D01*
X236265Y713859D01*
X222001Y713859D01*
G37*
%LPD*%
%LPC*%
G36*
X222509Y505579D02*
X222509Y505579D01*
X221616Y506472D01*
X221616Y511556D01*
X221613Y511576D01*
X221615Y511595D01*
X221593Y511697D01*
X221577Y511799D01*
X221567Y511816D01*
X221563Y511836D01*
X221510Y511925D01*
X221461Y512016D01*
X221447Y512030D01*
X221437Y512047D01*
X221358Y512114D01*
X221283Y512186D01*
X221265Y512194D01*
X221250Y512207D01*
X221154Y512246D01*
X221060Y512289D01*
X221040Y512291D01*
X221022Y512299D01*
X220855Y512317D01*
X185423Y512317D01*
X185309Y512298D01*
X185192Y512281D01*
X185187Y512279D01*
X185181Y512278D01*
X185078Y512223D01*
X184973Y512170D01*
X184969Y512165D01*
X184963Y512162D01*
X184883Y512078D01*
X184801Y511994D01*
X184797Y511988D01*
X184794Y511984D01*
X184786Y511967D01*
X184720Y511847D01*
X183993Y510092D01*
X181753Y507852D01*
X178825Y506639D01*
X175657Y506639D01*
X172729Y507852D01*
X170489Y510092D01*
X169276Y513020D01*
X169276Y516188D01*
X170489Y519116D01*
X172729Y521356D01*
X175657Y522569D01*
X178825Y522569D01*
X181753Y521356D01*
X183993Y519116D01*
X184720Y517361D01*
X184782Y517261D01*
X184842Y517161D01*
X184846Y517157D01*
X184850Y517152D01*
X184940Y517077D01*
X185029Y517001D01*
X185034Y516999D01*
X185039Y516995D01*
X185148Y516953D01*
X185257Y516909D01*
X185264Y516908D01*
X185269Y516907D01*
X185287Y516906D01*
X185423Y516891D01*
X220855Y516891D01*
X220875Y516894D01*
X220894Y516892D01*
X220996Y516914D01*
X221098Y516930D01*
X221115Y516940D01*
X221135Y516944D01*
X221224Y516997D01*
X221315Y517046D01*
X221329Y517060D01*
X221346Y517070D01*
X221413Y517149D01*
X221485Y517224D01*
X221493Y517242D01*
X221506Y517257D01*
X221545Y517353D01*
X221588Y517447D01*
X221590Y517467D01*
X221598Y517485D01*
X221616Y517652D01*
X221616Y522736D01*
X222509Y523629D01*
X236773Y523629D01*
X237666Y522736D01*
X237666Y506472D01*
X236773Y505579D01*
X222509Y505579D01*
G37*
%LPD*%
%LPC*%
G36*
X222001Y688459D02*
X222001Y688459D01*
X221108Y689352D01*
X221108Y694436D01*
X221105Y694456D01*
X221107Y694475D01*
X221085Y694577D01*
X221069Y694679D01*
X221059Y694696D01*
X221055Y694716D01*
X221002Y694805D01*
X220953Y694896D01*
X220939Y694910D01*
X220929Y694927D01*
X220850Y694994D01*
X220775Y695066D01*
X220757Y695074D01*
X220742Y695087D01*
X220646Y695126D01*
X220552Y695169D01*
X220532Y695171D01*
X220514Y695179D01*
X220347Y695197D01*
X184915Y695197D01*
X184801Y695178D01*
X184684Y695161D01*
X184679Y695159D01*
X184673Y695158D01*
X184570Y695103D01*
X184465Y695050D01*
X184461Y695045D01*
X184455Y695042D01*
X184375Y694958D01*
X184293Y694874D01*
X184289Y694868D01*
X184286Y694864D01*
X184278Y694847D01*
X184212Y694727D01*
X183485Y692972D01*
X181245Y690732D01*
X178317Y689519D01*
X175149Y689519D01*
X172221Y690732D01*
X169981Y692972D01*
X168768Y695900D01*
X168768Y699068D01*
X169981Y701996D01*
X172221Y704236D01*
X175149Y705449D01*
X178317Y705449D01*
X181245Y704236D01*
X183485Y701996D01*
X184212Y700241D01*
X184274Y700141D01*
X184334Y700041D01*
X184338Y700037D01*
X184342Y700032D01*
X184432Y699957D01*
X184521Y699881D01*
X184526Y699879D01*
X184531Y699875D01*
X184640Y699833D01*
X184749Y699789D01*
X184756Y699788D01*
X184761Y699787D01*
X184779Y699786D01*
X184915Y699771D01*
X220347Y699771D01*
X220367Y699774D01*
X220386Y699772D01*
X220488Y699794D01*
X220590Y699810D01*
X220607Y699820D01*
X220627Y699824D01*
X220716Y699877D01*
X220807Y699926D01*
X220821Y699940D01*
X220838Y699950D01*
X220905Y700029D01*
X220977Y700104D01*
X220985Y700122D01*
X220998Y700137D01*
X221037Y700233D01*
X221080Y700327D01*
X221082Y700347D01*
X221090Y700365D01*
X221108Y700532D01*
X221108Y705616D01*
X222001Y706509D01*
X236265Y706509D01*
X237158Y705616D01*
X237158Y689352D01*
X236265Y688459D01*
X222001Y688459D01*
G37*
%LPD*%
%LPC*%
G36*
X222001Y663059D02*
X222001Y663059D01*
X221108Y663952D01*
X221108Y669036D01*
X221105Y669056D01*
X221107Y669075D01*
X221085Y669177D01*
X221069Y669279D01*
X221059Y669296D01*
X221055Y669316D01*
X221002Y669405D01*
X220953Y669496D01*
X220939Y669510D01*
X220929Y669527D01*
X220850Y669594D01*
X220775Y669666D01*
X220757Y669674D01*
X220742Y669687D01*
X220646Y669726D01*
X220552Y669769D01*
X220532Y669771D01*
X220514Y669779D01*
X220347Y669797D01*
X184915Y669797D01*
X184801Y669778D01*
X184684Y669761D01*
X184679Y669759D01*
X184673Y669758D01*
X184570Y669703D01*
X184465Y669650D01*
X184461Y669645D01*
X184455Y669642D01*
X184375Y669558D01*
X184293Y669474D01*
X184289Y669468D01*
X184286Y669464D01*
X184278Y669447D01*
X184212Y669327D01*
X183485Y667572D01*
X181245Y665332D01*
X178317Y664119D01*
X175149Y664119D01*
X172221Y665332D01*
X169981Y667572D01*
X168768Y670500D01*
X168768Y673668D01*
X169981Y676596D01*
X172221Y678836D01*
X175149Y680049D01*
X178317Y680049D01*
X181245Y678836D01*
X183485Y676596D01*
X184212Y674841D01*
X184274Y674741D01*
X184334Y674641D01*
X184338Y674637D01*
X184342Y674632D01*
X184432Y674557D01*
X184521Y674481D01*
X184526Y674479D01*
X184531Y674475D01*
X184640Y674433D01*
X184749Y674389D01*
X184756Y674388D01*
X184761Y674387D01*
X184779Y674386D01*
X184915Y674371D01*
X220347Y674371D01*
X220367Y674374D01*
X220386Y674372D01*
X220488Y674394D01*
X220590Y674410D01*
X220607Y674420D01*
X220627Y674424D01*
X220716Y674477D01*
X220807Y674526D01*
X220821Y674540D01*
X220838Y674550D01*
X220905Y674629D01*
X220977Y674704D01*
X220985Y674722D01*
X220998Y674737D01*
X221037Y674833D01*
X221080Y674927D01*
X221082Y674947D01*
X221090Y674965D01*
X221108Y675132D01*
X221108Y680216D01*
X222001Y681109D01*
X236265Y681109D01*
X237158Y680216D01*
X237158Y663952D01*
X236265Y663059D01*
X222001Y663059D01*
G37*
%LPD*%
%LPC*%
G36*
X222001Y612259D02*
X222001Y612259D01*
X221108Y613152D01*
X221108Y618236D01*
X221105Y618256D01*
X221107Y618275D01*
X221085Y618377D01*
X221069Y618479D01*
X221059Y618496D01*
X221055Y618516D01*
X221002Y618605D01*
X220953Y618696D01*
X220939Y618710D01*
X220929Y618727D01*
X220850Y618794D01*
X220775Y618866D01*
X220757Y618874D01*
X220742Y618887D01*
X220646Y618926D01*
X220552Y618969D01*
X220532Y618971D01*
X220514Y618979D01*
X220347Y618997D01*
X184915Y618997D01*
X184801Y618978D01*
X184684Y618961D01*
X184679Y618959D01*
X184673Y618958D01*
X184570Y618903D01*
X184465Y618850D01*
X184461Y618845D01*
X184455Y618842D01*
X184375Y618758D01*
X184293Y618674D01*
X184289Y618668D01*
X184286Y618664D01*
X184278Y618647D01*
X184212Y618527D01*
X183485Y616772D01*
X181245Y614532D01*
X178317Y613319D01*
X175149Y613319D01*
X172221Y614532D01*
X169981Y616772D01*
X168768Y619700D01*
X168768Y622868D01*
X169981Y625796D01*
X172221Y628036D01*
X175149Y629249D01*
X178317Y629249D01*
X181245Y628036D01*
X183485Y625796D01*
X184212Y624041D01*
X184274Y623941D01*
X184334Y623841D01*
X184338Y623837D01*
X184342Y623832D01*
X184432Y623757D01*
X184521Y623681D01*
X184526Y623679D01*
X184531Y623675D01*
X184640Y623633D01*
X184749Y623589D01*
X184756Y623588D01*
X184761Y623587D01*
X184779Y623586D01*
X184915Y623571D01*
X220347Y623571D01*
X220367Y623574D01*
X220386Y623572D01*
X220488Y623594D01*
X220590Y623610D01*
X220607Y623620D01*
X220627Y623624D01*
X220716Y623677D01*
X220807Y623726D01*
X220821Y623740D01*
X220838Y623750D01*
X220905Y623829D01*
X220977Y623904D01*
X220985Y623922D01*
X220998Y623937D01*
X221037Y624033D01*
X221080Y624127D01*
X221082Y624147D01*
X221090Y624165D01*
X221108Y624332D01*
X221108Y629416D01*
X222001Y630309D01*
X236265Y630309D01*
X237158Y629416D01*
X237158Y613152D01*
X236265Y612259D01*
X222001Y612259D01*
G37*
%LPD*%
%LPC*%
G36*
X222509Y480179D02*
X222509Y480179D01*
X221616Y481072D01*
X221616Y486156D01*
X221614Y486169D01*
X221615Y486180D01*
X221614Y486185D01*
X221615Y486195D01*
X221593Y486297D01*
X221577Y486399D01*
X221567Y486416D01*
X221563Y486436D01*
X221510Y486525D01*
X221461Y486616D01*
X221447Y486630D01*
X221437Y486647D01*
X221358Y486714D01*
X221283Y486786D01*
X221265Y486794D01*
X221250Y486807D01*
X221154Y486846D01*
X221060Y486889D01*
X221040Y486891D01*
X221022Y486899D01*
X220855Y486917D01*
X185423Y486917D01*
X185309Y486898D01*
X185192Y486881D01*
X185187Y486879D01*
X185181Y486878D01*
X185078Y486823D01*
X184973Y486770D01*
X184969Y486765D01*
X184963Y486762D01*
X184883Y486678D01*
X184801Y486594D01*
X184797Y486588D01*
X184794Y486584D01*
X184786Y486567D01*
X184720Y486447D01*
X183993Y484692D01*
X181753Y482452D01*
X178825Y481239D01*
X175657Y481239D01*
X172729Y482452D01*
X170489Y484692D01*
X169276Y487620D01*
X169276Y490788D01*
X170489Y493716D01*
X172729Y495956D01*
X175657Y497169D01*
X178825Y497169D01*
X181753Y495956D01*
X183993Y493716D01*
X184720Y491961D01*
X184782Y491861D01*
X184842Y491761D01*
X184846Y491757D01*
X184850Y491752D01*
X184940Y491677D01*
X185029Y491601D01*
X185034Y491599D01*
X185039Y491595D01*
X185148Y491553D01*
X185257Y491509D01*
X185264Y491508D01*
X185269Y491507D01*
X185287Y491506D01*
X185423Y491491D01*
X220855Y491491D01*
X220875Y491494D01*
X220894Y491492D01*
X220996Y491514D01*
X221098Y491530D01*
X221115Y491540D01*
X221135Y491544D01*
X221224Y491597D01*
X221315Y491646D01*
X221329Y491660D01*
X221346Y491670D01*
X221413Y491749D01*
X221485Y491824D01*
X221493Y491842D01*
X221506Y491857D01*
X221545Y491953D01*
X221588Y492047D01*
X221590Y492067D01*
X221598Y492085D01*
X221616Y492252D01*
X221616Y497336D01*
X222509Y498229D01*
X236773Y498229D01*
X237666Y497336D01*
X237666Y481072D01*
X236773Y480179D01*
X222509Y480179D01*
G37*
%LPD*%
%LPC*%
G36*
X222001Y561459D02*
X222001Y561459D01*
X221108Y562352D01*
X221108Y574959D01*
X221094Y575050D01*
X221086Y575140D01*
X221074Y575170D01*
X221069Y575202D01*
X221026Y575283D01*
X220990Y575367D01*
X220964Y575399D01*
X220953Y575420D01*
X220930Y575442D01*
X220885Y575498D01*
X218249Y578134D01*
X218175Y578187D01*
X218105Y578247D01*
X218075Y578259D01*
X218049Y578278D01*
X217962Y578305D01*
X217877Y578339D01*
X217836Y578343D01*
X217814Y578350D01*
X217782Y578349D01*
X217710Y578357D01*
X201240Y578357D01*
X201150Y578343D01*
X201059Y578335D01*
X201030Y578323D01*
X200998Y578318D01*
X200917Y578275D01*
X200833Y578239D01*
X200801Y578213D01*
X200780Y578202D01*
X200758Y578179D01*
X200702Y578134D01*
X197905Y575337D01*
X193509Y575337D01*
X190400Y578446D01*
X190400Y582842D01*
X193509Y585951D01*
X197905Y585951D01*
X200702Y583154D01*
X200776Y583101D01*
X200846Y583041D01*
X200876Y583029D01*
X200902Y583010D01*
X200989Y582983D01*
X201074Y582949D01*
X201115Y582945D01*
X201137Y582938D01*
X201169Y582939D01*
X201240Y582931D01*
X219920Y582931D01*
X223119Y579732D01*
X223193Y579679D01*
X223263Y579619D01*
X223293Y579607D01*
X223319Y579588D01*
X223406Y579561D01*
X223491Y579527D01*
X223532Y579523D01*
X223554Y579516D01*
X223586Y579517D01*
X223658Y579509D01*
X236265Y579509D01*
X237158Y578616D01*
X237158Y562352D01*
X236265Y561459D01*
X222001Y561459D01*
G37*
%LPD*%
%LPC*%
G36*
X95749Y765719D02*
X95749Y765719D01*
X92821Y766932D01*
X90581Y769172D01*
X89368Y772100D01*
X89368Y775268D01*
X90581Y778196D01*
X92821Y780436D01*
X95749Y781649D01*
X98917Y781649D01*
X101845Y780436D01*
X104085Y778196D01*
X105298Y775268D01*
X105298Y772100D01*
X104085Y769172D01*
X101845Y766932D01*
X98917Y765719D01*
X95749Y765719D01*
G37*
%LPD*%
%LPC*%
G36*
X96257Y430439D02*
X96257Y430439D01*
X93329Y431652D01*
X91089Y433892D01*
X89876Y436820D01*
X89876Y439988D01*
X91089Y442916D01*
X93329Y445156D01*
X96257Y446369D01*
X99425Y446369D01*
X102353Y445156D01*
X104593Y442916D01*
X105806Y439988D01*
X105806Y436820D01*
X104593Y433892D01*
X102353Y431652D01*
X99425Y430439D01*
X96257Y430439D01*
G37*
%LPD*%
%LPC*%
G36*
X95749Y689519D02*
X95749Y689519D01*
X92821Y690732D01*
X90581Y692972D01*
X89368Y695900D01*
X89368Y699068D01*
X90581Y701996D01*
X92821Y704236D01*
X95749Y705449D01*
X98917Y705449D01*
X101845Y704236D01*
X104085Y701996D01*
X105298Y699068D01*
X105298Y695900D01*
X104085Y692972D01*
X101845Y690732D01*
X98917Y689519D01*
X95749Y689519D01*
G37*
%LPD*%
%LPC*%
G36*
X96257Y379639D02*
X96257Y379639D01*
X93329Y380852D01*
X91089Y383092D01*
X89876Y386020D01*
X89876Y389188D01*
X91089Y392116D01*
X93329Y394356D01*
X96257Y395569D01*
X99425Y395569D01*
X102353Y394356D01*
X104593Y392116D01*
X105806Y389188D01*
X105806Y386020D01*
X104593Y383092D01*
X102353Y380852D01*
X99425Y379639D01*
X96257Y379639D01*
G37*
%LPD*%
%LPC*%
G36*
X45335Y496442D02*
X45335Y496442D01*
X45563Y497586D01*
X46252Y499251D01*
X47253Y500749D01*
X48526Y502022D01*
X50024Y503023D01*
X51689Y503712D01*
X53455Y504064D01*
X60453Y504064D01*
X60453Y496442D01*
X45335Y496442D01*
G37*
%LPD*%
%LPC*%
G36*
X53455Y485774D02*
X53455Y485774D01*
X51689Y486126D01*
X50024Y486815D01*
X48526Y487816D01*
X47253Y489089D01*
X46252Y490587D01*
X45563Y492252D01*
X45335Y493396D01*
X60453Y493396D01*
X60453Y485774D01*
X53455Y485774D01*
G37*
%LPD*%
%LPC*%
G36*
X301456Y673607D02*
X301456Y673607D01*
X301456Y679609D01*
X306236Y679609D01*
X306797Y679377D01*
X307226Y678948D01*
X307458Y678387D01*
X307458Y673607D01*
X301456Y673607D01*
G37*
%LPD*%
%LPC*%
G36*
X301964Y465327D02*
X301964Y465327D01*
X301964Y471329D01*
X306744Y471329D01*
X307305Y471097D01*
X307734Y470668D01*
X307966Y470107D01*
X307966Y465327D01*
X301964Y465327D01*
G37*
%LPD*%
%LPC*%
G36*
X301456Y597407D02*
X301456Y597407D01*
X301456Y603409D01*
X306236Y603409D01*
X306797Y603177D01*
X307226Y602748D01*
X307458Y602187D01*
X307458Y597407D01*
X301456Y597407D01*
G37*
%LPD*%
%LPC*%
G36*
X301964Y541527D02*
X301964Y541527D01*
X301964Y547529D01*
X306744Y547529D01*
X307305Y547297D01*
X307734Y546868D01*
X307966Y546307D01*
X307966Y541527D01*
X301964Y541527D01*
G37*
%LPD*%
%LPC*%
G36*
X301456Y724407D02*
X301456Y724407D01*
X301456Y730409D01*
X306236Y730409D01*
X306797Y730177D01*
X307226Y729748D01*
X307458Y729187D01*
X307458Y724407D01*
X301456Y724407D01*
G37*
%LPD*%
%LPC*%
G36*
X301456Y648207D02*
X301456Y648207D01*
X301456Y654209D01*
X306236Y654209D01*
X306797Y653977D01*
X307226Y653548D01*
X307458Y652987D01*
X307458Y648207D01*
X301456Y648207D01*
G37*
%LPD*%
%LPC*%
G36*
X301456Y622807D02*
X301456Y622807D01*
X301456Y628809D01*
X306236Y628809D01*
X306797Y628577D01*
X307226Y628148D01*
X307458Y627587D01*
X307458Y622807D01*
X301456Y622807D01*
G37*
%LPD*%
%LPC*%
G36*
X301456Y749807D02*
X301456Y749807D01*
X301456Y755809D01*
X306236Y755809D01*
X306797Y755577D01*
X307226Y755148D01*
X307458Y754587D01*
X307458Y749807D01*
X301456Y749807D01*
G37*
%LPD*%
%LPC*%
G36*
X301964Y414527D02*
X301964Y414527D01*
X301964Y420529D01*
X306744Y420529D01*
X307305Y420297D01*
X307734Y419868D01*
X307966Y419307D01*
X307966Y414527D01*
X301964Y414527D01*
G37*
%LPD*%
%LPC*%
G36*
X301456Y572007D02*
X301456Y572007D01*
X301456Y578009D01*
X306236Y578009D01*
X306797Y577777D01*
X307226Y577348D01*
X307458Y576787D01*
X307458Y572007D01*
X301456Y572007D01*
G37*
%LPD*%
%LPC*%
G36*
X301964Y490727D02*
X301964Y490727D01*
X301964Y496729D01*
X306744Y496729D01*
X307305Y496497D01*
X307734Y496068D01*
X307966Y495507D01*
X307966Y490727D01*
X301964Y490727D01*
G37*
%LPD*%
%LPC*%
G36*
X301456Y699007D02*
X301456Y699007D01*
X301456Y705009D01*
X306236Y705009D01*
X306797Y704777D01*
X307226Y704348D01*
X307458Y703787D01*
X307458Y699007D01*
X301456Y699007D01*
G37*
%LPD*%
%LPC*%
G36*
X301964Y363727D02*
X301964Y363727D01*
X301964Y369729D01*
X306744Y369729D01*
X307305Y369497D01*
X307734Y369068D01*
X307966Y368507D01*
X307966Y363727D01*
X301964Y363727D01*
G37*
%LPD*%
%LPC*%
G36*
X292408Y673607D02*
X292408Y673607D01*
X292408Y678387D01*
X292640Y678948D01*
X293069Y679377D01*
X293630Y679609D01*
X298410Y679609D01*
X298410Y673607D01*
X292408Y673607D01*
G37*
%LPD*%
%LPC*%
G36*
X292916Y465327D02*
X292916Y465327D01*
X292916Y470107D01*
X293148Y470668D01*
X293577Y471097D01*
X294138Y471329D01*
X298918Y471329D01*
X298918Y465327D01*
X292916Y465327D01*
G37*
%LPD*%
%LPC*%
G36*
X292408Y597407D02*
X292408Y597407D01*
X292408Y602187D01*
X292640Y602748D01*
X293069Y603177D01*
X293630Y603409D01*
X298410Y603409D01*
X298410Y597407D01*
X292408Y597407D01*
G37*
%LPD*%
%LPC*%
G36*
X292916Y541527D02*
X292916Y541527D01*
X292916Y546307D01*
X293148Y546868D01*
X293577Y547297D01*
X294138Y547529D01*
X298918Y547529D01*
X298918Y541527D01*
X292916Y541527D01*
G37*
%LPD*%
%LPC*%
G36*
X292408Y724407D02*
X292408Y724407D01*
X292408Y729187D01*
X292640Y729748D01*
X293069Y730177D01*
X293630Y730409D01*
X298410Y730409D01*
X298410Y724407D01*
X292408Y724407D01*
G37*
%LPD*%
%LPC*%
G36*
X292408Y749807D02*
X292408Y749807D01*
X292408Y754587D01*
X292640Y755148D01*
X293069Y755577D01*
X293630Y755809D01*
X298410Y755809D01*
X298410Y749807D01*
X292408Y749807D01*
G37*
%LPD*%
%LPC*%
G36*
X292916Y414527D02*
X292916Y414527D01*
X292916Y419307D01*
X293148Y419868D01*
X293577Y420297D01*
X294138Y420529D01*
X298918Y420529D01*
X298918Y414527D01*
X292916Y414527D01*
G37*
%LPD*%
%LPC*%
G36*
X292916Y490727D02*
X292916Y490727D01*
X292916Y495507D01*
X293148Y496068D01*
X293577Y496497D01*
X294138Y496729D01*
X298918Y496729D01*
X298918Y490727D01*
X292916Y490727D01*
G37*
%LPD*%
%LPC*%
G36*
X292408Y622807D02*
X292408Y622807D01*
X292408Y627587D01*
X292640Y628148D01*
X293069Y628577D01*
X293630Y628809D01*
X298410Y628809D01*
X298410Y622807D01*
X292408Y622807D01*
G37*
%LPD*%
%LPC*%
G36*
X292408Y648207D02*
X292408Y648207D01*
X292408Y652987D01*
X292640Y653548D01*
X293069Y653977D01*
X293630Y654209D01*
X298410Y654209D01*
X298410Y648207D01*
X292408Y648207D01*
G37*
%LPD*%
%LPC*%
G36*
X292408Y699007D02*
X292408Y699007D01*
X292408Y703787D01*
X292640Y704348D01*
X293069Y704777D01*
X293630Y705009D01*
X298410Y705009D01*
X298410Y699007D01*
X292408Y699007D01*
G37*
%LPD*%
%LPC*%
G36*
X292408Y572007D02*
X292408Y572007D01*
X292408Y576787D01*
X292640Y577348D01*
X293069Y577777D01*
X293630Y578009D01*
X298410Y578009D01*
X298410Y572007D01*
X292408Y572007D01*
G37*
%LPD*%
%LPC*%
G36*
X292916Y363727D02*
X292916Y363727D01*
X292916Y368507D01*
X293148Y369068D01*
X293577Y369497D01*
X294138Y369729D01*
X298918Y369729D01*
X298918Y363727D01*
X292916Y363727D01*
G37*
%LPD*%
%LPC*%
G36*
X301456Y639159D02*
X301456Y639159D01*
X301456Y645161D01*
X307458Y645161D01*
X307458Y640381D01*
X307226Y639820D01*
X306797Y639391D01*
X306236Y639159D01*
X301456Y639159D01*
G37*
%LPD*%
%LPC*%
G36*
X301456Y613759D02*
X301456Y613759D01*
X301456Y619761D01*
X307458Y619761D01*
X307458Y614981D01*
X307226Y614420D01*
X306797Y613991D01*
X306236Y613759D01*
X301456Y613759D01*
G37*
%LPD*%
%LPC*%
G36*
X301456Y689959D02*
X301456Y689959D01*
X301456Y695961D01*
X307458Y695961D01*
X307458Y691181D01*
X307226Y690620D01*
X306797Y690191D01*
X306236Y689959D01*
X301456Y689959D01*
G37*
%LPD*%
%LPC*%
G36*
X301456Y588359D02*
X301456Y588359D01*
X301456Y594361D01*
X307458Y594361D01*
X307458Y589581D01*
X307226Y589020D01*
X306797Y588591D01*
X306236Y588359D01*
X301456Y588359D01*
G37*
%LPD*%
%LPC*%
G36*
X301456Y562959D02*
X301456Y562959D01*
X301456Y568961D01*
X307458Y568961D01*
X307458Y564181D01*
X307226Y563620D01*
X306797Y563191D01*
X306236Y562959D01*
X301456Y562959D01*
G37*
%LPD*%
%LPC*%
G36*
X301964Y532479D02*
X301964Y532479D01*
X301964Y538481D01*
X307966Y538481D01*
X307966Y533701D01*
X307734Y533140D01*
X307305Y532711D01*
X306744Y532479D01*
X301964Y532479D01*
G37*
%LPD*%
%LPC*%
G36*
X301964Y507079D02*
X301964Y507079D01*
X301964Y513081D01*
X307966Y513081D01*
X307966Y508301D01*
X307734Y507740D01*
X307305Y507311D01*
X306744Y507079D01*
X301964Y507079D01*
G37*
%LPD*%
%LPC*%
G36*
X301964Y481679D02*
X301964Y481679D01*
X301964Y487681D01*
X307966Y487681D01*
X307966Y482901D01*
X307734Y482340D01*
X307305Y481911D01*
X306744Y481679D01*
X301964Y481679D01*
G37*
%LPD*%
%LPC*%
G36*
X301964Y456279D02*
X301964Y456279D01*
X301964Y462281D01*
X307966Y462281D01*
X307966Y457501D01*
X307734Y456940D01*
X307305Y456511D01*
X306744Y456279D01*
X301964Y456279D01*
G37*
%LPD*%
%LPC*%
G36*
X301964Y430879D02*
X301964Y430879D01*
X301964Y436881D01*
X307966Y436881D01*
X307966Y432101D01*
X307734Y431540D01*
X307305Y431111D01*
X306744Y430879D01*
X301964Y430879D01*
G37*
%LPD*%
%LPC*%
G36*
X301964Y405479D02*
X301964Y405479D01*
X301964Y411481D01*
X307966Y411481D01*
X307966Y406701D01*
X307734Y406140D01*
X307305Y405711D01*
X306744Y405479D01*
X301964Y405479D01*
G37*
%LPD*%
%LPC*%
G36*
X301456Y740759D02*
X301456Y740759D01*
X301456Y746761D01*
X307458Y746761D01*
X307458Y741981D01*
X307226Y741420D01*
X306797Y740991D01*
X306236Y740759D01*
X301456Y740759D01*
G37*
%LPD*%
%LPC*%
G36*
X301964Y380079D02*
X301964Y380079D01*
X301964Y386081D01*
X307966Y386081D01*
X307966Y381301D01*
X307734Y380740D01*
X307305Y380311D01*
X306744Y380079D01*
X301964Y380079D01*
G37*
%LPD*%
%LPC*%
G36*
X301456Y715359D02*
X301456Y715359D01*
X301456Y721361D01*
X307458Y721361D01*
X307458Y716581D01*
X307226Y716020D01*
X306797Y715591D01*
X306236Y715359D01*
X301456Y715359D01*
G37*
%LPD*%
%LPC*%
G36*
X301456Y664559D02*
X301456Y664559D01*
X301456Y670561D01*
X307458Y670561D01*
X307458Y665781D01*
X307226Y665220D01*
X306797Y664791D01*
X306236Y664559D01*
X301456Y664559D01*
G37*
%LPD*%
%LPC*%
G36*
X301964Y354679D02*
X301964Y354679D01*
X301964Y360681D01*
X307966Y360681D01*
X307966Y355901D01*
X307734Y355340D01*
X307305Y354911D01*
X306744Y354679D01*
X301964Y354679D01*
G37*
%LPD*%
%LPC*%
G36*
X294138Y532479D02*
X294138Y532479D01*
X293577Y532711D01*
X293148Y533140D01*
X292916Y533701D01*
X292916Y538481D01*
X298918Y538481D01*
X298918Y532479D01*
X294138Y532479D01*
G37*
%LPD*%
%LPC*%
G36*
X293630Y639159D02*
X293630Y639159D01*
X293069Y639391D01*
X292640Y639820D01*
X292408Y640381D01*
X292408Y645161D01*
X298410Y645161D01*
X298410Y639159D01*
X293630Y639159D01*
G37*
%LPD*%
%LPC*%
G36*
X294138Y481679D02*
X294138Y481679D01*
X293577Y481911D01*
X293148Y482340D01*
X292916Y482901D01*
X292916Y487681D01*
X298918Y487681D01*
X298918Y481679D01*
X294138Y481679D01*
G37*
%LPD*%
%LPC*%
G36*
X293630Y664559D02*
X293630Y664559D01*
X293069Y664791D01*
X292640Y665220D01*
X292408Y665781D01*
X292408Y670561D01*
X298410Y670561D01*
X298410Y664559D01*
X293630Y664559D01*
G37*
%LPD*%
%LPC*%
G36*
X294138Y380079D02*
X294138Y380079D01*
X293577Y380311D01*
X293148Y380740D01*
X292916Y381301D01*
X292916Y386081D01*
X298918Y386081D01*
X298918Y380079D01*
X294138Y380079D01*
G37*
%LPD*%
%LPC*%
G36*
X293630Y613759D02*
X293630Y613759D01*
X293069Y613991D01*
X292640Y614420D01*
X292408Y614981D01*
X292408Y619761D01*
X298410Y619761D01*
X298410Y613759D01*
X293630Y613759D01*
G37*
%LPD*%
%LPC*%
G36*
X294138Y354679D02*
X294138Y354679D01*
X293577Y354911D01*
X293148Y355340D01*
X292916Y355901D01*
X292916Y360681D01*
X298918Y360681D01*
X298918Y354679D01*
X294138Y354679D01*
G37*
%LPD*%
%LPC*%
G36*
X294138Y456279D02*
X294138Y456279D01*
X293577Y456511D01*
X293148Y456940D01*
X292916Y457501D01*
X292916Y462281D01*
X298918Y462281D01*
X298918Y456279D01*
X294138Y456279D01*
G37*
%LPD*%
%LPC*%
G36*
X294138Y507079D02*
X294138Y507079D01*
X293577Y507311D01*
X293148Y507740D01*
X292916Y508301D01*
X292916Y513081D01*
X298918Y513081D01*
X298918Y507079D01*
X294138Y507079D01*
G37*
%LPD*%
%LPC*%
G36*
X293630Y588359D02*
X293630Y588359D01*
X293069Y588591D01*
X292640Y589020D01*
X292408Y589581D01*
X292408Y594361D01*
X298410Y594361D01*
X298410Y588359D01*
X293630Y588359D01*
G37*
%LPD*%
%LPC*%
G36*
X293630Y715359D02*
X293630Y715359D01*
X293069Y715591D01*
X292640Y716020D01*
X292408Y716581D01*
X292408Y721361D01*
X298410Y721361D01*
X298410Y715359D01*
X293630Y715359D01*
G37*
%LPD*%
%LPC*%
G36*
X294138Y430879D02*
X294138Y430879D01*
X293577Y431111D01*
X293148Y431540D01*
X292916Y432101D01*
X292916Y436881D01*
X298918Y436881D01*
X298918Y430879D01*
X294138Y430879D01*
G37*
%LPD*%
%LPC*%
G36*
X293630Y562959D02*
X293630Y562959D01*
X293069Y563191D01*
X292640Y563620D01*
X292408Y564181D01*
X292408Y568961D01*
X298410Y568961D01*
X298410Y562959D01*
X293630Y562959D01*
G37*
%LPD*%
%LPC*%
G36*
X293630Y689959D02*
X293630Y689959D01*
X293069Y690191D01*
X292640Y690620D01*
X292408Y691181D01*
X292408Y695961D01*
X298410Y695961D01*
X298410Y689959D01*
X293630Y689959D01*
G37*
%LPD*%
%LPC*%
G36*
X293630Y740759D02*
X293630Y740759D01*
X293069Y740991D01*
X292640Y741420D01*
X292408Y741981D01*
X292408Y746761D01*
X298410Y746761D01*
X298410Y740759D01*
X293630Y740759D01*
G37*
%LPD*%
%LPC*%
G36*
X294138Y405479D02*
X294138Y405479D01*
X293577Y405711D01*
X293148Y406140D01*
X292916Y406701D01*
X292916Y411481D01*
X298918Y411481D01*
X298918Y405479D01*
X294138Y405479D01*
G37*
%LPD*%
%LPC*%
G36*
X98856Y673607D02*
X98856Y673607D01*
X98856Y679902D01*
X99656Y679743D01*
X101106Y679142D01*
X102410Y678271D01*
X103520Y677161D01*
X104391Y675857D01*
X104992Y674407D01*
X105151Y673607D01*
X98856Y673607D01*
G37*
%LPD*%
%LPC*%
G36*
X178764Y566927D02*
X178764Y566927D01*
X178764Y573222D01*
X179564Y573063D01*
X181014Y572462D01*
X182318Y571591D01*
X183428Y570481D01*
X184299Y569177D01*
X184900Y567727D01*
X185059Y566927D01*
X178764Y566927D01*
G37*
%LPD*%
%LPC*%
G36*
X178256Y775207D02*
X178256Y775207D01*
X178256Y781502D01*
X179056Y781343D01*
X180506Y780742D01*
X181810Y779871D01*
X182920Y778761D01*
X183791Y777457D01*
X184392Y776007D01*
X184551Y775207D01*
X178256Y775207D01*
G37*
%LPD*%
%LPC*%
G36*
X99364Y465327D02*
X99364Y465327D01*
X99364Y471622D01*
X100164Y471463D01*
X101614Y470862D01*
X102918Y469991D01*
X104028Y468881D01*
X104899Y467577D01*
X105500Y466127D01*
X105659Y465327D01*
X99364Y465327D01*
G37*
%LPD*%
%LPC*%
G36*
X98856Y670561D02*
X98856Y670561D01*
X105151Y670561D01*
X104992Y669761D01*
X104391Y668311D01*
X103520Y667007D01*
X102410Y665897D01*
X101106Y665026D01*
X99656Y664425D01*
X98856Y664266D01*
X98856Y670561D01*
G37*
%LPD*%
%LPC*%
G36*
X89515Y673607D02*
X89515Y673607D01*
X89674Y674407D01*
X90275Y675857D01*
X91146Y677161D01*
X92256Y678271D01*
X93560Y679142D01*
X95010Y679743D01*
X95810Y679902D01*
X95810Y673607D01*
X89515Y673607D01*
G37*
%LPD*%
%LPC*%
G36*
X99364Y462281D02*
X99364Y462281D01*
X105659Y462281D01*
X105500Y461481D01*
X104899Y460031D01*
X104028Y458727D01*
X102918Y457617D01*
X101614Y456746D01*
X100164Y456145D01*
X99364Y455986D01*
X99364Y462281D01*
G37*
%LPD*%
%LPC*%
G36*
X169423Y566927D02*
X169423Y566927D01*
X169582Y567727D01*
X170183Y569177D01*
X171054Y570481D01*
X172164Y571591D01*
X173468Y572462D01*
X174918Y573063D01*
X175718Y573222D01*
X175718Y566927D01*
X169423Y566927D01*
G37*
%LPD*%
%LPC*%
G36*
X90023Y465327D02*
X90023Y465327D01*
X90182Y466127D01*
X90783Y467577D01*
X91654Y468881D01*
X92764Y469991D01*
X94068Y470862D01*
X95518Y471463D01*
X96318Y471622D01*
X96318Y465327D01*
X90023Y465327D01*
G37*
%LPD*%
%LPC*%
G36*
X178256Y772161D02*
X178256Y772161D01*
X184551Y772161D01*
X184392Y771361D01*
X183791Y769911D01*
X182920Y768607D01*
X181810Y767497D01*
X180506Y766626D01*
X179056Y766025D01*
X178256Y765866D01*
X178256Y772161D01*
G37*
%LPD*%
%LPC*%
G36*
X178764Y563881D02*
X178764Y563881D01*
X185059Y563881D01*
X184900Y563081D01*
X184299Y561631D01*
X183428Y560327D01*
X182318Y559217D01*
X181014Y558346D01*
X179564Y557745D01*
X178764Y557586D01*
X178764Y563881D01*
G37*
%LPD*%
%LPC*%
G36*
X168915Y775207D02*
X168915Y775207D01*
X169074Y776007D01*
X169675Y777457D01*
X170546Y778761D01*
X171656Y779871D01*
X172960Y780742D01*
X174410Y781343D01*
X175210Y781502D01*
X175210Y775207D01*
X168915Y775207D01*
G37*
%LPD*%
%LPC*%
G36*
X95518Y456145D02*
X95518Y456145D01*
X94068Y456746D01*
X92764Y457617D01*
X91654Y458727D01*
X90783Y460031D01*
X90182Y461481D01*
X90023Y462281D01*
X96318Y462281D01*
X96318Y455986D01*
X95518Y456145D01*
G37*
%LPD*%
%LPC*%
G36*
X174410Y766025D02*
X174410Y766025D01*
X172960Y766626D01*
X171656Y767497D01*
X170546Y768607D01*
X169675Y769911D01*
X169074Y771361D01*
X168915Y772161D01*
X175210Y772161D01*
X175210Y765866D01*
X174410Y766025D01*
G37*
%LPD*%
%LPC*%
G36*
X95010Y664425D02*
X95010Y664425D01*
X93560Y665026D01*
X92256Y665897D01*
X91146Y667007D01*
X90275Y668311D01*
X89674Y669761D01*
X89515Y670561D01*
X95810Y670561D01*
X95810Y664266D01*
X95010Y664425D01*
G37*
%LPD*%
%LPC*%
G36*
X174918Y557745D02*
X174918Y557745D01*
X173468Y558346D01*
X172164Y559217D01*
X171054Y560327D01*
X170183Y561631D01*
X169582Y563081D01*
X169423Y563881D01*
X175718Y563881D01*
X175718Y557586D01*
X174918Y557745D01*
G37*
%LPD*%
%LPC*%
G36*
X97332Y672083D02*
X97332Y672083D01*
X97332Y672085D01*
X97334Y672085D01*
X97334Y672083D01*
X97332Y672083D01*
G37*
%LPD*%
%LPC*%
G36*
X176732Y773683D02*
X176732Y773683D01*
X176732Y773685D01*
X176734Y773685D01*
X176734Y773683D01*
X176732Y773683D01*
G37*
%LPD*%
%LPC*%
G36*
X97840Y463803D02*
X97840Y463803D01*
X97840Y463805D01*
X97842Y463805D01*
X97842Y463803D01*
X97840Y463803D01*
G37*
%LPD*%
%LPC*%
G36*
X177240Y565403D02*
X177240Y565403D01*
X177240Y565405D01*
X177242Y565405D01*
X177242Y565403D01*
X177240Y565403D01*
G37*
%LPD*%
%LPC*%
G36*
X299932Y646683D02*
X299932Y646683D01*
X299932Y646685D01*
X299934Y646685D01*
X299934Y646683D01*
X299932Y646683D01*
G37*
%LPD*%
%LPC*%
G36*
X300440Y540003D02*
X300440Y540003D01*
X300440Y540005D01*
X300442Y540005D01*
X300442Y540003D01*
X300440Y540003D01*
G37*
%LPD*%
%LPC*%
G36*
X299932Y672083D02*
X299932Y672083D01*
X299932Y672085D01*
X299934Y672085D01*
X299934Y672083D01*
X299932Y672083D01*
G37*
%LPD*%
%LPC*%
G36*
X299932Y621283D02*
X299932Y621283D01*
X299932Y621285D01*
X299934Y621285D01*
X299934Y621283D01*
X299932Y621283D01*
G37*
%LPD*%
%LPC*%
G36*
X299932Y748283D02*
X299932Y748283D01*
X299932Y748285D01*
X299934Y748285D01*
X299934Y748283D01*
X299932Y748283D01*
G37*
%LPD*%
%LPC*%
G36*
X300440Y463803D02*
X300440Y463803D01*
X300440Y463805D01*
X300442Y463805D01*
X300442Y463803D01*
X300440Y463803D01*
G37*
%LPD*%
%LPC*%
G36*
X299932Y722883D02*
X299932Y722883D01*
X299932Y722885D01*
X299934Y722885D01*
X299934Y722883D01*
X299932Y722883D01*
G37*
%LPD*%
%LPC*%
G36*
X300440Y413003D02*
X300440Y413003D01*
X300440Y413005D01*
X300442Y413005D01*
X300442Y413003D01*
X300440Y413003D01*
G37*
%LPD*%
%LPC*%
G36*
X300440Y489203D02*
X300440Y489203D01*
X300440Y489205D01*
X300442Y489205D01*
X300442Y489203D01*
X300440Y489203D01*
G37*
%LPD*%
%LPC*%
G36*
X299932Y570483D02*
X299932Y570483D01*
X299932Y570485D01*
X299934Y570485D01*
X299934Y570483D01*
X299932Y570483D01*
G37*
%LPD*%
%LPC*%
G36*
X299932Y595883D02*
X299932Y595883D01*
X299932Y595885D01*
X299934Y595885D01*
X299934Y595883D01*
X299932Y595883D01*
G37*
%LPD*%
%LPC*%
G36*
X299932Y697483D02*
X299932Y697483D01*
X299932Y697485D01*
X299934Y697485D01*
X299934Y697483D01*
X299932Y697483D01*
G37*
%LPD*%
%LPC*%
G36*
X300440Y362203D02*
X300440Y362203D01*
X300440Y362205D01*
X300442Y362205D01*
X300442Y362203D01*
X300440Y362203D01*
G37*
%LPD*%
D10*
X54356Y520319D02*
X69596Y520319D01*
X69596Y494919D02*
X54356Y494919D01*
X54356Y469519D02*
X69596Y469519D01*
X69596Y444119D02*
X54356Y444119D01*
X54356Y418719D02*
X69596Y418719D01*
X355473Y390271D02*
X370713Y390271D01*
X370713Y415671D02*
X355473Y415671D01*
X355473Y441071D02*
X370713Y441071D01*
X370713Y466471D02*
X355473Y466471D01*
X355473Y491871D02*
X370713Y491871D01*
X370713Y517271D02*
X355473Y517271D01*
X355473Y542671D02*
X370713Y542671D01*
X370713Y568071D02*
X355473Y568071D01*
X355473Y593471D02*
X370713Y593471D01*
X370713Y618871D02*
X355473Y618871D01*
X355473Y644271D02*
X370713Y644271D01*
X370713Y669671D02*
X355473Y669671D01*
X355473Y695071D02*
X370713Y695071D01*
X370713Y720471D02*
X355473Y720471D01*
X355473Y745871D02*
X370713Y745871D01*
X370713Y771271D02*
X355473Y771271D01*
D11*
X300441Y362204D03*
X279441Y362204D03*
X299933Y595884D03*
X278933Y595884D03*
X299933Y621284D03*
X278933Y621284D03*
X299933Y646684D03*
X278933Y646684D03*
X299933Y672084D03*
X278933Y672084D03*
X299933Y697484D03*
X278933Y697484D03*
X299933Y722884D03*
X278933Y722884D03*
X299933Y748284D03*
X278933Y748284D03*
X300441Y387604D03*
X279441Y387604D03*
X300441Y413004D03*
X279441Y413004D03*
X300441Y438404D03*
X279441Y438404D03*
X300441Y463804D03*
X279441Y463804D03*
X300441Y489204D03*
X279441Y489204D03*
X300441Y514604D03*
X279441Y514604D03*
X300441Y540004D03*
X279441Y540004D03*
X299933Y570484D03*
X278933Y570484D03*
D12*
X229641Y362204D03*
X248641Y362204D03*
X229133Y595884D03*
X248133Y595884D03*
X229133Y621284D03*
X248133Y621284D03*
X229133Y646684D03*
X248133Y646684D03*
X229133Y672084D03*
X248133Y672084D03*
X229133Y697484D03*
X248133Y697484D03*
X229133Y722884D03*
X248133Y722884D03*
X229133Y748284D03*
X248133Y748284D03*
X229641Y387604D03*
X248641Y387604D03*
X229641Y413004D03*
X248641Y413004D03*
X229641Y438404D03*
X248641Y438404D03*
X229641Y463804D03*
X248641Y463804D03*
X229641Y489204D03*
X248641Y489204D03*
X229133Y570484D03*
X248133Y570484D03*
X229641Y514604D03*
X248641Y514604D03*
X229641Y540004D03*
X248641Y540004D03*
D13*
X177241Y387604D03*
D14*
X177241Y413004D03*
X177241Y438404D03*
X177241Y463804D03*
X177241Y489204D03*
X177241Y514604D03*
X177241Y540004D03*
X177241Y565404D03*
X97841Y565404D03*
X97841Y540004D03*
X97841Y514604D03*
X97841Y489204D03*
X97841Y463804D03*
X97841Y438404D03*
X97841Y413004D03*
X97841Y387604D03*
D13*
X176733Y595884D03*
D14*
X176733Y621284D03*
X176733Y646684D03*
X176733Y672084D03*
X176733Y697484D03*
X176733Y722884D03*
X176733Y748284D03*
X176733Y773684D03*
X97333Y773684D03*
X97333Y748284D03*
X97333Y722884D03*
X97333Y697484D03*
X97333Y672084D03*
X97333Y646684D03*
X97333Y621284D03*
X97333Y595884D03*
D15*
X81661Y540004D02*
X61976Y520319D01*
X81661Y540004D02*
X97841Y540004D01*
X81915Y540258D02*
X81661Y540004D01*
X81915Y580466D02*
X97333Y595884D01*
X81915Y580466D02*
X81915Y540258D01*
X81915Y580466D02*
X81915Y732866D01*
X97333Y748284D01*
X97333Y646684D02*
X107950Y636067D01*
X107950Y575513D02*
X97841Y565404D01*
X107950Y575513D02*
X107950Y636067D01*
X80010Y462153D02*
X61976Y444119D01*
X80010Y462153D02*
X80010Y496951D01*
X97663Y514604D01*
X97841Y514604D01*
X114300Y531063D01*
X114300Y705917D02*
X97333Y722884D01*
X114300Y705917D02*
X114300Y531063D01*
X72390Y429133D02*
X61976Y418719D01*
X72390Y429133D02*
X76200Y429133D01*
X83693Y436626D01*
X83693Y477520D01*
X95377Y489204D01*
X97841Y489204D01*
X177241Y413004D02*
X229641Y413004D01*
X229641Y438404D02*
X177241Y438404D01*
X177241Y463804D02*
X229641Y463804D01*
X229641Y489204D02*
X177241Y489204D01*
X177241Y514604D02*
X229641Y514604D01*
X229641Y540004D02*
X177241Y540004D01*
X177241Y387604D02*
X229641Y387604D01*
X248641Y540004D02*
X279441Y540004D01*
X298237Y558800D01*
X353822Y558800D02*
X363093Y568071D01*
X353822Y558800D02*
X298237Y558800D01*
X279441Y514604D02*
X248641Y514604D01*
X279441Y514604D02*
X290617Y525780D01*
X346202Y525780D02*
X363093Y542671D01*
X346202Y525780D02*
X290617Y525780D01*
X279441Y489204D02*
X248641Y489204D01*
X279441Y489204D02*
X291506Y501269D01*
X347091Y501269D02*
X363093Y517271D01*
X347091Y501269D02*
X291506Y501269D01*
X279441Y463804D02*
X248641Y463804D01*
X279441Y463804D02*
X291379Y475742D01*
X346964Y475742D02*
X363093Y491871D01*
X346964Y475742D02*
X291379Y475742D01*
X279441Y438404D02*
X248641Y438404D01*
X279441Y438404D02*
X290363Y449326D01*
X345948Y449326D02*
X363093Y466471D01*
X345948Y449326D02*
X290363Y449326D01*
X279441Y413004D02*
X248641Y413004D01*
X279441Y413004D02*
X290871Y424434D01*
X346456Y424434D02*
X363093Y441071D01*
X346456Y424434D02*
X290871Y424434D01*
X279441Y387604D02*
X248641Y387604D01*
X279441Y387604D02*
X290617Y398780D01*
X346202Y398780D02*
X363093Y415671D01*
X346202Y398780D02*
X290617Y398780D01*
D16*
X195707Y580644D03*
D15*
X218973Y580644D01*
X229133Y570484D01*
X229133Y621284D02*
X176733Y621284D01*
X176733Y646684D02*
X229133Y646684D01*
X229133Y672084D02*
X176733Y672084D01*
X176733Y697484D02*
X229133Y697484D01*
X229133Y722884D02*
X176733Y722884D01*
X176733Y748284D02*
X229133Y748284D01*
X229133Y595884D02*
X176733Y595884D01*
X248133Y748284D02*
X278933Y748284D01*
X301920Y771271D01*
X363093Y771271D01*
X278933Y697484D02*
X248133Y697484D01*
X278933Y697484D02*
X292649Y711200D01*
X353822Y711200D02*
X363093Y720471D01*
X353822Y711200D02*
X292649Y711200D01*
X278933Y672084D02*
X248133Y672084D01*
X278933Y672084D02*
X292649Y685800D01*
X353822Y685800D02*
X363093Y695071D01*
X353822Y685800D02*
X292649Y685800D01*
X278933Y646684D02*
X248133Y646684D01*
X278933Y646684D02*
X292649Y660400D01*
X353822Y660400D02*
X363093Y669671D01*
X353822Y660400D02*
X292649Y660400D01*
X278933Y621284D02*
X248133Y621284D01*
X278933Y621284D02*
X292649Y635000D01*
X353822Y635000D02*
X363093Y644271D01*
X353822Y635000D02*
X292649Y635000D01*
X278933Y595884D02*
X248133Y595884D01*
X278933Y595884D02*
X292649Y609600D01*
X353822Y609600D02*
X363093Y618871D01*
X353822Y609600D02*
X292649Y609600D01*
X279441Y362204D02*
X248641Y362204D01*
X279441Y362204D02*
X291125Y373888D01*
X346710Y373888D02*
X363093Y390271D01*
X346710Y373888D02*
X291125Y373888D01*
X278933Y570484D02*
X248133Y570484D01*
X278933Y570484D02*
X292649Y584200D01*
X353822Y584200D02*
X363093Y593471D01*
X353822Y584200D02*
X292649Y584200D01*
X97841Y413004D02*
X148641Y362204D01*
X229641Y362204D01*
X248133Y722884D02*
X278933Y722884D01*
X292649Y736600D01*
X353822Y736600D02*
X363093Y745871D01*
X353822Y736600D02*
X292649Y736600D01*
M02*
