G04 EAGLE Gerber RS-274X export*
G75*
%MOMM*%
%FSLAX34Y34*%
%LPD*%
%INSilkscreen Bottom*%
%IPPOS*%
%AMOC8*
5,1,8,0,0,1.08239X$1,22.5*%
G01*
%ADD10C,0.076200*%
%ADD11R,18.288000X0.045719*%
%ADD12R,18.288000X0.045722*%
%ADD13R,0.685800X0.045722*%
%ADD14R,1.554481X0.045722*%
%ADD15R,0.594359X0.045719*%
%ADD16R,1.417322X0.045719*%
%ADD17R,0.548641X0.045722*%
%ADD18R,1.371600X0.045722*%
%ADD19R,0.502919X0.045719*%
%ADD20R,1.325881X0.045719*%
%ADD21R,0.457200X0.045722*%
%ADD22R,1.325881X0.045722*%
%ADD23R,0.457200X0.045719*%
%ADD24R,0.091441X0.045719*%
%ADD25R,0.045719X0.045719*%
%ADD26R,0.045722X0.045719*%
%ADD27R,0.274319X0.045719*%
%ADD28R,1.280159X0.045719*%
%ADD29R,0.182878X0.045722*%
%ADD30R,0.182881X0.045722*%
%ADD31R,0.137162X0.045722*%
%ADD32R,0.091441X0.045722*%
%ADD33R,1.097278X0.045722*%
%ADD34R,0.137159X0.045722*%
%ADD35R,1.280159X0.045722*%
%ADD36R,0.502922X0.045719*%
%ADD37R,0.228600X0.045719*%
%ADD38R,0.274322X0.045719*%
%ADD39R,0.182881X0.045719*%
%ADD40R,0.182878X0.045719*%
%ADD41R,1.097278X0.045719*%
%ADD42R,0.137159X0.045719*%
%ADD43R,0.548641X0.045719*%
%ADD44R,0.685800X0.045719*%
%ADD45R,0.320041X0.045719*%
%ADD46R,0.594363X0.045722*%
%ADD47R,0.640081X0.045722*%
%ADD48R,0.228600X0.045722*%
%ADD49R,0.274319X0.045722*%
%ADD50R,0.320038X0.045722*%
%ADD51R,0.320038X0.045719*%
%ADD52R,0.960119X0.045719*%
%ADD53R,0.274322X0.045722*%
%ADD54R,0.091438X0.045722*%
%ADD55R,0.365759X0.045722*%
%ADD56R,0.960119X0.045722*%
%ADD57R,0.091438X0.045719*%
%ADD58R,0.548638X0.045719*%
%ADD59R,1.005841X0.045719*%
%ADD60R,0.411478X0.045722*%
%ADD61R,0.411481X0.045722*%
%ADD62R,0.045719X0.045722*%
%ADD63R,0.502919X0.045722*%
%ADD64R,0.365759X0.045719*%
%ADD65R,0.137162X0.045719*%
%ADD66R,0.365762X0.045719*%
%ADD67R,1.097281X0.045719*%
%ADD68R,1.051559X0.045722*%
%ADD69R,0.594359X0.045722*%
%ADD70R,0.731522X0.045722*%
%ADD71R,0.045722X0.045722*%
%ADD72R,1.005841X0.045722*%
%ADD73R,0.731522X0.045719*%
%ADD74R,1.051559X0.045719*%
%ADD75R,1.371600X0.045719*%
%ADD76R,1.417322X0.045722*%
%ADD77R,0.640078X0.045719*%
%ADD78R,1.463041X0.045719*%
%ADD79R,1.737359X0.045719*%
%ADD80R,15.864841X0.045719*%
%ADD81R,1.554478X0.045719*%
%ADD82R,15.681959X0.045719*%
%ADD83R,1.417319X0.045722*%
%ADD84R,15.544800X0.045722*%
%ADD85R,1.325878X0.045719*%
%ADD86R,15.453359X0.045719*%
%ADD87R,1.234441X0.045722*%
%ADD88R,15.361922X0.045722*%
%ADD89R,1.143000X0.045719*%
%ADD90R,15.270481X0.045719*%
%ADD91R,12.298681X0.045719*%
%ADD92R,2.651759X0.045719*%
%ADD93R,12.115800X0.045722*%
%ADD94R,2.560322X0.045722*%
%ADD95R,12.070081X0.045719*%
%ADD96R,2.514600X0.045719*%
%ADD97R,0.914400X0.045722*%
%ADD98R,12.024359X0.045722*%
%ADD99R,2.468881X0.045722*%
%ADD100R,0.868678X0.045719*%
%ADD101R,11.932922X0.045719*%
%ADD102R,2.423159X0.045719*%
%ADD103R,0.822959X0.045719*%
%ADD104R,0.868681X0.045719*%
%ADD105R,11.841478X0.045719*%
%ADD106R,0.777241X0.045722*%
%ADD107R,1.051562X0.045722*%
%ADD108R,12.070081X0.045722*%
%ADD109R,2.377441X0.045722*%
%ADD110R,0.731519X0.045719*%
%ADD111R,12.070078X0.045719*%
%ADD112R,2.377441X0.045719*%
%ADD113R,3.749041X0.045722*%
%ADD114R,1.143000X0.045722*%
%ADD115R,1.508759X0.045722*%
%ADD116R,1.600200X0.045722*%
%ADD117R,1.554481X0.045719*%
%ADD118R,0.411478X0.045719*%
%ADD119R,0.411481X0.045719*%
%ADD120R,2.331722X0.045719*%
%ADD121R,1.691641X0.045719*%
%ADD122R,2.468878X0.045719*%
%ADD123R,0.640081X0.045719*%
%ADD124R,1.783078X0.045722*%
%ADD125R,2.423159X0.045722*%
%ADD126R,0.320041X0.045722*%
%ADD127R,2.286000X0.045722*%
%ADD128R,1.874522X0.045719*%
%ADD129R,2.377438X0.045719*%
%ADD130R,2.286000X0.045719*%
%ADD131R,1.965959X0.045722*%
%ADD132R,2.240281X0.045722*%
%ADD133R,2.103122X0.045719*%
%ADD134R,2.240281X0.045719*%
%ADD135R,2.194559X0.045719*%
%ADD136R,0.731519X0.045722*%
%ADD137R,0.365762X0.045722*%
%ADD138R,2.194559X0.045722*%
%ADD139R,0.777238X0.045719*%
%ADD140R,0.868681X0.045722*%
%ADD141R,0.868678X0.045722*%
%ADD142R,2.148841X0.045722*%
%ADD143R,1.417319X0.045719*%
%ADD144R,2.148841X0.045719*%
%ADD145R,0.777241X0.045719*%
%ADD146R,2.103122X0.045722*%
%ADD147R,2.057400X0.045719*%
%ADD148R,2.057400X0.045722*%
%ADD149R,0.640078X0.045722*%
%ADD150R,2.011681X0.045722*%
%ADD151R,1.783081X0.045722*%
%ADD152R,4.069081X0.045722*%
%ADD153R,5.303522X0.045722*%
%ADD154R,2.011681X0.045719*%
%ADD155R,1.783081X0.045719*%
%ADD156R,4.069081X0.045719*%
%ADD157R,5.303522X0.045719*%
%ADD158R,1.828800X0.045722*%
%ADD159R,1.965959X0.045719*%
%ADD160R,1.828800X0.045719*%
%ADD161R,4.160519X0.045719*%
%ADD162R,9.601200X0.045719*%
%ADD163R,1.920241X0.045722*%
%ADD164R,9.601200X0.045722*%
%ADD165R,14.036041X0.045719*%
%ADD166R,1.463041X0.045722*%
%ADD167R,14.036041X0.045722*%
%ADD168R,13.990322X0.045719*%
%ADD169R,1.005837X0.045722*%
%ADD170R,13.990322X0.045722*%
%ADD171R,13.944600X0.045719*%
%ADD172R,13.944600X0.045722*%
%ADD173R,0.960122X0.045719*%
%ADD174R,0.914400X0.045719*%
%ADD175R,1.188722X0.045719*%
%ADD176R,0.822959X0.045722*%
%ADD177R,1.874522X0.045722*%
%ADD178R,1.645919X0.045719*%
%ADD179R,0.594363X0.045719*%
%ADD180R,1.188719X0.045722*%
%ADD181R,1.691641X0.045722*%
%ADD182R,1.051562X0.045719*%
%ADD183R,1.188719X0.045719*%
%ADD184R,0.777238X0.045722*%
%ADD185R,1.645922X0.045722*%
%ADD186R,1.234438X0.045719*%
%ADD187R,1.645922X0.045719*%
%ADD188R,0.822963X0.045722*%
%ADD189R,1.234438X0.045722*%
%ADD190R,0.960122X0.045722*%
%ADD191R,1.325878X0.045722*%
%ADD192R,1.737359X0.045722*%
%ADD193R,1.005837X0.045719*%
%ADD194R,1.463037X0.045719*%
%ADD195R,1.463037X0.045722*%
%ADD196R,2.331722X0.045722*%
%ADD197R,1.508759X0.045719*%
%ADD198R,1.600200X0.045719*%
%ADD199R,1.920241X0.045719*%
%ADD200R,2.011678X0.045719*%
%ADD201R,2.011678X0.045722*%
%ADD202R,0.502922X0.045722*%
%ADD203R,2.148837X0.045719*%
%ADD204R,1.234441X0.045719*%
%ADD205R,2.103119X0.045722*%
%ADD206R,1.188722X0.045722*%
%ADD207R,1.783078X0.045719*%
%ADD208R,2.103119X0.045719*%
%ADD209R,11.155678X0.045722*%
%ADD210R,11.201400X0.045719*%
%ADD211R,11.155681X0.045719*%
%ADD212R,11.155678X0.045719*%
%ADD213R,1.645919X0.045722*%
%ADD214R,11.109959X0.045722*%
%ADD215R,11.109962X0.045719*%
%ADD216R,11.064241X0.045719*%
%ADD217R,11.064238X0.045722*%
%ADD218R,11.064238X0.045719*%
%ADD219R,11.018522X0.045722*%
%ADD220R,11.018519X0.045719*%
%ADD221R,11.064241X0.045722*%
%ADD222R,11.109959X0.045719*%
%ADD223R,13.167359X0.045722*%
%ADD224R,14.493241X0.045719*%
%ADD225R,13.898881X0.045719*%
%ADD226R,13.853159X0.045722*%
%ADD227R,13.807441X0.045719*%
%ADD228R,13.716000X0.045722*%
%ADD229R,1.097281X0.045722*%
%ADD230R,0.548638X0.045722*%
%ADD231R,0.822963X0.045719*%
%ADD232R,4.572000X0.045722*%
%ADD233R,2.651759X0.045722*%
%ADD234R,7.452359X0.045719*%
%ADD235R,7.452359X0.045722*%
%ADD236R,2.240278X0.045719*%
%ADD237R,2.240278X0.045722*%
%ADD238R,8.092441X0.045719*%
%ADD239R,3.886200X0.045719*%
%ADD240R,8.138162X0.045722*%
%ADD241R,3.886200X0.045722*%
%ADD242R,8.229600X0.045719*%
%ADD243R,14.996159X0.045722*%
%ADD244R,2.331719X0.045719*%
%ADD245R,14.996159X0.045719*%
%ADD246R,15.041881X0.045719*%
%ADD247R,15.087600X0.045722*%
%ADD248R,15.499081X0.045719*%
%ADD249R,2.468878X0.045722*%
%ADD250R,15.453359X0.045722*%
%ADD251R,15.361922X0.045719*%
%ADD252R,2.560319X0.045722*%
%ADD253R,15.224759X0.045722*%
%ADD254R,2.606041X0.045719*%
%ADD255R,15.179041X0.045719*%
%ADD256R,2.697478X0.045722*%
%ADD257R,15.179041X0.045722*%
%ADD258R,2.743200X0.045719*%
%ADD259R,15.224759X0.045719*%
%ADD260R,2.834641X0.045719*%


D10*
X383032Y345186D02*
X383032Y352552D01*
X383032Y349278D02*
X378940Y349278D01*
X378940Y352552D02*
X378940Y345186D01*
X374938Y348051D02*
X372892Y347232D01*
X374938Y348051D02*
X374997Y348076D01*
X375054Y348105D01*
X375109Y348138D01*
X375162Y348174D01*
X375213Y348212D01*
X375261Y348254D01*
X375307Y348299D01*
X375350Y348346D01*
X375390Y348396D01*
X375427Y348448D01*
X375461Y348503D01*
X375492Y348559D01*
X375519Y348617D01*
X375542Y348677D01*
X375562Y348737D01*
X375578Y348799D01*
X375591Y348862D01*
X375599Y348926D01*
X375604Y348989D01*
X375605Y349053D01*
X375602Y349117D01*
X375595Y349181D01*
X375584Y349244D01*
X375570Y349306D01*
X375552Y349368D01*
X375530Y349428D01*
X375505Y349487D01*
X375476Y349544D01*
X375443Y349599D01*
X375408Y349652D01*
X375369Y349703D01*
X375327Y349752D01*
X375283Y349798D01*
X375235Y349841D01*
X375186Y349881D01*
X375133Y349918D01*
X375079Y349952D01*
X375023Y349983D01*
X374965Y350010D01*
X374906Y350034D01*
X374845Y350053D01*
X374783Y350070D01*
X374720Y350082D01*
X374657Y350091D01*
X374593Y350096D01*
X374529Y350097D01*
X374393Y350093D01*
X374258Y350085D01*
X374122Y350073D01*
X373988Y350057D01*
X373853Y350037D01*
X373720Y350014D01*
X373587Y349986D01*
X373455Y349955D01*
X373324Y349920D01*
X373194Y349881D01*
X373065Y349838D01*
X372938Y349791D01*
X372812Y349741D01*
X372687Y349687D01*
X372892Y347232D02*
X372833Y347207D01*
X372776Y347178D01*
X372721Y347145D01*
X372668Y347109D01*
X372617Y347071D01*
X372569Y347029D01*
X372523Y346984D01*
X372480Y346937D01*
X372440Y346887D01*
X372403Y346835D01*
X372369Y346780D01*
X372338Y346724D01*
X372311Y346666D01*
X372288Y346606D01*
X372268Y346546D01*
X372252Y346484D01*
X372239Y346421D01*
X372231Y346357D01*
X372226Y346294D01*
X372225Y346230D01*
X372228Y346166D01*
X372235Y346102D01*
X372246Y346039D01*
X372260Y345977D01*
X372278Y345915D01*
X372300Y345855D01*
X372325Y345796D01*
X372354Y345739D01*
X372387Y345684D01*
X372422Y345631D01*
X372461Y345580D01*
X372503Y345531D01*
X372547Y345485D01*
X372595Y345442D01*
X372644Y345402D01*
X372697Y345365D01*
X372751Y345331D01*
X372807Y345300D01*
X372865Y345273D01*
X372924Y345249D01*
X372985Y345230D01*
X373047Y345213D01*
X373110Y345201D01*
X373173Y345192D01*
X373237Y345187D01*
X373301Y345186D01*
X373465Y345190D01*
X373629Y345198D01*
X373793Y345210D01*
X373956Y345226D01*
X374119Y345246D01*
X374282Y345269D01*
X374443Y345297D01*
X374605Y345328D01*
X374765Y345363D01*
X374924Y345402D01*
X375083Y345445D01*
X375240Y345491D01*
X375397Y345541D01*
X375552Y345595D01*
X369282Y345186D02*
X369282Y350097D01*
X369486Y352143D02*
X369486Y352552D01*
X369077Y352552D01*
X369077Y352143D01*
X369486Y352143D01*
X364894Y348051D02*
X363053Y348051D01*
X364894Y348050D02*
X364969Y348048D01*
X365044Y348042D01*
X365118Y348032D01*
X365192Y348019D01*
X365265Y348001D01*
X365337Y347980D01*
X365407Y347955D01*
X365476Y347926D01*
X365544Y347894D01*
X365610Y347858D01*
X365674Y347819D01*
X365736Y347777D01*
X365795Y347731D01*
X365852Y347682D01*
X365907Y347631D01*
X365958Y347576D01*
X366007Y347519D01*
X366053Y347460D01*
X366095Y347398D01*
X366134Y347334D01*
X366170Y347268D01*
X366202Y347200D01*
X366231Y347131D01*
X366256Y347061D01*
X366277Y346989D01*
X366295Y346916D01*
X366308Y346842D01*
X366318Y346768D01*
X366324Y346693D01*
X366326Y346618D01*
X366324Y346543D01*
X366318Y346468D01*
X366308Y346394D01*
X366295Y346320D01*
X366277Y346247D01*
X366256Y346175D01*
X366231Y346105D01*
X366202Y346036D01*
X366170Y345968D01*
X366134Y345902D01*
X366095Y345838D01*
X366053Y345776D01*
X366007Y345717D01*
X365958Y345660D01*
X365907Y345605D01*
X365852Y345554D01*
X365795Y345505D01*
X365736Y345459D01*
X365674Y345417D01*
X365610Y345378D01*
X365544Y345342D01*
X365476Y345310D01*
X365407Y345281D01*
X365337Y345256D01*
X365265Y345235D01*
X365192Y345217D01*
X365118Y345204D01*
X365044Y345194D01*
X364969Y345188D01*
X364894Y345186D01*
X363053Y345186D01*
X363053Y348869D01*
X363052Y348869D02*
X363054Y348938D01*
X363060Y349006D01*
X363069Y349075D01*
X363083Y349142D01*
X363100Y349209D01*
X363121Y349275D01*
X363145Y349339D01*
X363174Y349402D01*
X363205Y349463D01*
X363240Y349522D01*
X363278Y349580D01*
X363320Y349635D01*
X363364Y349687D01*
X363412Y349737D01*
X363462Y349785D01*
X363514Y349829D01*
X363569Y349871D01*
X363627Y349909D01*
X363686Y349944D01*
X363747Y349975D01*
X363810Y350004D01*
X363874Y350028D01*
X363940Y350049D01*
X364007Y350066D01*
X364074Y350080D01*
X364143Y350089D01*
X364211Y350095D01*
X364280Y350097D01*
X365917Y350097D01*
X354921Y350710D02*
X354955Y350769D01*
X354986Y350829D01*
X355013Y350890D01*
X355037Y350954D01*
X355057Y351018D01*
X355074Y351083D01*
X355087Y351149D01*
X355096Y351216D01*
X355101Y351283D01*
X355103Y351351D01*
X355101Y351418D01*
X355095Y351486D01*
X355085Y351552D01*
X355072Y351618D01*
X355055Y351684D01*
X355034Y351748D01*
X355010Y351811D01*
X354982Y351872D01*
X354951Y351932D01*
X354917Y351990D01*
X354879Y352046D01*
X354839Y352100D01*
X354795Y352152D01*
X354749Y352200D01*
X354700Y352247D01*
X354648Y352290D01*
X354594Y352331D01*
X354538Y352368D01*
X354480Y352402D01*
X354420Y352433D01*
X354358Y352461D01*
X354295Y352485D01*
X354231Y352505D01*
X354166Y352522D01*
X354099Y352535D01*
X354033Y352544D01*
X353965Y352550D01*
X353898Y352552D01*
X354921Y350711D02*
X351442Y345186D01*
X352875Y350710D02*
X352841Y350769D01*
X352810Y350829D01*
X352783Y350890D01*
X352759Y350954D01*
X352739Y351018D01*
X352722Y351083D01*
X352709Y351149D01*
X352700Y351216D01*
X352695Y351283D01*
X352693Y351351D01*
X352695Y351418D01*
X352701Y351486D01*
X352711Y351552D01*
X352724Y351618D01*
X352741Y351684D01*
X352762Y351748D01*
X352786Y351811D01*
X352814Y351872D01*
X352845Y351932D01*
X352879Y351990D01*
X352917Y352046D01*
X352957Y352100D01*
X353001Y352152D01*
X353047Y352200D01*
X353096Y352247D01*
X353148Y352290D01*
X353202Y352331D01*
X353258Y352368D01*
X353316Y352402D01*
X353376Y352433D01*
X353438Y352461D01*
X353501Y352485D01*
X353565Y352505D01*
X353630Y352522D01*
X353697Y352535D01*
X353763Y352544D01*
X353831Y352550D01*
X353898Y352552D01*
X355535Y346414D02*
X355533Y346345D01*
X355527Y346277D01*
X355518Y346208D01*
X355504Y346141D01*
X355487Y346074D01*
X355466Y346008D01*
X355442Y345944D01*
X355413Y345881D01*
X355382Y345820D01*
X355347Y345761D01*
X355309Y345703D01*
X355267Y345648D01*
X355223Y345596D01*
X355175Y345546D01*
X355125Y345498D01*
X355073Y345454D01*
X355018Y345412D01*
X354960Y345374D01*
X354901Y345339D01*
X354840Y345308D01*
X354777Y345279D01*
X354713Y345255D01*
X354647Y345234D01*
X354580Y345217D01*
X354513Y345203D01*
X354444Y345194D01*
X354376Y345188D01*
X354307Y345186D01*
X355534Y346414D02*
X355532Y346474D01*
X355527Y346533D01*
X355518Y346593D01*
X355506Y346651D01*
X355491Y346709D01*
X355472Y346766D01*
X355449Y346821D01*
X355424Y346875D01*
X355395Y346928D01*
X355364Y346979D01*
X355329Y347028D01*
X355330Y347028D02*
X352874Y350711D01*
X353693Y345391D02*
X353742Y345356D01*
X353793Y345325D01*
X353846Y345296D01*
X353900Y345271D01*
X353955Y345248D01*
X354012Y345229D01*
X354070Y345214D01*
X354128Y345202D01*
X354188Y345193D01*
X354247Y345188D01*
X354307Y345186D01*
X353693Y345391D02*
X350624Y347641D01*
X344246Y345186D02*
X344246Y352552D01*
X344246Y345186D02*
X340972Y345186D01*
X338314Y345186D02*
X338314Y350097D01*
X338519Y352143D02*
X338519Y352552D01*
X338110Y352552D01*
X338110Y352143D01*
X338519Y352143D01*
X335074Y350097D02*
X335074Y346414D01*
X335075Y346414D02*
X335073Y346345D01*
X335067Y346277D01*
X335058Y346208D01*
X335044Y346141D01*
X335027Y346074D01*
X335006Y346008D01*
X334982Y345944D01*
X334953Y345881D01*
X334922Y345820D01*
X334887Y345761D01*
X334849Y345703D01*
X334807Y345648D01*
X334763Y345596D01*
X334715Y345546D01*
X334665Y345498D01*
X334613Y345454D01*
X334558Y345413D01*
X334500Y345374D01*
X334441Y345339D01*
X334380Y345308D01*
X334317Y345279D01*
X334253Y345255D01*
X334187Y345234D01*
X334120Y345217D01*
X334053Y345203D01*
X333985Y345194D01*
X333916Y345188D01*
X333847Y345186D01*
X331800Y345186D01*
X331800Y350097D01*
D11*
X289789Y361950D03*
D12*
X289789Y362407D03*
D11*
X289789Y362864D03*
X289789Y363322D03*
D12*
X289789Y363779D03*
D11*
X289789Y364236D03*
D12*
X289789Y364693D03*
D11*
X289789Y365150D03*
X289789Y365608D03*
D12*
X289789Y366065D03*
D11*
X289789Y366522D03*
D12*
X289789Y366979D03*
D11*
X289789Y367436D03*
X289789Y367894D03*
D12*
X289789Y368351D03*
D11*
X289789Y368808D03*
D12*
X289789Y369265D03*
D11*
X289789Y369722D03*
X289789Y370180D03*
D13*
X377800Y370637D03*
D14*
X206121Y370637D03*
D15*
X378257Y371094D03*
D16*
X205435Y371094D03*
D17*
X378485Y371551D03*
D18*
X205207Y371551D03*
D19*
X378714Y372008D03*
D20*
X204978Y372008D03*
D19*
X378714Y372466D03*
D20*
X204978Y372466D03*
D21*
X378943Y372923D03*
D22*
X204978Y372923D03*
D23*
X378943Y373380D03*
D24*
X269215Y373380D03*
D25*
X242468Y373380D03*
D26*
X232867Y373380D03*
D27*
X223037Y373380D03*
D28*
X204749Y373380D03*
D21*
X378943Y373837D03*
D29*
X366598Y373837D03*
X357454Y373837D03*
D30*
X348767Y373837D03*
X337795Y373837D03*
X319507Y373837D03*
D31*
X294132Y373837D03*
D32*
X269215Y373837D03*
D33*
X253670Y373837D03*
D34*
X242468Y373837D03*
X233324Y373837D03*
X223723Y373837D03*
X221894Y373837D03*
D35*
X204749Y373837D03*
D23*
X378943Y374294D03*
X366598Y374294D03*
X357454Y374294D03*
D36*
X348539Y374294D03*
D23*
X337795Y374294D03*
D37*
X327050Y374294D03*
D38*
X319964Y374294D03*
D39*
X316763Y374294D03*
D37*
X311963Y374294D03*
D39*
X305333Y374294D03*
D37*
X300990Y374294D03*
D27*
X294361Y374294D03*
D40*
X291160Y374294D03*
D37*
X286360Y374294D03*
X281788Y374294D03*
D24*
X269215Y374294D03*
D41*
X253670Y374294D03*
D39*
X241783Y374294D03*
D42*
X233782Y374294D03*
D24*
X221209Y374294D03*
D28*
X204749Y374294D03*
D23*
X378943Y374752D03*
D43*
X367055Y374752D03*
X357911Y374752D03*
D44*
X348539Y374752D03*
D39*
X339623Y374752D03*
D42*
X335737Y374752D03*
D37*
X327050Y374752D03*
D38*
X319964Y374752D03*
D39*
X316763Y374752D03*
D37*
X311963Y374752D03*
D27*
X305333Y374752D03*
D37*
X300990Y374752D03*
D45*
X294589Y374752D03*
D40*
X291160Y374752D03*
D37*
X286360Y374752D03*
X281788Y374752D03*
D24*
X269215Y374752D03*
X256870Y374752D03*
X253670Y374752D03*
D42*
X241097Y374752D03*
X234239Y374752D03*
D24*
X221209Y374752D03*
D28*
X204749Y374752D03*
D21*
X378943Y375209D03*
D46*
X367284Y375209D03*
D47*
X357911Y375209D03*
D13*
X348539Y375209D03*
D34*
X340309Y375209D03*
D48*
X327050Y375209D03*
X320650Y375209D03*
D30*
X316763Y375209D03*
D48*
X311963Y375209D03*
D49*
X305333Y375209D03*
D50*
X300990Y375209D03*
D48*
X295046Y375209D03*
D29*
X291160Y375209D03*
D48*
X286360Y375209D03*
X281788Y375209D03*
D32*
X269215Y375209D03*
X256870Y375209D03*
X253670Y375209D03*
D34*
X240640Y375209D03*
D31*
X234696Y375209D03*
D34*
X221437Y375209D03*
D35*
X204749Y375209D03*
D23*
X378943Y375666D03*
D38*
X368884Y375666D03*
X359740Y375666D03*
D27*
X351053Y375666D03*
D45*
X346253Y375666D03*
D42*
X340766Y375666D03*
D37*
X327050Y375666D03*
X320650Y375666D03*
D39*
X316763Y375666D03*
D40*
X311734Y375666D03*
D27*
X305333Y375666D03*
D51*
X300990Y375666D03*
D37*
X295046Y375666D03*
D40*
X291160Y375666D03*
D37*
X286360Y375666D03*
X281788Y375666D03*
D24*
X269215Y375666D03*
X256870Y375666D03*
X253670Y375666D03*
D42*
X240182Y375666D03*
X235153Y375666D03*
D52*
X222352Y375666D03*
D28*
X204749Y375666D03*
D21*
X378943Y376123D03*
D49*
X369341Y376123D03*
X360197Y376123D03*
X351053Y376123D03*
D53*
X346024Y376123D03*
D54*
X340995Y376123D03*
D34*
X338023Y376123D03*
D30*
X335509Y376123D03*
D48*
X327050Y376123D03*
X320650Y376123D03*
D30*
X316763Y376123D03*
D29*
X311734Y376123D03*
D55*
X305333Y376123D03*
D50*
X300990Y376123D03*
D48*
X295046Y376123D03*
D29*
X291160Y376123D03*
D48*
X286360Y376123D03*
X281788Y376123D03*
D32*
X273787Y376123D03*
X269215Y376123D03*
X264643Y376123D03*
X256870Y376123D03*
X253670Y376123D03*
D34*
X239725Y376123D03*
X235610Y376123D03*
D56*
X222352Y376123D03*
D35*
X204749Y376123D03*
D23*
X378943Y376580D03*
D37*
X369570Y376580D03*
X360426Y376580D03*
X351282Y376580D03*
X345796Y376580D03*
D57*
X340995Y376580D03*
D58*
X336423Y376580D03*
D37*
X327050Y376580D03*
D38*
X319964Y376580D03*
D37*
X316535Y376580D03*
D40*
X311734Y376580D03*
X306248Y376580D03*
D42*
X304190Y376580D03*
X301904Y376580D03*
D39*
X299847Y376580D03*
D27*
X294361Y376580D03*
D40*
X291160Y376580D03*
D37*
X286360Y376580D03*
X281788Y376580D03*
D59*
X269215Y376580D03*
D24*
X256870Y376580D03*
X253670Y376580D03*
X239497Y376580D03*
D42*
X236068Y376580D03*
D57*
X222123Y376580D03*
D28*
X204749Y376580D03*
D23*
X378943Y377038D03*
D37*
X369570Y377038D03*
X360426Y377038D03*
X351282Y377038D03*
X345796Y377038D03*
D24*
X341452Y377038D03*
D42*
X338480Y377038D03*
D40*
X335966Y377038D03*
D24*
X333680Y377038D03*
D37*
X327050Y377038D03*
D58*
X318135Y377038D03*
D40*
X311734Y377038D03*
X306248Y377038D03*
D42*
X304190Y377038D03*
D39*
X302133Y377038D03*
D42*
X299618Y377038D03*
D19*
X292760Y377038D03*
D37*
X286360Y377038D03*
X281788Y377038D03*
D59*
X269215Y377038D03*
D24*
X256870Y377038D03*
X253670Y377038D03*
X239039Y377038D03*
X236296Y377038D03*
D42*
X221437Y377038D03*
D28*
X204749Y377038D03*
D21*
X378943Y377495D03*
D48*
X369570Y377495D03*
X360426Y377495D03*
X351282Y377495D03*
X345796Y377495D03*
D32*
X341452Y377495D03*
D54*
X338709Y377495D03*
D32*
X335966Y377495D03*
X333223Y377495D03*
D48*
X327050Y377495D03*
D60*
X317449Y377495D03*
D29*
X311734Y377495D03*
D30*
X306705Y377495D03*
D55*
X303047Y377495D03*
D29*
X299390Y377495D03*
D61*
X291846Y377495D03*
D48*
X286360Y377495D03*
X281788Y377495D03*
D32*
X273787Y377495D03*
X269215Y377495D03*
X264643Y377495D03*
X256870Y377495D03*
X253670Y377495D03*
X239039Y377495D03*
X236753Y377495D03*
D29*
X220294Y377495D03*
D62*
X217322Y377495D03*
D35*
X204749Y377495D03*
D23*
X378943Y377952D03*
D37*
X369570Y377952D03*
X360426Y377952D03*
X351282Y377952D03*
X345796Y377952D03*
D25*
X341224Y377952D03*
D42*
X338480Y377952D03*
X335737Y377952D03*
D24*
X333223Y377952D03*
D37*
X327050Y377952D03*
D27*
X316763Y377952D03*
D40*
X311734Y377952D03*
D39*
X306705Y377952D03*
D45*
X302819Y377952D03*
D40*
X299390Y377952D03*
D38*
X291160Y377952D03*
D27*
X286131Y377952D03*
D37*
X281788Y377952D03*
D24*
X273787Y377952D03*
X269215Y377952D03*
X264643Y377952D03*
X256870Y377952D03*
X253670Y377952D03*
X238582Y377952D03*
X236753Y377952D03*
X227152Y377952D03*
D15*
X222352Y377952D03*
D57*
X217551Y377952D03*
D28*
X204749Y377952D03*
D21*
X378943Y378409D03*
D48*
X369570Y378409D03*
X360426Y378409D03*
D49*
X351053Y378409D03*
D48*
X345796Y378409D03*
D54*
X340995Y378409D03*
D34*
X338480Y378409D03*
X335737Y378409D03*
D32*
X333223Y378409D03*
D48*
X327050Y378409D03*
X316535Y378409D03*
X311506Y378409D03*
X306934Y378409D03*
D49*
X303047Y378409D03*
D48*
X299161Y378409D03*
X290932Y378409D03*
D13*
X284074Y378409D03*
D32*
X273787Y378409D03*
X269215Y378409D03*
X264643Y378409D03*
D34*
X257099Y378409D03*
D63*
X251612Y378409D03*
D32*
X238582Y378409D03*
X237211Y378409D03*
X227152Y378409D03*
D17*
X222580Y378409D03*
D34*
X217322Y378409D03*
D22*
X204978Y378409D03*
D23*
X378943Y378866D03*
D37*
X369570Y378866D03*
X360426Y378866D03*
D27*
X351053Y378866D03*
X345567Y378866D03*
D57*
X340995Y378866D03*
D64*
X336880Y378866D03*
D65*
X332994Y378866D03*
D37*
X327050Y378866D03*
D58*
X318135Y378866D03*
D37*
X311506Y378866D03*
X306934Y378866D03*
D27*
X303047Y378866D03*
D39*
X298933Y378866D03*
D43*
X292532Y378866D03*
D44*
X284074Y378866D03*
D24*
X273787Y378866D03*
X269215Y378866D03*
X264643Y378866D03*
D42*
X257099Y378866D03*
D43*
X251384Y378866D03*
D37*
X237896Y378866D03*
D24*
X227152Y378866D03*
X217094Y378866D03*
D20*
X204978Y378866D03*
D23*
X378943Y379324D03*
D27*
X369341Y379324D03*
X360197Y379324D03*
X351053Y379324D03*
X345567Y379324D03*
D42*
X340766Y379324D03*
D66*
X336423Y379324D03*
D24*
X333223Y379324D03*
D37*
X327050Y379324D03*
D19*
X318364Y379324D03*
D37*
X311506Y379324D03*
D40*
X307162Y379324D03*
D37*
X302819Y379324D03*
X298704Y379324D03*
D19*
X292760Y379324D03*
D37*
X286360Y379324D03*
D64*
X282931Y379324D03*
D24*
X273787Y379324D03*
X269215Y379324D03*
X264643Y379324D03*
X256870Y379324D03*
D42*
X253441Y379324D03*
D40*
X237668Y379324D03*
D67*
X222123Y379324D03*
D20*
X204978Y379324D03*
D21*
X378943Y379781D03*
D53*
X368884Y379781D03*
X359740Y379781D03*
D49*
X351053Y379781D03*
X345567Y379781D03*
D32*
X340538Y379781D03*
X333223Y379781D03*
D48*
X327050Y379781D03*
D61*
X318364Y379781D03*
X292760Y379781D03*
D48*
X282702Y379781D03*
D32*
X273787Y379781D03*
X269215Y379781D03*
X264643Y379781D03*
X256870Y379781D03*
D34*
X253441Y379781D03*
X237896Y379781D03*
D68*
X222352Y379781D03*
D22*
X204978Y379781D03*
D23*
X378943Y380238D03*
D66*
X368427Y380238D03*
D25*
X364084Y380238D03*
D66*
X359283Y380238D03*
D25*
X354940Y380238D03*
D37*
X350825Y380238D03*
D27*
X345567Y380238D03*
D42*
X340309Y380238D03*
X333451Y380238D03*
D44*
X327050Y380238D03*
D24*
X273787Y380238D03*
X269215Y380238D03*
X264643Y380238D03*
X256870Y380238D03*
D42*
X253441Y380238D03*
X237896Y380238D03*
D57*
X226695Y380238D03*
D25*
X223266Y380238D03*
D26*
X221437Y380238D03*
D24*
X218008Y380238D03*
D20*
X204978Y380238D03*
D21*
X378943Y380695D03*
D69*
X366827Y380695D03*
X357683Y380695D03*
D48*
X350825Y380695D03*
D49*
X345567Y380695D03*
D30*
X339623Y380695D03*
D34*
X333908Y380695D03*
D70*
X326822Y380695D03*
D32*
X273787Y380695D03*
X269215Y380695D03*
X264643Y380695D03*
D71*
X257099Y380695D03*
D34*
X253441Y380695D03*
D72*
X237668Y380695D03*
D49*
X225781Y380695D03*
X222123Y380695D03*
D34*
X218237Y380695D03*
D22*
X204978Y380695D03*
D23*
X378943Y381152D03*
D43*
X366598Y381152D03*
X357454Y381152D03*
D37*
X350825Y381152D03*
X345338Y381152D03*
X338480Y381152D03*
D25*
X336652Y381152D03*
D37*
X334823Y381152D03*
D73*
X326822Y381152D03*
D37*
X311506Y381152D03*
D59*
X269215Y381152D03*
D24*
X253670Y381152D03*
D74*
X237896Y381152D03*
D37*
X225552Y381152D03*
D39*
X222123Y381152D03*
D27*
X218923Y381152D03*
D28*
X204749Y381152D03*
D23*
X378943Y381610D03*
X366141Y381610D03*
X356997Y381610D03*
D37*
X350825Y381610D03*
X345338Y381610D03*
D23*
X336423Y381610D03*
D73*
X326822Y381610D03*
D37*
X311506Y381610D03*
D59*
X269215Y381610D03*
D24*
X253670Y381610D03*
X237668Y381610D03*
D25*
X226466Y381610D03*
D39*
X222123Y381610D03*
D24*
X218008Y381610D03*
D28*
X204749Y381610D03*
D21*
X378943Y382067D03*
D31*
X268986Y382067D03*
D32*
X253670Y382067D03*
X237668Y382067D03*
D48*
X225552Y382067D03*
D71*
X221437Y382067D03*
D49*
X218923Y382067D03*
D35*
X204749Y382067D03*
D23*
X378943Y382524D03*
D24*
X269215Y382524D03*
D42*
X253441Y382524D03*
D24*
X237668Y382524D03*
D37*
X225552Y382524D03*
D24*
X223037Y382524D03*
D26*
X221437Y382524D03*
D37*
X218694Y382524D03*
D28*
X204749Y382524D03*
D21*
X378943Y382981D03*
D32*
X269215Y382981D03*
D72*
X253670Y382981D03*
D32*
X237668Y382981D03*
D62*
X226466Y382981D03*
D30*
X222123Y382981D03*
D32*
X218008Y382981D03*
D35*
X204749Y382981D03*
D23*
X378943Y383438D03*
D24*
X269215Y383438D03*
D59*
X253670Y383438D03*
D24*
X237668Y383438D03*
D37*
X225552Y383438D03*
X222352Y383438D03*
D27*
X218923Y383438D03*
D28*
X204749Y383438D03*
D23*
X378943Y383896D03*
D24*
X269215Y383896D03*
X224866Y383896D03*
D26*
X221437Y383896D03*
D20*
X204978Y383896D03*
D63*
X378714Y384353D03*
D22*
X204978Y384353D03*
D19*
X378714Y384810D03*
D75*
X205207Y384810D03*
D17*
X378485Y385267D03*
D76*
X205435Y385267D03*
D77*
X378028Y385724D03*
D78*
X205664Y385724D03*
D11*
X289789Y386182D03*
D12*
X289789Y386639D03*
D11*
X289789Y387096D03*
D12*
X289789Y387553D03*
D11*
X289789Y388010D03*
X289789Y388468D03*
D12*
X289789Y388925D03*
D11*
X289789Y389382D03*
D12*
X289789Y389839D03*
D79*
X372542Y390296D03*
D80*
X277673Y390296D03*
D81*
X373456Y390754D03*
D82*
X276758Y390754D03*
D83*
X374142Y391211D03*
D84*
X276073Y391211D03*
D85*
X374599Y391668D03*
D86*
X275615Y391668D03*
D87*
X375056Y392125D03*
D88*
X275158Y392125D03*
D89*
X375514Y392582D03*
D90*
X274701Y392582D03*
D41*
X375742Y393040D03*
D91*
X288646Y393040D03*
D92*
X211607Y393040D03*
D68*
X375971Y393497D03*
D93*
X288646Y393497D03*
D94*
X211150Y393497D03*
D52*
X376428Y393954D03*
D95*
X288417Y393954D03*
D96*
X210922Y393954D03*
D97*
X376657Y394411D03*
D98*
X288188Y394411D03*
D99*
X210693Y394411D03*
D100*
X376885Y394868D03*
D19*
X360426Y394868D03*
D101*
X287731Y394868D03*
D102*
X210464Y394868D03*
D103*
X377114Y395326D03*
D104*
X360426Y395326D03*
D105*
X287731Y395326D03*
D102*
X210464Y395326D03*
D106*
X377342Y395783D03*
D107*
X360426Y395783D03*
D108*
X286131Y395783D03*
D109*
X210236Y395783D03*
D110*
X377571Y396240D03*
D28*
X360197Y396240D03*
D111*
X285674Y396240D03*
D112*
X210236Y396240D03*
D13*
X377800Y396697D03*
D83*
X360426Y396697D03*
D113*
X326822Y396697D03*
D114*
X299618Y396697D03*
D106*
X287731Y396697D03*
D115*
X273101Y396697D03*
D97*
X258242Y396697D03*
D69*
X247498Y396697D03*
D116*
X233324Y396697D03*
D109*
X210236Y396697D03*
D77*
X378028Y397154D03*
D117*
X360197Y397154D03*
D96*
X332537Y397154D03*
D27*
X310363Y397154D03*
D24*
X304876Y397154D03*
D27*
X299847Y397154D03*
D25*
X295046Y397154D03*
D15*
X287731Y397154D03*
D23*
X276987Y397154D03*
D19*
X268986Y397154D03*
D24*
X262357Y397154D03*
D23*
X256413Y397154D03*
D118*
X247955Y397154D03*
D119*
X237896Y397154D03*
D44*
X228752Y397154D03*
D120*
X210007Y397154D03*
D77*
X378028Y397612D03*
D121*
X359969Y397612D03*
D122*
X332308Y397612D03*
D27*
X310363Y397612D03*
D25*
X304648Y397612D03*
D45*
X299618Y397612D03*
D23*
X287960Y397612D03*
D119*
X276758Y397612D03*
D19*
X268986Y397612D03*
D25*
X262128Y397612D03*
D119*
X256642Y397612D03*
D64*
X248183Y397612D03*
D118*
X237439Y397612D03*
D123*
X228981Y397612D03*
D120*
X210007Y397612D03*
D69*
X378257Y398069D03*
D124*
X359969Y398069D03*
D125*
X332080Y398069D03*
D48*
X310591Y398069D03*
D62*
X304648Y398069D03*
D126*
X299618Y398069D03*
D55*
X287960Y398069D03*
X276530Y398069D03*
D21*
X269215Y398069D03*
D62*
X262128Y398069D03*
D61*
X256642Y398069D03*
D50*
X248412Y398069D03*
D55*
X237211Y398069D03*
D47*
X228981Y398069D03*
D127*
X209779Y398069D03*
D43*
X378485Y398526D03*
D128*
X359969Y398526D03*
D129*
X331851Y398526D03*
D37*
X310591Y398526D03*
D39*
X305333Y398526D03*
D45*
X299618Y398526D03*
D64*
X287960Y398526D03*
D45*
X276301Y398526D03*
D23*
X269215Y398526D03*
D40*
X262814Y398526D03*
D119*
X256642Y398526D03*
D37*
X248412Y398526D03*
D51*
X236982Y398526D03*
D123*
X228981Y398526D03*
D130*
X209779Y398526D03*
D17*
X378485Y398983D03*
D131*
X359969Y398983D03*
D125*
X331622Y398983D03*
D30*
X310363Y398983D03*
X305333Y398983D03*
D126*
X299618Y398983D03*
D34*
X293675Y398983D03*
D53*
X287960Y398983D03*
D71*
X282245Y398983D03*
D126*
X276301Y398983D03*
D21*
X269215Y398983D03*
D29*
X262814Y398983D03*
D61*
X256642Y398983D03*
D62*
X250698Y398983D03*
D48*
X248412Y398983D03*
D62*
X242926Y398983D03*
D50*
X236982Y398983D03*
D69*
X229210Y398983D03*
D132*
X209550Y398983D03*
D19*
X378714Y399440D03*
D133*
X359740Y399440D03*
D112*
X331394Y399440D03*
D44*
X312877Y399440D03*
D42*
X305105Y399440D03*
D45*
X299618Y399440D03*
D37*
X293675Y399440D03*
D38*
X287960Y399440D03*
D37*
X282245Y399440D03*
D27*
X276073Y399440D03*
D23*
X269215Y399440D03*
D42*
X262585Y399440D03*
D119*
X256642Y399440D03*
X249326Y399440D03*
D37*
X242926Y399440D03*
D51*
X236982Y399440D03*
D15*
X229210Y399440D03*
D134*
X209550Y399440D03*
D23*
X378943Y399898D03*
D135*
X359740Y399898D03*
D120*
X331165Y399898D03*
D44*
X312877Y399898D03*
D25*
X304648Y399898D03*
D45*
X299618Y399898D03*
D37*
X293675Y399898D03*
D38*
X287960Y399898D03*
X282016Y399898D03*
D27*
X276073Y399898D03*
D23*
X269215Y399898D03*
D119*
X256642Y399898D03*
X249326Y399898D03*
D37*
X242926Y399898D03*
D27*
X236753Y399898D03*
D15*
X229210Y399898D03*
D134*
X209550Y399898D03*
D21*
X378943Y400355D03*
D127*
X359740Y400355D03*
X330937Y400355D03*
D136*
X312649Y400355D03*
D126*
X299618Y400355D03*
D48*
X293675Y400355D03*
X287731Y400355D03*
D53*
X282016Y400355D03*
D49*
X276073Y400355D03*
D63*
X268986Y400355D03*
D61*
X256642Y400355D03*
D137*
X249555Y400355D03*
D49*
X242697Y400355D03*
X236753Y400355D03*
D17*
X229438Y400355D03*
D62*
X223266Y400355D03*
D138*
X209321Y400355D03*
D118*
X379171Y400812D03*
D120*
X359969Y400812D03*
D130*
X330937Y400812D03*
D139*
X312420Y400812D03*
D45*
X299618Y400812D03*
D38*
X293446Y400812D03*
D37*
X287731Y400812D03*
D38*
X282016Y400812D03*
D27*
X276073Y400812D03*
D43*
X268757Y400812D03*
D119*
X256642Y400812D03*
D66*
X249555Y400812D03*
D27*
X242697Y400812D03*
X236753Y400812D03*
D43*
X229438Y400812D03*
D25*
X223266Y400812D03*
D135*
X209321Y400812D03*
D60*
X379171Y401269D03*
D18*
X364769Y401269D03*
D140*
X352196Y401269D03*
D132*
X330708Y401269D03*
D141*
X311963Y401269D03*
D126*
X299618Y401269D03*
D48*
X293675Y401269D03*
X287731Y401269D03*
D53*
X282016Y401269D03*
D49*
X276073Y401269D03*
D69*
X268072Y401269D03*
D61*
X256642Y401269D03*
X249326Y401269D03*
D49*
X242697Y401269D03*
X236753Y401269D03*
D17*
X229438Y401269D03*
D32*
X223495Y401269D03*
D142*
X209093Y401269D03*
D64*
X379400Y401726D03*
D143*
X364998Y401726D03*
D139*
X351282Y401726D03*
D135*
X330479Y401726D03*
D74*
X310591Y401726D03*
D45*
X299618Y401726D03*
D37*
X293675Y401726D03*
X287731Y401726D03*
D38*
X282016Y401726D03*
D27*
X276073Y401726D03*
D139*
X266700Y401726D03*
D119*
X256642Y401726D03*
X249326Y401726D03*
D37*
X242926Y401726D03*
D27*
X236753Y401726D03*
D23*
X229438Y401726D03*
D65*
X223266Y401726D03*
D144*
X209093Y401726D03*
D64*
X379400Y402184D03*
D16*
X365455Y402184D03*
D145*
X350825Y402184D03*
D135*
X330479Y402184D03*
D89*
X310134Y402184D03*
D45*
X299618Y402184D03*
D37*
X293675Y402184D03*
D38*
X287960Y402184D03*
D40*
X282016Y402184D03*
D27*
X276073Y402184D03*
D44*
X265328Y402184D03*
D119*
X256642Y402184D03*
X249326Y402184D03*
D42*
X242926Y402184D03*
D51*
X236982Y402184D03*
D38*
X228524Y402184D03*
D65*
X223266Y402184D03*
D133*
X208864Y402184D03*
D55*
X379400Y402641D03*
D18*
X365684Y402641D03*
D136*
X350139Y402641D03*
D142*
X330251Y402641D03*
D136*
X312191Y402641D03*
D126*
X306019Y402641D03*
X299618Y402641D03*
D71*
X293675Y402641D03*
D126*
X287731Y402641D03*
X276301Y402641D03*
D53*
X267386Y402641D03*
D126*
X263500Y402641D03*
D49*
X257327Y402641D03*
X248183Y402641D03*
D50*
X236982Y402641D03*
D48*
X228295Y402641D03*
D31*
X223266Y402641D03*
D146*
X208864Y402641D03*
D45*
X379628Y403098D03*
D110*
X369341Y403098D03*
D15*
X362255Y403098D03*
X349453Y403098D03*
D133*
X330022Y403098D03*
D110*
X312191Y403098D03*
D24*
X305333Y403098D03*
D45*
X299618Y403098D03*
X287731Y403098D03*
X276301Y403098D03*
D38*
X267386Y403098D03*
D24*
X262814Y403098D03*
D45*
X257099Y403098D03*
D27*
X248183Y403098D03*
D64*
X237211Y403098D03*
D40*
X228524Y403098D03*
D37*
X223266Y403098D03*
D147*
X208636Y403098D03*
D126*
X379628Y403555D03*
D13*
X369570Y403555D03*
D63*
X361798Y403555D03*
D17*
X348767Y403555D03*
D146*
X330022Y403555D03*
D136*
X312191Y403555D03*
D126*
X299618Y403555D03*
D60*
X287731Y403555D03*
D55*
X276530Y403555D03*
D126*
X267157Y403555D03*
X257099Y403555D03*
X247955Y403555D03*
D55*
X237211Y403555D03*
D29*
X228524Y403555D03*
D48*
X223266Y403555D03*
D148*
X208636Y403555D03*
D45*
X379628Y404012D03*
D110*
X369799Y404012D03*
D66*
X361569Y404012D03*
D15*
X348539Y404012D03*
D133*
X330022Y404012D03*
D110*
X312191Y404012D03*
D66*
X299847Y404012D03*
D43*
X287503Y404012D03*
D119*
X276758Y404012D03*
D45*
X267157Y404012D03*
D64*
X257327Y404012D03*
X247726Y404012D03*
D23*
X237668Y404012D03*
D40*
X228524Y404012D03*
D37*
X223266Y404012D03*
D147*
X208636Y404012D03*
D27*
X379857Y404470D03*
D44*
X370027Y404470D03*
D27*
X361569Y404470D03*
D123*
X348767Y404470D03*
D147*
X329794Y404470D03*
D145*
X311963Y404470D03*
D119*
X300076Y404470D03*
D110*
X287503Y404470D03*
D58*
X276987Y404470D03*
D25*
X271272Y404470D03*
D45*
X267157Y404470D03*
D119*
X257556Y404470D03*
D23*
X247269Y404470D03*
D19*
X237896Y404470D03*
D26*
X231953Y404470D03*
D40*
X228524Y404470D03*
D51*
X223266Y404470D03*
D147*
X208636Y404470D03*
D49*
X379857Y404927D03*
D149*
X370256Y404927D03*
D34*
X361340Y404927D03*
D13*
X348539Y404927D03*
D150*
X329565Y404927D03*
D151*
X306934Y404927D03*
D152*
X274472Y404927D03*
D153*
X224866Y404927D03*
D27*
X379857Y405384D03*
D44*
X370484Y405384D03*
D25*
X361340Y405384D03*
D145*
X348539Y405384D03*
D154*
X329565Y405384D03*
D155*
X306934Y405384D03*
D156*
X274472Y405384D03*
D157*
X224866Y405384D03*
D48*
X380086Y405841D03*
D69*
X370484Y405841D03*
D32*
X356083Y405841D03*
D106*
X348539Y405841D03*
D150*
X329565Y405841D03*
D158*
X306705Y405841D03*
D152*
X274472Y405841D03*
D153*
X224866Y405841D03*
D37*
X380086Y406298D03*
D23*
X370256Y406298D03*
D37*
X355854Y406298D03*
D100*
X348539Y406298D03*
D159*
X329336Y406298D03*
D160*
X306705Y406298D03*
D161*
X273558Y406298D03*
D157*
X224866Y406298D03*
D37*
X380086Y406756D03*
D64*
X369799Y406756D03*
D45*
X355397Y406756D03*
D100*
X348539Y406756D03*
D159*
X329336Y406756D03*
D160*
X306705Y406756D03*
D162*
X246355Y406756D03*
D48*
X380086Y407213D03*
X369570Y407213D03*
D18*
X350596Y407213D03*
D163*
X329108Y407213D03*
D158*
X306705Y407213D03*
D164*
X246355Y407213D03*
D40*
X380314Y407670D03*
D24*
X369341Y407670D03*
D16*
X350825Y407670D03*
D165*
X268529Y407670D03*
D29*
X380314Y408127D03*
D62*
X364084Y408127D03*
D166*
X351053Y408127D03*
D167*
X268529Y408127D03*
D40*
X380314Y408584D03*
D42*
X364084Y408584D03*
D23*
X356083Y408584D03*
D59*
X348310Y408584D03*
D168*
X268300Y408584D03*
D40*
X380314Y409042D03*
D27*
X363855Y409042D03*
D23*
X356540Y409042D03*
D52*
X348082Y409042D03*
D168*
X268300Y409042D03*
D29*
X380314Y409499D03*
D126*
X363626Y409499D03*
D63*
X356768Y409499D03*
D169*
X347853Y409499D03*
D170*
X268300Y409499D03*
D40*
X380314Y409956D03*
D23*
X363398Y409956D03*
D19*
X357226Y409956D03*
D52*
X347624Y409956D03*
D171*
X268072Y409956D03*
D29*
X380314Y410413D03*
D69*
X363169Y410413D03*
D23*
X357454Y410413D03*
D56*
X347624Y410413D03*
D172*
X268072Y410413D03*
D42*
X380543Y410870D03*
D24*
X372085Y410870D03*
D67*
X360655Y410870D03*
D173*
X347167Y410870D03*
D171*
X268072Y410870D03*
D42*
X380543Y411328D03*
D39*
X371627Y411328D03*
D41*
X361112Y411328D03*
D174*
X346939Y411328D03*
D171*
X268072Y411328D03*
D34*
X380543Y411785D03*
D53*
X371170Y411785D03*
D114*
X361340Y411785D03*
D97*
X346939Y411785D03*
D166*
X330022Y411785D03*
D93*
X258928Y411785D03*
D42*
X380543Y412242D03*
D66*
X370713Y412242D03*
D67*
X361569Y412242D03*
D104*
X346710Y412242D03*
D75*
X330479Y412242D03*
D28*
X312191Y412242D03*
D175*
X288874Y412242D03*
D74*
X263042Y412242D03*
D43*
X247726Y412242D03*
D103*
X232639Y412242D03*
D154*
X208407Y412242D03*
D34*
X380543Y412699D03*
D21*
X370256Y412699D03*
D114*
X361798Y412699D03*
D176*
X346481Y412699D03*
D22*
X330708Y412699D03*
D114*
X312420Y412699D03*
D141*
X289103Y412699D03*
D106*
X263042Y412699D03*
D126*
X247498Y412699D03*
D17*
X232639Y412699D03*
D177*
X207721Y412699D03*
D42*
X380543Y413156D03*
D178*
X364769Y413156D03*
D100*
X346253Y413156D03*
D28*
X330937Y413156D03*
D59*
X312649Y413156D03*
D110*
X289331Y413156D03*
D15*
X263042Y413156D03*
D39*
X247269Y413156D03*
D23*
X232639Y413156D03*
D155*
X207264Y413156D03*
D42*
X380543Y413614D03*
D89*
X369570Y413614D03*
D43*
X359740Y413614D03*
D103*
X346024Y413614D03*
D28*
X330937Y413614D03*
D52*
X312420Y413614D03*
D179*
X289560Y413614D03*
D19*
X263042Y413614D03*
D57*
X247269Y413614D03*
D64*
X232639Y413614D03*
D79*
X207035Y413614D03*
D34*
X380543Y414071D03*
D114*
X369570Y414071D03*
D61*
X359054Y414071D03*
D106*
X345796Y414071D03*
D180*
X330937Y414071D03*
D140*
X312420Y414071D03*
D63*
X289560Y414071D03*
D21*
X263271Y414071D03*
D49*
X232639Y414071D03*
D181*
X206807Y414071D03*
D42*
X380543Y414528D03*
D182*
X369570Y414528D03*
D38*
X358826Y414528D03*
D145*
X345796Y414528D03*
D183*
X330937Y414528D03*
D103*
X312649Y414528D03*
D64*
X289789Y414528D03*
D66*
X263271Y414528D03*
D39*
X232639Y414528D03*
D121*
X206807Y414528D03*
D34*
X380543Y414985D03*
D107*
X369570Y414985D03*
D30*
X358369Y414985D03*
D136*
X345567Y414985D03*
D180*
X330937Y414985D03*
D184*
X312420Y414985D03*
D55*
X289789Y414985D03*
D126*
X263500Y414985D03*
D30*
X232639Y414985D03*
D185*
X206578Y414985D03*
D40*
X380314Y415442D03*
D59*
X369799Y415442D03*
D44*
X345338Y415442D03*
D186*
X330708Y415442D03*
D110*
X312649Y415442D03*
D45*
X290017Y415442D03*
X263500Y415442D03*
D39*
X232639Y415442D03*
D187*
X206578Y415442D03*
D40*
X380314Y415900D03*
D59*
X369799Y415900D03*
D25*
X353568Y415900D03*
D145*
X345338Y415900D03*
D186*
X330708Y415900D03*
D44*
X312420Y415900D03*
D38*
X290246Y415900D03*
D37*
X263500Y415900D03*
D39*
X232639Y415900D03*
D187*
X206578Y415900D03*
D29*
X380314Y416357D03*
D126*
X373228Y416357D03*
D21*
X367513Y416357D03*
D32*
X353339Y416357D03*
D188*
X345567Y416357D03*
D189*
X330708Y416357D03*
D13*
X312420Y416357D03*
D48*
X290474Y416357D03*
D29*
X263728Y416357D03*
D30*
X232639Y416357D03*
D185*
X206578Y416357D03*
D40*
X380314Y416814D03*
D38*
X373456Y416814D03*
D64*
X367055Y416814D03*
D39*
X353339Y416814D03*
D174*
X346024Y416814D03*
D186*
X330708Y416814D03*
D44*
X312420Y416814D03*
D37*
X290474Y416814D03*
D40*
X263728Y416814D03*
D39*
X232639Y416814D03*
D187*
X206578Y416814D03*
D29*
X380314Y417271D03*
D48*
X373685Y417271D03*
D34*
X366370Y417271D03*
D48*
X353568Y417271D03*
D190*
X346253Y417271D03*
D35*
X330479Y417271D03*
D47*
X312191Y417271D03*
D30*
X290703Y417271D03*
X264185Y417271D03*
X232639Y417271D03*
D185*
X206578Y417271D03*
D40*
X380314Y417728D03*
D37*
X373685Y417728D03*
D25*
X365912Y417728D03*
D20*
X348082Y417728D03*
D28*
X330479Y417728D03*
D44*
X311963Y417728D03*
D39*
X290703Y417728D03*
X264185Y417728D03*
X232639Y417728D03*
D121*
X206807Y417728D03*
D40*
X380314Y418186D03*
D42*
X373685Y418186D03*
D25*
X361340Y418186D03*
D75*
X348310Y418186D03*
D85*
X330251Y418186D03*
D77*
X311734Y418186D03*
D37*
X290932Y418186D03*
X264414Y418186D03*
X232867Y418186D03*
D121*
X206807Y418186D03*
D29*
X380314Y418643D03*
D34*
X373685Y418643D03*
D29*
X361112Y418643D03*
D18*
X348310Y418643D03*
D191*
X330251Y418643D03*
D149*
X311734Y418643D03*
D48*
X291389Y418643D03*
D49*
X264643Y418643D03*
D126*
X232867Y418643D03*
D192*
X207035Y418643D03*
D37*
X380086Y419100D03*
D24*
X373913Y419100D03*
D45*
X360883Y419100D03*
D16*
X348539Y419100D03*
D75*
X330022Y419100D03*
D44*
X311506Y419100D03*
D51*
X291846Y419100D03*
D45*
X265328Y419100D03*
D119*
X233324Y419100D03*
D128*
X207721Y419100D03*
D48*
X380086Y419557D03*
D62*
X374142Y419557D03*
D21*
X360197Y419557D03*
D76*
X348539Y419557D03*
D18*
X330022Y419557D03*
D47*
X311277Y419557D03*
D97*
X294818Y419557D03*
D181*
X272186Y419557D03*
D126*
X252527Y419557D03*
D56*
X236068Y419557D03*
D125*
X210464Y419557D03*
D37*
X380086Y420014D03*
D15*
X359512Y420014D03*
D23*
X353797Y420014D03*
D173*
X346253Y420014D03*
D75*
X330022Y420014D03*
D123*
X311277Y420014D03*
D174*
X294818Y420014D03*
D155*
X272644Y420014D03*
D36*
X252527Y420014D03*
D193*
X235839Y420014D03*
D112*
X210236Y420014D03*
D37*
X380086Y420472D03*
D41*
X357454Y420472D03*
D104*
X345796Y420472D03*
D143*
X329794Y420472D03*
D77*
X310820Y420472D03*
D100*
X294589Y420472D03*
D160*
X272872Y420472D03*
D43*
X252298Y420472D03*
D52*
X235610Y420472D03*
D112*
X210236Y420472D03*
D49*
X379857Y420929D03*
D30*
X369341Y420929D03*
D68*
X357683Y420929D03*
D106*
X345338Y420929D03*
D83*
X329794Y420929D03*
D149*
X310820Y420929D03*
D176*
X294818Y420929D03*
D158*
X272872Y420929D03*
D149*
X252298Y420929D03*
D72*
X235382Y420929D03*
D109*
X210236Y420929D03*
D27*
X379857Y421386D03*
D45*
X368656Y421386D03*
D182*
X358140Y421386D03*
D44*
X344881Y421386D03*
D194*
X329565Y421386D03*
D123*
X310363Y421386D03*
D145*
X294589Y421386D03*
D128*
X273101Y421386D03*
D77*
X252298Y421386D03*
D59*
X235382Y421386D03*
D120*
X210007Y421386D03*
D49*
X379857Y421843D03*
D63*
X368198Y421843D03*
D107*
X358140Y421843D03*
D17*
X344653Y421843D03*
D195*
X329565Y421843D03*
D47*
X310363Y421843D03*
D106*
X294589Y421843D03*
D97*
X268300Y421843D03*
D13*
X252070Y421843D03*
D190*
X235153Y421843D03*
D196*
X210007Y421843D03*
D27*
X379857Y422300D03*
D15*
X367741Y422300D03*
D119*
X361798Y422300D03*
D15*
X356311Y422300D03*
D23*
X344195Y422300D03*
D194*
X329565Y422300D03*
D123*
X310363Y422300D03*
D145*
X294589Y422300D03*
D73*
X267386Y422300D03*
D44*
X252070Y422300D03*
D59*
X234925Y422300D03*
D130*
X209779Y422300D03*
D45*
X379628Y422758D03*
D57*
X372999Y422758D03*
D41*
X365684Y422758D03*
D23*
X356083Y422758D03*
D64*
X343738Y422758D03*
D197*
X329336Y422758D03*
D123*
X309905Y422758D03*
D110*
X294361Y422758D03*
D123*
X266929Y422758D03*
D145*
X252070Y422758D03*
D52*
X234696Y422758D03*
D130*
X209779Y422758D03*
D126*
X379628Y423215D03*
D87*
X366827Y423215D03*
D50*
X355854Y423215D03*
D60*
X343967Y423215D03*
D14*
X329565Y423215D03*
D47*
X309905Y423215D03*
D136*
X294361Y423215D03*
D17*
X266471Y423215D03*
D136*
X251841Y423215D03*
D72*
X234467Y423215D03*
D127*
X209779Y423215D03*
D45*
X379628Y423672D03*
D37*
X371856Y423672D03*
D174*
X365227Y423672D03*
D27*
X355625Y423672D03*
D118*
X343967Y423672D03*
D198*
X329336Y423672D03*
D77*
X309448Y423672D03*
D110*
X293903Y423672D03*
D36*
X266243Y423672D03*
D110*
X251841Y423672D03*
D59*
X234467Y423672D03*
D134*
X209550Y423672D03*
D55*
X379400Y424129D03*
D30*
X371627Y424129D03*
D184*
X364998Y424129D03*
D34*
X355397Y424129D03*
D21*
X344195Y424129D03*
D116*
X329336Y424129D03*
D149*
X309448Y424129D03*
D136*
X293903Y424129D03*
D21*
X266014Y424129D03*
D106*
X251612Y424129D03*
D190*
X234239Y424129D03*
D132*
X209550Y424129D03*
D64*
X379400Y424586D03*
D39*
X371627Y424586D03*
D123*
X364769Y424586D03*
D119*
X344424Y424586D03*
D198*
X329336Y424586D03*
D44*
X309220Y424586D03*
D110*
X293903Y424586D03*
D23*
X265557Y424586D03*
D145*
X251612Y424586D03*
D59*
X234010Y424586D03*
D135*
X209321Y424586D03*
D64*
X379400Y425044D03*
D39*
X371627Y425044D03*
D43*
X364312Y425044D03*
D57*
X350139Y425044D03*
D23*
X344653Y425044D03*
D187*
X329108Y425044D03*
D123*
X308991Y425044D03*
D44*
X293675Y425044D03*
D119*
X265328Y425044D03*
D103*
X251384Y425044D03*
D52*
X233782Y425044D03*
D135*
X209321Y425044D03*
D60*
X379171Y425501D03*
D34*
X371399Y425501D03*
D21*
X364312Y425501D03*
D48*
X349910Y425501D03*
D21*
X344653Y425501D03*
D181*
X329336Y425501D03*
D47*
X308991Y425501D03*
D13*
X293675Y425501D03*
D61*
X265328Y425501D03*
D106*
X251155Y425501D03*
D169*
X233553Y425501D03*
D138*
X209321Y425501D03*
D118*
X379171Y425958D03*
D24*
X371170Y425958D03*
D27*
X363855Y425958D03*
D64*
X349682Y425958D03*
D36*
X344881Y425958D03*
D79*
X329108Y425958D03*
D77*
X308534Y425958D03*
X293446Y425958D03*
D64*
X265100Y425958D03*
D145*
X251155Y425958D03*
D193*
X233553Y425958D03*
D144*
X209093Y425958D03*
D21*
X378943Y426415D03*
D32*
X371170Y426415D03*
D48*
X363626Y426415D03*
D141*
X347167Y426415D03*
D192*
X329108Y426415D03*
D149*
X308534Y426415D03*
D13*
X293218Y426415D03*
D60*
X264871Y426415D03*
D184*
X250698Y426415D03*
D56*
X233324Y426415D03*
D142*
X209093Y426415D03*
D23*
X378943Y426872D03*
D25*
X370942Y426872D03*
D24*
X363398Y426872D03*
D174*
X347396Y426872D03*
D79*
X329108Y426872D03*
D123*
X308077Y426872D03*
D44*
X293218Y426872D03*
D64*
X264643Y426872D03*
D139*
X250698Y426872D03*
D59*
X233096Y426872D03*
D133*
X208864Y426872D03*
D19*
X378714Y427330D03*
D25*
X370942Y427330D03*
D24*
X358369Y427330D03*
D174*
X347853Y427330D03*
D160*
X329108Y427330D03*
D123*
X308077Y427330D03*
X292989Y427330D03*
D64*
X264643Y427330D03*
D145*
X250241Y427330D03*
D173*
X232867Y427330D03*
D133*
X208864Y427330D03*
D63*
X378714Y427787D03*
D31*
X358140Y427787D03*
D56*
X348082Y427787D03*
D158*
X329108Y427787D03*
D46*
X307848Y427787D03*
D13*
X292760Y427787D03*
D60*
X278587Y427787D03*
D61*
X264414Y427787D03*
D106*
X250241Y427787D03*
D72*
X232639Y427787D03*
D148*
X208636Y427787D03*
D43*
X378485Y428244D03*
D27*
X357911Y428244D03*
D52*
X348082Y428244D03*
D128*
X328879Y428244D03*
D179*
X307848Y428244D03*
D77*
X292532Y428244D03*
D15*
X277673Y428244D03*
D119*
X264414Y428244D03*
D73*
X250012Y428244D03*
D59*
X232639Y428244D03*
D147*
X208636Y428244D03*
D17*
X378485Y428701D03*
D60*
X357683Y428701D03*
D190*
X348539Y428701D03*
D163*
X329108Y428701D03*
D69*
X307391Y428701D03*
D149*
X292532Y428701D03*
D69*
X277216Y428701D03*
D60*
X263957Y428701D03*
D13*
X249784Y428701D03*
D72*
X232181Y428701D03*
D148*
X208636Y428701D03*
D15*
X378257Y429158D03*
D23*
X357454Y429158D03*
D59*
X348767Y429158D03*
D199*
X329108Y429158D03*
D43*
X307162Y429158D03*
D44*
X292303Y429158D03*
D58*
X276987Y429158D03*
D118*
X263957Y429158D03*
D123*
X249555Y429158D03*
D59*
X232181Y429158D03*
D154*
X208407Y429158D03*
D15*
X378257Y429616D03*
D198*
X352196Y429616D03*
D200*
X329108Y429616D03*
D23*
X307162Y429616D03*
D123*
X292075Y429616D03*
D19*
X276758Y429616D03*
D36*
X263957Y429616D03*
D15*
X249326Y429616D03*
D173*
X231953Y429616D03*
D154*
X208407Y429616D03*
D149*
X378028Y430073D03*
D54*
X366141Y430073D03*
D116*
X352654Y430073D03*
D201*
X329108Y430073D03*
D126*
X306934Y430073D03*
D13*
X291846Y430073D03*
D21*
X276530Y430073D03*
D202*
X263957Y430073D03*
D63*
X249326Y430073D03*
D70*
X233096Y430073D03*
D115*
X205892Y430073D03*
D44*
X377800Y430530D03*
D40*
X365684Y430530D03*
D198*
X352654Y430530D03*
D133*
X329108Y430530D03*
D25*
X306934Y430530D03*
D110*
X291617Y430530D03*
D45*
X276301Y430530D03*
D43*
X263728Y430530D03*
D64*
X249098Y430530D03*
D44*
X233324Y430530D03*
D16*
X205435Y430530D03*
D13*
X377800Y430987D03*
D49*
X365227Y430987D03*
D116*
X353111Y430987D03*
D146*
X329108Y430987D03*
D136*
X291617Y430987D03*
D69*
X263500Y430987D03*
D34*
X248869Y430987D03*
D69*
X233324Y430987D03*
D22*
X204978Y430987D03*
D110*
X377571Y431444D03*
D64*
X364769Y431444D03*
D198*
X353568Y431444D03*
D144*
X329336Y431444D03*
D145*
X291389Y431444D03*
D15*
X263500Y431444D03*
D58*
X233553Y431444D03*
D28*
X204749Y431444D03*
D145*
X377342Y431902D03*
D147*
X356311Y431902D03*
D135*
X329108Y431902D03*
D103*
X291160Y431902D03*
D123*
X263271Y431902D03*
D19*
X233324Y431902D03*
D28*
X204749Y431902D03*
D106*
X377342Y432359D03*
D146*
X356540Y432359D03*
D142*
X328879Y432359D03*
D176*
X291160Y432359D03*
D13*
X263042Y432359D03*
D63*
X233324Y432359D03*
D87*
X204521Y432359D03*
D103*
X377114Y432816D03*
D200*
X356540Y432816D03*
D203*
X328422Y432816D03*
D104*
X290932Y432816D03*
D145*
X263042Y432816D03*
D23*
X233553Y432816D03*
D204*
X204521Y432816D03*
D141*
X376885Y433273D03*
D177*
X356311Y433273D03*
D205*
X328193Y433273D03*
D56*
X290932Y433273D03*
D176*
X262814Y433273D03*
D21*
X233096Y433273D03*
D206*
X204292Y433273D03*
D174*
X376657Y433730D03*
D207*
X356311Y433730D03*
D208*
X328193Y433730D03*
D193*
X290703Y433730D03*
D174*
X262814Y433730D03*
D23*
X233096Y433730D03*
D175*
X204292Y433730D03*
D52*
X376428Y434188D03*
D121*
X356311Y434188D03*
D133*
X327736Y434188D03*
D74*
X290474Y434188D03*
D59*
X262814Y434188D03*
D23*
X233096Y434188D03*
D175*
X204292Y434188D03*
D72*
X376199Y434645D03*
D115*
X356311Y434645D03*
D148*
X327508Y434645D03*
D206*
X290246Y434645D03*
D68*
X262585Y434645D03*
D21*
X233096Y434645D03*
D206*
X204292Y434645D03*
D74*
X375971Y435102D03*
D75*
X356083Y435102D03*
D208*
X327279Y435102D03*
D28*
X290246Y435102D03*
D89*
X262585Y435102D03*
D36*
X232867Y435102D03*
D175*
X204292Y435102D03*
D33*
X375742Y435559D03*
D87*
X356311Y435559D03*
D148*
X327050Y435559D03*
D54*
X308991Y435559D03*
D18*
X290246Y435559D03*
D191*
X262585Y435559D03*
D32*
X243154Y435559D03*
D17*
X233096Y435559D03*
D87*
X204521Y435559D03*
D89*
X375514Y436016D03*
D59*
X356083Y436016D03*
D147*
X326593Y436016D03*
D42*
X308762Y436016D03*
D197*
X290017Y436016D03*
D16*
X262585Y436016D03*
D42*
X243383Y436016D03*
D77*
X233096Y436016D03*
D204*
X204521Y436016D03*
D183*
X375285Y436474D03*
D110*
X356083Y436474D03*
D147*
X326136Y436474D03*
D38*
X308534Y436474D03*
D178*
X289789Y436474D03*
D198*
X262585Y436474D03*
D45*
X243383Y436474D03*
D110*
X232639Y436474D03*
D28*
X204749Y436474D03*
D87*
X375056Y436931D03*
D50*
X355854Y436931D03*
D142*
X325679Y436931D03*
D21*
X308534Y436931D03*
D158*
X289789Y436931D03*
D124*
X262585Y436931D03*
D60*
X243383Y436931D03*
D141*
X232867Y436931D03*
D22*
X204978Y436931D03*
D28*
X374828Y437388D03*
D134*
X324764Y437388D03*
D73*
X308534Y437388D03*
D208*
X289331Y437388D03*
D147*
X262585Y437388D03*
D44*
X243383Y437388D03*
D89*
X232410Y437388D03*
D197*
X205892Y437388D03*
D18*
X374371Y437845D03*
D209*
X279730Y437845D03*
D181*
X206807Y437845D03*
D143*
X374142Y438302D03*
D210*
X279502Y438302D03*
D187*
X206578Y438302D03*
D197*
X373685Y438760D03*
D211*
X279273Y438760D03*
D187*
X206578Y438760D03*
D116*
X373228Y439217D03*
D209*
X278816Y439217D03*
D116*
X206350Y439217D03*
D178*
X372999Y439674D03*
D212*
X278816Y439674D03*
D198*
X206350Y439674D03*
D213*
X372999Y440131D03*
D214*
X278587Y440131D03*
D116*
X206350Y440131D03*
D178*
X372999Y440588D03*
D215*
X278130Y440588D03*
D117*
X206121Y440588D03*
D178*
X372999Y441046D03*
D216*
X277901Y441046D03*
D117*
X206121Y441046D03*
D213*
X372999Y441503D03*
D214*
X277673Y441503D03*
D14*
X206121Y441503D03*
D178*
X372999Y441960D03*
D216*
X277444Y441960D03*
D197*
X205892Y441960D03*
D213*
X372999Y442417D03*
D217*
X276987Y442417D03*
D115*
X205892Y442417D03*
D178*
X372999Y442874D03*
D218*
X276987Y442874D03*
D197*
X205892Y442874D03*
D178*
X372999Y443332D03*
D216*
X276530Y443332D03*
D197*
X205892Y443332D03*
D213*
X372999Y443789D03*
D32*
X342367Y443789D03*
D219*
X276301Y443789D03*
D115*
X205892Y443789D03*
D178*
X372999Y444246D03*
D45*
X341224Y444246D03*
D220*
X275844Y444246D03*
D117*
X206121Y444246D03*
D213*
X372999Y444703D03*
D17*
X340081Y444703D03*
D221*
X275615Y444703D03*
D14*
X206121Y444703D03*
D178*
X372999Y445160D03*
D103*
X339166Y445160D03*
D216*
X275158Y445160D03*
D198*
X206350Y445160D03*
D178*
X372999Y445618D03*
D59*
X338252Y445618D03*
D222*
X274472Y445618D03*
D187*
X206578Y445618D03*
D213*
X372999Y446075D03*
D87*
X337109Y446075D03*
D223*
X264185Y446075D03*
D178*
X372999Y446532D03*
D224*
X270815Y446532D03*
D116*
X373228Y446989D03*
D49*
X342367Y446989D03*
D167*
X268529Y446989D03*
D198*
X373228Y447446D03*
D25*
X355854Y447446D03*
D37*
X342595Y447446D03*
D171*
X268072Y447446D03*
D198*
X373228Y447904D03*
D65*
X355854Y447904D03*
D37*
X342595Y447904D03*
D225*
X267843Y447904D03*
D116*
X373228Y448361D03*
D48*
X355854Y448361D03*
X342595Y448361D03*
D226*
X267614Y448361D03*
D198*
X373228Y448818D03*
D51*
X355854Y448818D03*
D45*
X342595Y448818D03*
D227*
X267386Y448818D03*
D116*
X373228Y449275D03*
D61*
X355854Y449275D03*
D55*
X342367Y449275D03*
D228*
X266929Y449275D03*
D198*
X373228Y449732D03*
D19*
X355854Y449732D03*
D23*
X341909Y449732D03*
D174*
X330479Y449732D03*
D45*
X322936Y449732D03*
D23*
X317221Y449732D03*
D38*
X311734Y449732D03*
D36*
X306019Y449732D03*
D45*
X300533Y449732D03*
D36*
X294589Y449732D03*
D45*
X288188Y449732D03*
X283159Y449732D03*
D118*
X277673Y449732D03*
D19*
X270358Y449732D03*
D57*
X263271Y449732D03*
D64*
X259613Y449732D03*
D119*
X253898Y449732D03*
D64*
X248641Y449732D03*
D57*
X242697Y449732D03*
D39*
X239497Y449732D03*
D24*
X237211Y449732D03*
D15*
X231038Y449732D03*
D36*
X222809Y449732D03*
X215951Y449732D03*
D45*
X210464Y449732D03*
D104*
X202692Y449732D03*
D198*
X373228Y450190D03*
D179*
X355854Y450190D03*
D43*
X341909Y450190D03*
D104*
X330708Y450190D03*
D37*
X322936Y450190D03*
D119*
X316992Y450190D03*
D37*
X311506Y450190D03*
D118*
X306019Y450190D03*
D37*
X300533Y450190D03*
D118*
X294589Y450190D03*
D27*
X288417Y450190D03*
D45*
X283159Y450190D03*
D37*
X278130Y450190D03*
D45*
X269900Y450190D03*
D27*
X259613Y450190D03*
D66*
X254127Y450190D03*
D27*
X248641Y450190D03*
D24*
X239497Y450190D03*
D36*
X230581Y450190D03*
X222809Y450190D03*
D118*
X215951Y450190D03*
D37*
X210464Y450190D03*
D103*
X202463Y450190D03*
D116*
X373228Y450647D03*
D136*
X355625Y450647D03*
D149*
X341452Y450647D03*
D176*
X330479Y450647D03*
D30*
X322707Y450647D03*
D55*
X317221Y450647D03*
D29*
X311734Y450647D03*
D126*
X306019Y450647D03*
D48*
X300533Y450647D03*
D21*
X294361Y450647D03*
D49*
X288417Y450647D03*
X282931Y450647D03*
D30*
X278359Y450647D03*
D48*
X269900Y450647D03*
D49*
X259613Y450647D03*
D137*
X254127Y450647D03*
D48*
X248869Y450647D03*
D32*
X239954Y450647D03*
D61*
X230124Y450647D03*
D202*
X222809Y450647D03*
D60*
X215951Y450647D03*
D29*
X210236Y450647D03*
D176*
X202463Y450647D03*
D198*
X373228Y451104D03*
D139*
X355854Y451104D03*
D40*
X343738Y451104D03*
D38*
X339166Y451104D03*
D110*
X330479Y451104D03*
D42*
X322936Y451104D03*
D51*
X316992Y451104D03*
D40*
X311734Y451104D03*
D45*
X306019Y451104D03*
D42*
X300533Y451104D03*
D23*
X293903Y451104D03*
D45*
X288646Y451104D03*
D27*
X282931Y451104D03*
D42*
X278587Y451104D03*
D40*
X269672Y451104D03*
D51*
X259842Y451104D03*
D45*
X253898Y451104D03*
D40*
X249098Y451104D03*
D42*
X239725Y451104D03*
D23*
X229438Y451104D03*
D43*
X223037Y451104D03*
D64*
X216179Y451104D03*
D42*
X210464Y451104D03*
D145*
X202235Y451104D03*
D116*
X373228Y451561D03*
D97*
X355625Y451561D03*
D29*
X343738Y451561D03*
D48*
X338480Y451561D03*
D136*
X330479Y451561D03*
D34*
X322936Y451561D03*
D49*
X317221Y451561D03*
D34*
X311506Y451561D03*
D49*
X305791Y451561D03*
D34*
X300533Y451561D03*
D97*
X291617Y451561D03*
D48*
X283159Y451561D03*
D32*
X278816Y451561D03*
X269672Y451561D03*
D50*
X259842Y451561D03*
D137*
X254127Y451561D03*
D29*
X249098Y451561D03*
D34*
X239725Y451561D03*
D229*
X225781Y451561D03*
D55*
X216179Y451561D03*
D34*
X210464Y451561D03*
D106*
X202235Y451561D03*
D198*
X373228Y452018D03*
D182*
X355854Y452018D03*
D39*
X344195Y452018D03*
D37*
X338023Y452018D03*
D44*
X330251Y452018D03*
D57*
X322707Y452018D03*
D37*
X316992Y452018D03*
D24*
X311734Y452018D03*
D27*
X305791Y452018D03*
D24*
X300304Y452018D03*
D174*
X291617Y452018D03*
D37*
X283159Y452018D03*
D24*
X278816Y452018D03*
D38*
X274244Y452018D03*
D24*
X269672Y452018D03*
D37*
X265328Y452018D03*
D64*
X260071Y452018D03*
D66*
X254127Y452018D03*
D40*
X249098Y452018D03*
D38*
X244526Y452018D03*
D40*
X239954Y452018D03*
X235382Y452018D03*
D67*
X225781Y452018D03*
D64*
X216179Y452018D03*
D24*
X210236Y452018D03*
D73*
X202006Y452018D03*
D198*
X373228Y452476D03*
D89*
X355854Y452476D03*
D39*
X344195Y452476D03*
X337795Y452476D03*
D44*
X330251Y452476D03*
D57*
X322707Y452476D03*
D37*
X316992Y452476D03*
D25*
X311506Y452476D03*
D37*
X306019Y452476D03*
D26*
X300533Y452476D03*
D100*
X291389Y452476D03*
D37*
X283159Y452476D03*
D57*
X279273Y452476D03*
D118*
X274015Y452476D03*
D42*
X269900Y452476D03*
D27*
X265557Y452476D03*
D64*
X260071Y452476D03*
D66*
X254127Y452476D03*
D42*
X249326Y452476D03*
D38*
X244526Y452476D03*
D40*
X239954Y452476D03*
D64*
X235382Y452476D03*
D182*
X225552Y452476D03*
D64*
X216179Y452476D03*
D24*
X210236Y452476D03*
D73*
X202006Y452476D03*
D116*
X373228Y452933D03*
D60*
X359969Y452933D03*
D149*
X352882Y452933D03*
D48*
X343967Y452933D03*
D30*
X337337Y452933D03*
D69*
X330251Y452933D03*
D54*
X322707Y452933D03*
D48*
X316992Y452933D03*
D62*
X311506Y452933D03*
D30*
X305791Y452933D03*
D71*
X300533Y452933D03*
D141*
X291389Y452933D03*
D48*
X283159Y452933D03*
D54*
X279273Y452933D03*
D17*
X271958Y452933D03*
D49*
X265557Y452933D03*
D55*
X260071Y452933D03*
D137*
X254127Y452933D03*
D34*
X249326Y452933D03*
D126*
X244754Y452933D03*
D29*
X239954Y452933D03*
D60*
X235153Y452933D03*
D107*
X225552Y452933D03*
D50*
X216408Y452933D03*
D71*
X210007Y452933D03*
D70*
X202006Y452933D03*
D198*
X373228Y453390D03*
D119*
X360426Y453390D03*
D123*
X352425Y453390D03*
D38*
X343738Y453390D03*
D39*
X337337Y453390D03*
D15*
X330251Y453390D03*
D39*
X316763Y453390D03*
X305791Y453390D03*
D100*
X291389Y453390D03*
D37*
X283159Y453390D03*
D57*
X279273Y453390D03*
D118*
X271729Y453390D03*
D27*
X265557Y453390D03*
D64*
X260071Y453390D03*
D66*
X254127Y453390D03*
D42*
X249326Y453390D03*
D45*
X244754Y453390D03*
D40*
X239954Y453390D03*
D118*
X235153Y453390D03*
D182*
X225552Y453390D03*
D51*
X216408Y453390D03*
D44*
X201778Y453390D03*
D116*
X373228Y453847D03*
D21*
X360655Y453847D03*
D13*
X352196Y453847D03*
D61*
X343510Y453847D03*
D29*
X336880Y453847D03*
D17*
X330022Y453847D03*
D62*
X324764Y453847D03*
X320192Y453847D03*
D31*
X316992Y453847D03*
D62*
X309220Y453847D03*
D30*
X305791Y453847D03*
D176*
X291160Y453847D03*
D48*
X283159Y453847D03*
D54*
X279273Y453847D03*
D50*
X271272Y453847D03*
D49*
X265557Y453847D03*
D55*
X260071Y453847D03*
D137*
X254127Y453847D03*
D34*
X249326Y453847D03*
D126*
X244754Y453847D03*
D29*
X239954Y453847D03*
D60*
X235153Y453847D03*
D107*
X225552Y453847D03*
D50*
X216408Y453847D03*
D71*
X207721Y453847D03*
D13*
X201778Y453847D03*
D198*
X373228Y454304D03*
D23*
X361112Y454304D03*
D73*
X351968Y454304D03*
D23*
X343281Y454304D03*
D40*
X336880Y454304D03*
D43*
X330022Y454304D03*
D25*
X324764Y454304D03*
X320192Y454304D03*
D65*
X316992Y454304D03*
D25*
X313792Y454304D03*
X309220Y454304D03*
D39*
X305791Y454304D03*
D25*
X302362Y454304D03*
D24*
X298018Y454304D03*
D103*
X291160Y454304D03*
D39*
X282931Y454304D03*
D57*
X279273Y454304D03*
D38*
X270586Y454304D03*
D27*
X265557Y454304D03*
D64*
X260071Y454304D03*
D66*
X254127Y454304D03*
D42*
X249326Y454304D03*
D38*
X244526Y454304D03*
D40*
X239954Y454304D03*
D118*
X235153Y454304D03*
D182*
X225552Y454304D03*
D51*
X216408Y454304D03*
D26*
X212293Y454304D03*
X207721Y454304D03*
D44*
X201778Y454304D03*
D198*
X373228Y454762D03*
D19*
X361340Y454762D03*
D39*
X354711Y454762D03*
D119*
X349910Y454762D03*
D118*
X342595Y454762D03*
D39*
X336423Y454762D03*
D43*
X330022Y454762D03*
D25*
X324764Y454762D03*
X320192Y454762D03*
D65*
X316992Y454762D03*
D57*
X313563Y454762D03*
X308991Y454762D03*
D24*
X305791Y454762D03*
D25*
X302362Y454762D03*
D24*
X298018Y454762D03*
D103*
X291160Y454762D03*
D39*
X282931Y454762D03*
D57*
X279273Y454762D03*
D25*
X275844Y454762D03*
D37*
X270358Y454762D03*
D27*
X265557Y454762D03*
D64*
X260071Y454762D03*
D66*
X254127Y454762D03*
D40*
X249098Y454762D03*
D38*
X244526Y454762D03*
D40*
X239954Y454762D03*
D118*
X235153Y454762D03*
D182*
X225552Y454762D03*
D51*
X216408Y454762D03*
D26*
X212293Y454762D03*
X207721Y454762D03*
D44*
X201778Y454762D03*
D116*
X373228Y455219D03*
D230*
X361569Y455219D03*
D29*
X355168Y455219D03*
D55*
X349682Y455219D03*
D50*
X342138Y455219D03*
D30*
X336423Y455219D03*
D17*
X330022Y455219D03*
D32*
X324536Y455219D03*
D54*
X320421Y455219D03*
D32*
X316763Y455219D03*
D54*
X313563Y455219D03*
X308991Y455219D03*
D32*
X305791Y455219D03*
X302590Y455219D03*
X298018Y455219D03*
D176*
X291160Y455219D03*
D31*
X282702Y455219D03*
D34*
X279044Y455219D03*
D29*
X275158Y455219D03*
D30*
X270129Y455219D03*
D48*
X265328Y455219D03*
D55*
X260071Y455219D03*
D137*
X254127Y455219D03*
D29*
X249098Y455219D03*
D48*
X244297Y455219D03*
D29*
X239954Y455219D03*
D60*
X235153Y455219D03*
D107*
X225552Y455219D03*
D50*
X216408Y455219D03*
D32*
X212065Y455219D03*
X207493Y455219D03*
D47*
X201549Y455219D03*
D198*
X373228Y455676D03*
D15*
X361798Y455676D03*
D40*
X355168Y455676D03*
D45*
X349910Y455676D03*
X341681Y455676D03*
D39*
X336423Y455676D03*
D36*
X330251Y455676D03*
D24*
X324536Y455676D03*
D42*
X320192Y455676D03*
D24*
X316763Y455676D03*
D57*
X313563Y455676D03*
X308991Y455676D03*
D24*
X305791Y455676D03*
D42*
X302362Y455676D03*
D24*
X298018Y455676D03*
D145*
X290932Y455676D03*
D24*
X282473Y455676D03*
D42*
X279044Y455676D03*
D37*
X274472Y455676D03*
D40*
X269672Y455676D03*
X265100Y455676D03*
D64*
X260071Y455676D03*
D66*
X254127Y455676D03*
D40*
X249098Y455676D03*
D39*
X244069Y455676D03*
D40*
X239954Y455676D03*
D27*
X234925Y455676D03*
D182*
X225552Y455676D03*
D27*
X216637Y455676D03*
D24*
X212065Y455676D03*
D42*
X207721Y455676D03*
D123*
X201549Y455676D03*
D138*
X370256Y456133D03*
D29*
X355168Y456133D03*
D49*
X350139Y456133D03*
D53*
X341452Y456133D03*
D34*
X336194Y456133D03*
D21*
X330022Y456133D03*
D32*
X324536Y456133D03*
D34*
X320192Y456133D03*
D32*
X316763Y456133D03*
D34*
X313334Y456133D03*
X309220Y456133D03*
D62*
X305562Y456133D03*
D34*
X302362Y456133D03*
X297790Y456133D03*
D106*
X290932Y456133D03*
D29*
X278816Y456133D03*
X269672Y456133D03*
D48*
X260756Y456133D03*
D30*
X253213Y456133D03*
D48*
X248869Y456133D03*
D29*
X239954Y456133D03*
D56*
X226466Y456133D03*
D32*
X215722Y456133D03*
X212065Y456133D03*
D34*
X207721Y456133D03*
D47*
X201549Y456133D03*
D135*
X370256Y456590D03*
D39*
X355625Y456590D03*
D37*
X350368Y456590D03*
D38*
X341452Y456590D03*
D42*
X336194Y456590D03*
D23*
X330022Y456590D03*
D40*
X324536Y456590D03*
D42*
X320192Y456590D03*
D25*
X316992Y456590D03*
D42*
X313334Y456590D03*
D39*
X308991Y456590D03*
D25*
X305562Y456590D03*
D42*
X302362Y456590D03*
X297790Y456590D03*
D145*
X290932Y456590D03*
D40*
X278816Y456590D03*
D37*
X269443Y456590D03*
D57*
X260985Y456590D03*
D65*
X252984Y456590D03*
D27*
X248641Y456590D03*
D40*
X239954Y456590D03*
D174*
X227152Y456590D03*
D25*
X215494Y456590D03*
D65*
X211836Y456590D03*
D42*
X207721Y456590D03*
D15*
X201320Y456590D03*
D135*
X370256Y457048D03*
D39*
X355625Y457048D03*
D38*
X350596Y457048D03*
D27*
X340995Y457048D03*
D42*
X336194Y457048D03*
D23*
X330022Y457048D03*
D40*
X324536Y457048D03*
D42*
X320192Y457048D03*
X313334Y457048D03*
D39*
X308991Y457048D03*
D25*
X305562Y457048D03*
D39*
X302133Y457048D03*
D40*
X298018Y457048D03*
D145*
X290932Y457048D03*
D38*
X278816Y457048D03*
D45*
X269443Y457048D03*
D42*
X261214Y457048D03*
D24*
X252755Y457048D03*
D27*
X248641Y457048D03*
D40*
X239954Y457048D03*
D100*
X227381Y457048D03*
D39*
X212065Y457048D03*
X207493Y457048D03*
D15*
X201320Y457048D03*
D138*
X370256Y457505D03*
D30*
X355625Y457505D03*
D53*
X350596Y457505D03*
D49*
X340995Y457505D03*
D34*
X336194Y457505D03*
D21*
X330022Y457505D03*
D29*
X324536Y457505D03*
D48*
X320192Y457505D03*
X313334Y457505D03*
D30*
X308991Y457505D03*
D62*
X305562Y457505D03*
D30*
X302133Y457505D03*
D29*
X298018Y457505D03*
D136*
X290703Y457505D03*
D126*
X278587Y457505D03*
D60*
X269443Y457505D03*
D34*
X261214Y457505D03*
D32*
X252755Y457505D03*
D55*
X248183Y457505D03*
D48*
X240182Y457505D03*
D97*
X227609Y457505D03*
D62*
X215494Y457505D03*
D30*
X212065Y457505D03*
D48*
X207721Y457505D03*
D69*
X201320Y457505D03*
D135*
X370256Y457962D03*
D39*
X355625Y457962D03*
D38*
X350596Y457962D03*
D27*
X340995Y457962D03*
D42*
X336194Y457962D03*
D19*
X329794Y457962D03*
D37*
X324307Y457962D03*
X320192Y457962D03*
D24*
X316763Y457962D03*
D37*
X313334Y457962D03*
D27*
X308991Y457962D03*
D25*
X305562Y457962D03*
D27*
X302133Y457962D03*
D38*
X298018Y457962D03*
D231*
X290703Y457962D03*
D42*
X284074Y457962D03*
D23*
X278359Y457962D03*
D43*
X269215Y457962D03*
D37*
X261671Y457962D03*
D65*
X252984Y457962D03*
D23*
X247726Y457962D03*
D27*
X240411Y457962D03*
D25*
X236982Y457962D03*
D182*
X227838Y457962D03*
D57*
X215265Y457962D03*
D37*
X211836Y457962D03*
X207721Y457962D03*
D123*
X201549Y457962D03*
D138*
X370256Y458419D03*
D30*
X355625Y458419D03*
D53*
X350596Y458419D03*
D48*
X341224Y458419D03*
D34*
X336194Y458419D03*
D232*
X309448Y458419D03*
D233*
X271501Y458419D03*
D137*
X254127Y458419D03*
D33*
X244526Y458419D03*
D213*
X228981Y458419D03*
D131*
X208178Y458419D03*
D135*
X370256Y458876D03*
D39*
X355625Y458876D03*
D38*
X350596Y458876D03*
D37*
X341224Y458876D03*
D42*
X336194Y458876D03*
D234*
X295504Y458876D03*
D66*
X254127Y458876D03*
D41*
X244526Y458876D03*
D178*
X228981Y458876D03*
D159*
X208178Y458876D03*
D135*
X370256Y459334D03*
D39*
X355625Y459334D03*
D38*
X350596Y459334D03*
X341452Y459334D03*
D39*
X336423Y459334D03*
D234*
X295504Y459334D03*
D66*
X254127Y459334D03*
D41*
X244526Y459334D03*
D178*
X228981Y459334D03*
D159*
X208178Y459334D03*
D138*
X370256Y459791D03*
D34*
X355397Y459791D03*
D49*
X350139Y459791D03*
D53*
X341452Y459791D03*
D30*
X336423Y459791D03*
D235*
X295504Y459791D03*
D137*
X254127Y459791D03*
D33*
X244526Y459791D03*
D213*
X228981Y459791D03*
D131*
X208178Y459791D03*
D236*
X370027Y460248D03*
D40*
X355168Y460248D03*
D45*
X349910Y460248D03*
X341681Y460248D03*
D40*
X336880Y460248D03*
D234*
X295504Y460248D03*
D66*
X254127Y460248D03*
D41*
X244526Y460248D03*
D178*
X228981Y460248D03*
D154*
X208407Y460248D03*
D237*
X370027Y460705D03*
D29*
X355168Y460705D03*
D126*
X349453Y460705D03*
D60*
X341681Y460705D03*
D48*
X337109Y460705D03*
D235*
X295504Y460705D03*
D61*
X254356Y460705D03*
D33*
X244526Y460705D03*
D181*
X228752Y460705D03*
D150*
X208407Y460705D03*
D236*
X370027Y461162D03*
D42*
X354940Y461162D03*
D64*
X348767Y461162D03*
D100*
X340309Y461162D03*
D238*
X292760Y461162D03*
D41*
X244526Y461162D03*
D239*
X217780Y461162D03*
D236*
X370027Y461620D03*
D39*
X354711Y461620D03*
D143*
X343052Y461620D03*
D238*
X292760Y461620D03*
D41*
X244526Y461620D03*
D239*
X217780Y461620D03*
D127*
X369799Y462077D03*
D48*
X354482Y462077D03*
D191*
X342595Y462077D03*
D240*
X292989Y462077D03*
D33*
X244526Y462077D03*
D241*
X217780Y462077D03*
D130*
X369799Y462534D03*
D40*
X354254Y462534D03*
D20*
X342138Y462534D03*
D242*
X292989Y462534D03*
D175*
X244526Y462534D03*
D239*
X217780Y462534D03*
D127*
X369799Y462991D03*
D30*
X353797Y462991D03*
D243*
X273329Y462991D03*
D244*
X369570Y463448D03*
D37*
X353568Y463448D03*
D245*
X273329Y463448D03*
D112*
X369341Y463906D03*
D37*
X353111Y463906D03*
D246*
X273558Y463906D03*
D109*
X369341Y464363D03*
D49*
X352425Y464363D03*
D247*
X273787Y464363D03*
D102*
X369113Y464820D03*
D248*
X275844Y464820D03*
D249*
X368884Y465277D03*
D250*
X275615Y465277D03*
D122*
X368884Y465734D03*
D251*
X275158Y465734D03*
D96*
X368656Y466192D03*
D90*
X274701Y466192D03*
D252*
X368427Y466649D03*
D253*
X274472Y466649D03*
D254*
X368198Y467106D03*
D255*
X274244Y467106D03*
D256*
X367741Y467563D03*
D257*
X274244Y467563D03*
D258*
X367513Y468020D03*
D259*
X274472Y468020D03*
D260*
X367055Y468478D03*
D90*
X274701Y468478D03*
D12*
X289789Y468935D03*
M02*
