G04 EAGLE Gerber RS-274X export*
G75*
%MOMM*%
%FSLAX34Y34*%
%LPD*%
%INSolderpaste Top*%
%IPPOS*%
%AMOC8*
5,1,8,0,0,1.08239X$1,22.5*%
G01*
%ADD10R,1.200000X1.200000*%
%ADD11R,1.300000X1.500000*%


D10*
X300441Y362204D03*
X279441Y362204D03*
X299933Y595884D03*
X278933Y595884D03*
X299933Y621284D03*
X278933Y621284D03*
X299933Y646684D03*
X278933Y646684D03*
X299933Y672084D03*
X278933Y672084D03*
X299933Y697484D03*
X278933Y697484D03*
X299933Y722884D03*
X278933Y722884D03*
X299933Y748284D03*
X278933Y748284D03*
X300441Y387604D03*
X279441Y387604D03*
X300441Y413004D03*
X279441Y413004D03*
X300441Y438404D03*
X279441Y438404D03*
X300441Y463804D03*
X279441Y463804D03*
X300441Y489204D03*
X279441Y489204D03*
X300441Y514604D03*
X279441Y514604D03*
X300441Y540004D03*
X279441Y540004D03*
X299933Y570484D03*
X278933Y570484D03*
D11*
X229641Y362204D03*
X248641Y362204D03*
X229133Y595884D03*
X248133Y595884D03*
X229133Y621284D03*
X248133Y621284D03*
X229133Y646684D03*
X248133Y646684D03*
X229133Y672084D03*
X248133Y672084D03*
X229133Y697484D03*
X248133Y697484D03*
X229133Y722884D03*
X248133Y722884D03*
X229133Y748284D03*
X248133Y748284D03*
X229641Y387604D03*
X248641Y387604D03*
X229641Y413004D03*
X248641Y413004D03*
X229641Y438404D03*
X248641Y438404D03*
X229641Y463804D03*
X248641Y463804D03*
X229641Y489204D03*
X248641Y489204D03*
X229133Y570484D03*
X248133Y570484D03*
X229641Y514604D03*
X248641Y514604D03*
X229641Y540004D03*
X248641Y540004D03*
M02*
