G04 EAGLE Gerber RS-274X export*
G75*
%MOMM*%
%FSLAX34Y34*%
%LPD*%
%INSoldermask Bottom*%
%IPPOS*%
%AMOC8*
5,1,8,0,0,1.08239X$1,22.5*%
G01*
%ADD10C,1.727200*%
%ADD11R,1.491200X1.491200*%
%ADD12C,1.491200*%
%ADD13C,0.959600*%


D10*
X54356Y520319D02*
X69596Y520319D01*
X69596Y494919D02*
X54356Y494919D01*
X54356Y469519D02*
X69596Y469519D01*
X69596Y444119D02*
X54356Y444119D01*
X54356Y418719D02*
X69596Y418719D01*
X355473Y390271D02*
X370713Y390271D01*
X370713Y415671D02*
X355473Y415671D01*
X355473Y441071D02*
X370713Y441071D01*
X370713Y466471D02*
X355473Y466471D01*
X355473Y491871D02*
X370713Y491871D01*
X370713Y517271D02*
X355473Y517271D01*
X355473Y542671D02*
X370713Y542671D01*
X370713Y568071D02*
X355473Y568071D01*
X355473Y593471D02*
X370713Y593471D01*
X370713Y618871D02*
X355473Y618871D01*
X355473Y644271D02*
X370713Y644271D01*
X370713Y669671D02*
X355473Y669671D01*
X355473Y695071D02*
X370713Y695071D01*
X370713Y720471D02*
X355473Y720471D01*
X355473Y745871D02*
X370713Y745871D01*
X370713Y771271D02*
X355473Y771271D01*
D11*
X177241Y387604D03*
D12*
X177241Y413004D03*
X177241Y438404D03*
X177241Y463804D03*
X177241Y489204D03*
X177241Y514604D03*
X177241Y540004D03*
X177241Y565404D03*
X97841Y565404D03*
X97841Y540004D03*
X97841Y514604D03*
X97841Y489204D03*
X97841Y463804D03*
X97841Y438404D03*
X97841Y413004D03*
X97841Y387604D03*
D11*
X176733Y595884D03*
D12*
X176733Y621284D03*
X176733Y646684D03*
X176733Y672084D03*
X176733Y697484D03*
X176733Y722884D03*
X176733Y748284D03*
X176733Y773684D03*
X97333Y773684D03*
X97333Y748284D03*
X97333Y722884D03*
X97333Y697484D03*
X97333Y672084D03*
X97333Y646684D03*
X97333Y621284D03*
X97333Y595884D03*
D13*
X195707Y580644D03*
M02*
