M48
;GenerationSoftware,Autodesk,EAGLE,9.6.2*%
;CreationDate,2023-03-28T07:38:42Z*%
FMAT,2
ICI,OFF
METRIC,TZ,000.000
T3C0.350
T2C0.780
T1C1.016
%
G90
M71
T1
X36309Y39027
X6198Y52032
X6198Y49492
X6198Y46952
X6198Y44412
X6198Y41872
X36309Y54267
X36309Y41567
X36309Y44107
X36309Y46647
X36309Y49187
X36309Y51727
X36309Y77127
X36309Y56807
X36309Y59347
X36309Y61887
X36309Y64427
X36309Y66967
X36309Y69507
X36309Y72047
X36309Y74587
T2
X9733Y59588
X17724Y38760
X17724Y41300
X17724Y43840
X17724Y46380
X17724Y48920
X17724Y51460
X17724Y54000
X17724Y56540
X9784Y56540
X9784Y54000
X9784Y51460
X9784Y48920
X9784Y46380
X9784Y43840
X9784Y41300
X9784Y38760
X17673Y59588
X17673Y62128
X17673Y64668
X17673Y67208
X17673Y69748
X17673Y72288
X17673Y74828
X17673Y77368
X9733Y77368
X9733Y74828
X9733Y72288
X9733Y69748
X9733Y67208
X9733Y64668
X9733Y62128
T3
X19571Y58064
M30